<svg version="1.1" xmlns="http://www.w3.org/2000/svg" xmlns:xlink="http://www.w3.org/1999/xlink" width="432px" height="480px" viewBox="0 0 432 480"><path fill="#ECF4F9" d="M0,0h432v480H0V0z"/><path fill="none" stroke="#31A3E0" stroke-width="16" stroke-miterlimit="10" d="M374.034,361.348 c-9.312-4.246-92.646-31.884-100.841-36.117c-17.203-8.535-18.57-30.451-10.24-44.65c3.688-3.82,12.699-13.312,20.891-39.464 c3.143,0.819,5.873,1.093,7.715-1.498c4.439-6.283,16.317-34.686,11.062-50.388c-2.523-7.578-6.895-9.354-9.762-9.694 c3.002-24.582,2.867-28.814-0.547-45.743c-7.578-37.759-44.926-54.895-76.399-54.895c-31.477,0-68.89,17.136-76.399,54.895 c-3.415,16.929-3.552,21.162-0.546,45.743c-2.868,0.34-7.306,2.116-9.831,9.694c-5.19,15.906,6.691,43.968,11.061,50.388 c1.841,2.591,4.641,2.317,7.781,1.498c8.055,25.674,16.931,35.366,20.686,39.323c7.99,15.363,7.169,36.188-10.035,44.789 c-8.193,4.234-92.533,30.156-100.911,36.117c-31.693,22.553-31.898,94.61-31.693,110.653c19.865,0,355.031,0,379.703,0 C406.003,455.957,410.091,377.785,374.034,361.348z M168.665,280.439c10.681,12.791,31.339,25.398,47.248,25.398 c15.633,0,35.764-10.316,47.041-25.262"/></svg>