<svg version="1.1" xmlns="http://www.w3.org/2000/svg" xmlns:a="http://ns.adobe.com/AdobeSVGViewerExtensions/3.0/" width="56px" height="42px" viewBox="0 0 56 42">
<linearGradient id="SVGID_1_" gradientUnits="userSpaceOnUse" x1="2.1328" y1="1.9746" x2="43.0062" y2="42.848"><stop  offset="0" style="stop-color:#88C8EC"/><stop  offset="1" style="stop-color:#43A8DD"/><a:midPointStop  offset="0" style="stop-color:#88C8EC"/><a:midPointStop  offset="0.5" style="stop-color:#88C8EC"/><a:midPointStop  offset="1" style="stop-color:#43A8DD"/></linearGradient><path fill="url(#SVGID_1_)" d="M15,41.699c7.5-0.208,13-2.702,13-4.947v-1.986h-1c-0.942-0.004-1.874-0.196-2.739-0.565 c-3.311,1.08-6.778,1.606-10.261,1.559c-6.179,0-11.321-1.375-14-3.492v4.485c0,2.245,5.5,4.739,13,4.947 C11.038,42.1,16.962,42.1,15,41.699z M27.587,21.843c0-0.013,0-0.024,0-0.038c-0.009-0.051-0.023-0.102-0.041-0.151 c-0.005-0.053-0.016-0.105-0.03-0.157c-0.343-0.833-0.518-1.724-0.516-2.624c0-0.784,0.133-1.563,0.394-2.303 c0.991-2.781,3.636-4.643,6.606-4.649h0.01c0.145-0.002,0.288-0.036,0.418-0.099c0.039-0.022,0.075-0.047,0.11-0.074 c0.081-0.05,0.155-0.111,0.219-0.182c0.015-0.018,0.039-0.025,0.053-0.044C36.498,9.263,39.167,7.935,42,7.946 c3.215,0,6.186,1.704,7.792,4.47c1.608,2.765,1.608,6.172,0.001,8.938c-0.011,0.018-0.009,0.039-0.019,0.056 c-0.028,0.06-0.049,0.122-0.063,0.186c-0.021,0.064-0.034,0.131-0.04,0.199c-0.001,0.02-0.012,0.037-0.012,0.058 c0.007,0.041,0.016,0.082,0.028,0.121c0.006,0.067,0.021,0.134,0.041,0.199c0.022,0.06,0.05,0.116,0.084,0.17 c0.028,0.054,0.062,0.105,0.1,0.153c0.046,0.051,0.099,0.097,0.155,0.137c0.028,0.029,0.06,0.056,0.092,0.081 c0.024,0.014,0.047,0.018,0.074,0.03c0.027,0.013,0.054,0.023,0.082,0.034c0.11,0.042,0.226,0.065,0.343,0.068H51 c2.76,0.003,4.997,2.225,5,4.967c-0.005,2.741-2.241,4.961-5,4.966H27c-0.782,0.001-1.553-0.18-2.252-0.528 c-2.007-1.008-3.09-3.224-2.645-5.415c0.444-2.19,2.307-3.816,4.551-3.972c0.049-0.01,0.098-0.023,0.145-0.04 c0.056-0.006,0.112-0.017,0.166-0.033c0.013-0.005,0.02-0.021,0.033-0.021c0.064-0.033,0.124-0.073,0.178-0.119 c0.107-0.059,0.192-0.151,0.243-0.262c0.039-0.052,0.072-0.107,0.1-0.165c0.016-0.055,0.028-0.111,0.035-0.167 C27.573,21.988,27.584,21.916,27.587,21.843z M0,12.913V8.428c2.679,2.117,7.821,3.491,14,3.491c6.179,0,11.321-1.375,14-3.491 v3.812c-1.018,0.902-1.813,2.025-2.325,3.282C23,16.998,18.676,17.879,14,17.879C5.987,17.879,0,15.257,0,12.913z M0,4.966 C0,2.224,6.268,0,14,0s14,2.224,14,4.966c0,2.743-6.268,4.966-14,4.966S0,7.709,0,4.966z M0,28.806v-4.485 c2.679,2.117,7.821,3.492,14,3.492c2.022,0.001,4.042-0.165,6.037-0.497C20.025,27.481,20,27.646,20,27.812 c-0.002,1.875,0.762,3.669,2.117,4.974c-2.651,0.676-5.38,1.007-8.117,0.985C5.987,33.772,0,31.15,0,28.806z M0,20.859v-4.485 c2.679,2.117,7.821,3.491,14,3.491c3.766,0.062,7.511-0.569,11.046-1.861C25.018,18.292,25,18.582,25,18.873 c0.002,0.743,0.099,1.483,0.286,2.202c-2.161,0.54-3.932,2.075-4.764,4.128c-2.148,0.42-4.333,0.628-6.521,0.623 C5.987,25.826,0,23.204,0,20.859z"/></svg>
