<svg version="1.1" xmlns="http://www.w3.org/2000/svg" xmlns:xlink="http://www.w3.org/1999/xlink" x="0px" y="0px" width="22px" height="24px" viewBox="0 0 22 24"><path fill="#CAD5DC" d="M20.458,14.792l-1.806-1.775L10.529,5.03C9.032,3.569,6.616,3.573,5.125,5.04 c-1.492,1.466-1.496,3.843-0.011,5.314l8.123,7.989c0.332,0.327,0.871,0.327,1.203,0c0.333-0.326,0.333-0.856,0-1.184L6.318,9.171 c-0.831-0.816-0.831-2.141,0-2.958c0.83-0.816,2.177-0.816,3.008,0l8.125,7.987l1.805,1.774c1.495,1.472,1.495,3.856-0.001,5.326 c-1.496,1.471-3.921,1.471-5.416,0l-1.504-1.48l-8.423-8.283L3.31,10.946C1.207,8.813,1.233,5.415,3.369,3.313 c2.138-2.101,5.593-2.127,7.762-0.059l9.025,8.875c0.216,0.211,0.528,0.294,0.821,0.216c0.295-0.077,0.523-0.303,0.602-0.591 c0.079-0.289-0.004-0.597-0.219-0.808l-9.025-8.875C9.508-0.695,4.938-0.69,2.118,2.083C-0.701,4.856-0.707,9.35,2.106,12.129 l9.025,8.875l1.506,1.479c2.172,2.052,5.613,2.018,7.743-0.077C22.511,20.312,22.544,16.928,20.458,14.792L20.458,14.792z"/></svg>