<svg version="1.1" xmlns="http://www.w3.org/2000/svg" xmlns:xlink="http://www.w3.org/1999/xlink" width="22px" height="22px" viewBox="0 0 22 22"><path fill="#CAD5DC" d="M7.235,18.545c-1.044,1.043-2.736,1.043-3.779,0c-1.028-1.027-1.044-2.684-0.05-3.73L9.04,9.182 c-1.742-0.465-3.673-0.037-5.066,1.287L1.47,12.974c-1.991,2.094-1.958,5.406,0.097,7.46c2.087,2.088,5.472,2.088,7.559,0 l2.309-2.309c1.4-1.398,1.861-3.381,1.384-5.164L7.235,18.545z M20.434,1.566c-2.055-2.056-5.367-2.088-7.461-0.097l-2.503,2.504 C9.145,5.366,8.716,7.298,9.182,9.04l5.631-5.632c1.049-0.996,2.704-0.979,3.732,0.049c1.043,1.043,1.043,2.736,0,3.779 l-5.584,5.583c1.783,0.477,3.766,0.016,5.163-1.384l2.31-2.309C22.521,7.038,22.521,3.653,20.434,1.566L20.434,1.566z M7.352,14.648 c0.468,0.469,1.228,0.469,1.697,0l5.599-5.6c0.47-0.468,0.47-1.228,0-1.697c-0.461-0.461-1.204-0.469-1.675-0.021L7.33,12.974 C6.883,13.443,6.89,14.188,7.352,14.648z"/></svg>