<svg version="1.1" xmlns="http://www.w3.org/2000/svg" xmlns:a="http://ns.adobe.com/AdobeSVGViewerExtensions/3.0/" width="64px" height="52px" viewBox="0 0 64 52"><linearGradient id="SVGID_1_" gradientUnits="userSpaceOnUse" x1="216.8477" y1="-269" x2="259.1465" y2="-269" gradientTransform="matrix(1 0 0 -1 -206 -243)"><stop  offset="0" style="stop-color:#88C8EC"/><stop  offset="1" style="stop-color:#43A8DD"/></linearGradient><path fill="url(#SVGID_1_)" d="M42.645,3.152C42.645,1.414,41.199,0,39.464,0h-14.86c-1.738,0-3.114,1.4-3.114,3.152v4.662h21.154 V3.152z M34.818,38.922h-1.131c-0.369,0-0.67-0.302-0.67-0.672c0-0.364,0.301-0.67,0.67-0.67h1.371c0.303-1.033,0.855-2,1.67-2.814 c1.848-1.842,4.604-2.431,7.037-1.488c0.348,0.134,0.52,0.516,0.385,0.861c-0.129,0.342-0.516,0.518-0.863,0.385 c-1.934-0.744-4.137-0.277-5.602,1.188c-0.547,0.546-0.951,1.189-1.211,1.869h6.012c0.365,0,0.671,0.306,0.671,0.67 c0,0.37-0.306,0.672-0.671,0.672h-6.328c-0.042,0.446-0.024,0.898,0.046,1.338h5.694c0.367,0,0.668,0.305,0.668,0.674 c0,0.366-0.301,0.672-0.668,0.672h-5.287c0.252,0.552,0.611,1.076,1.062,1.531c1.469,1.463,3.672,1.934,5.605,1.191 c0.343-0.135,0.74,0.038,0.859,0.383c0.141,0.348-0.041,0.736-0.382,0.862c-0.771,0.296-1.575,0.444-2.37,0.444 c-1.719,0-3.408-0.67-4.668-1.925c-0.72-0.721-1.236-1.577-1.559-2.485h-1.475c-0.369,0-0.67-0.297-0.67-0.668 c0-0.365,0.301-0.668,0.67-0.668h1.164C34.794,39.82,34.787,39.368,34.818,38.922z M51.52,4.311h-6.723v1.886h5.276 c0.59,0,1.036,0.499,1.036,1.09V48.91c0,0.591-0.446,1.05-1.036,1.05H13.927c-0.592,0-1.037-0.459-1.037-1.05V7.288 c0-0.592,0.445-1.09,1.037-1.09h5.407V4.311h-6.856c-0.89,0-1.63,0.782-1.63,1.671V50.37c0,0.891,0.741,1.63,1.63,1.63h39.04 c0.892,0,1.629-0.739,1.629-1.63V5.982C53.146,5.093,52.409,4.311,51.52,4.311z"/><linearGradient id="SVGID_2_" gradientUnits="userSpaceOnUse" x1="17.2031" y1="28.709" x2="46.8184" y2="28.709"><stop  offset="0" style="stop-color:#88C8EC"/><stop  offset="1" style="stop-color:#43A8DD"/></linearGradient><path fill="none" stroke="url(#SVGID_2_)" stroke-width="1.3" stroke-linecap="round" stroke-linejoin="round" stroke-miterlimit="10" d=" M46.168,18.144H17.853v-6.565h28.315V18.144z M27.879,22.549h-9.712v23.29h9.712V22.549z M46.168,22.628H31.735v8.026h14.433V22.628 z M34.63,25.313h-0.062v4.958h0.062V25.313z M36.826,26.352h-0.062v3.921h0.062V26.352z M39.021,25.313H38.96v4.958h0.062V25.313z  M41.223,25.836h-0.065v4.438h0.065V25.836z M43.223,25.836h-0.065v4.438h0.065V25.836z"/></svg>