<svg version="1.1" xmlns="http://www.w3.org/2000/svg" xmlns:a="http://ns.adobe.com/AdobeSVGViewerExtensions/3.0/" width="64px" height="52px" viewBox="0 0 64 52">
<linearGradient id="SVGID_1_" gradientUnits="userSpaceOnUse" x1="15.2295" y1="9.2412" x2="48.7711" y2="42.7829"><stop  offset="0" style="stop-color:#88C8EC"/><stop  offset="1" style="stop-color:#43A8DD"/><a:midPointStop  offset="0" style="stop-color:#88C8EC"/><a:midPointStop  offset="0.5" style="stop-color:#88C8EC"/><a:midPointStop  offset="1" style="stop-color:#43A8DD"/></linearGradient><path fill="url(#SVGID_1_)" d="M24.103,35.196h15.793c2.146,0,3.527-2.2,2.683-4.097c-1.15-2.503-3.143-4.551-5.75-5.689 c-2.836,2.124-6.67,2.124-9.506,0c-2.607,1.138-4.677,3.186-5.827,5.689C20.577,32.997,21.957,35.196,24.103,35.196z M32,24.955 c3.144,0,5.75-2.579,5.75-5.689c0-3.111-2.606-5.69-5.75-5.69c-3.143,0-5.75,2.579-5.75,5.69C26.25,22.376,28.856,24.955,32,24.955z  M32,8.5c1.934,0,3.5-1.567,3.5-3.5S33.933,1.5,32,1.5c-1.933,0-3.5,1.567-3.5,3.5S30.067,8.5,32,8.5z M32,50.5 c1.934,0,3.5-1.567,3.5-3.5s-1.566-3.5-3.5-3.5c-1.933,0-3.5,1.567-3.5,3.5S30.067,50.5,32,50.5z M53,29.5 c1.933,0,3.5-1.567,3.5-3.5s-1.567-3.5-3.5-3.5s-3.5,1.567-3.5,3.5S51.067,29.5,53,29.5z M11,29.5c1.933,0,3.5-1.567,3.5-3.5 s-1.567-3.5-3.5-3.5c-1.933,0-3.5,1.567-3.5,3.5S9.067,29.5,11,29.5z M47,13.5c-0.662,0-1.324-0.294-1.765-0.735 C44.721,12.25,44.5,11.662,44.5,11s0.294-1.324,0.735-1.765C45.75,8.721,46.338,8.5,47,8.5c0.662,0,1.323,0.294,1.765,0.735 C49.279,9.75,49.5,10.338,49.5,11s-0.294,1.324-0.735,1.765C48.323,13.206,47.662,13.5,47,13.5z M17,43.5 c-0.667,0-1.333-0.29-1.778-0.725c-0.963-0.942-0.963-2.536,0-3.551C15.741,38.717,16.333,38.5,17,38.5 c0.667,0,1.333,0.29,1.777,0.725c0.963,0.942,0.963,2.536,0,3.551C18.333,43.21,17.667,43.5,17,43.5z M47,43.5 c-0.667,0-1.333-0.29-1.778-0.725c-0.963-0.942-0.963-2.536,0-3.551C45.741,38.717,46.333,38.5,47,38.5 c0.667,0,1.333,0.29,1.778,0.725c0.963,0.942,0.963,2.536,0,3.551C48.333,43.21,47.667,43.5,47,43.5z M17,13.5 c-0.662,0-1.324-0.294-1.765-0.735C14.72,12.25,14.5,11.662,14.5,11s0.294-1.324,0.735-1.765C15.676,8.794,16.338,8.5,17,8.5 c0.662,0,1.324,0.294,1.765,0.735C19.206,9.676,19.5,10.338,19.5,11s-0.294,1.324-0.735,1.765S17.662,13.5,17,13.5z"/></svg>
