<svg version="1.1" xmlns="http://www.w3.org/2000/svg" xmlns:a="http://ns.adobe.com/AdobeSVGViewerExtensions/3.0/" width="64px" height="52px" viewBox="0 0 64 52">
<linearGradient id="SVGID_1_" gradientUnits="userSpaceOnUse" x1="6" y1="26" x2="58" y2="26"><stop  offset="0" style="stop-color:#88C8EC"/><stop  offset="1" style="stop-color:#43A8DD"/></linearGradient><path fill="url(#SVGID_1_)" d="M32,0c-0.199,0-0.393,0.011-0.59,0.017v1.166v1.21v11.79h2.362V2.455 C45.977,3.366,55.635,13.564,55.635,26c0,13.033-10.602,23.635-23.635,23.635C18.966,49.635,8.363,39.033,8.363,26 c0-6.4,2.566-12.207,6.712-16.464L13.393,7.85C8.82,12.534,6,18.938,6,26c0,14.359,11.64,26,26,26c14.359,0,26-11.641,26-26 C58,11.64,46.359,0,32,0 M32.865,28.953c1.45-0.342,2.941-1.244,2.859-3.518c-0.038-1.063-0.655-2.024-1.529-2.624L19,12.41 l10.128,15.061C29.949,28.689,31.436,29.288,32.865,28.953"/></svg>