<svg version="1.1" xmlns="http://www.w3.org/2000/svg" xmlns:a="http://ns.adobe.com/AdobeSVGViewerExtensions/3.0/" width="65px" height="52px" viewBox="0 0 65 52">
<linearGradient id="SVGID_1_" gradientUnits="userSpaceOnUse" x1="14.0195" y1="7.5195" x2="50.9817" y2="44.4817"><stop  offset="0" style="stop-color:#88C8EC"/><stop  offset="1" style="stop-color:#43A8DD"/><a:midPointStop  offset="0" style="stop-color:#88C8EC"/><a:midPointStop  offset="0.5" style="stop-color:#88C8EC"/><a:midPointStop  offset="1" style="stop-color:#43A8DD"/></linearGradient><path fill="url(#SVGID_1_)" d="M59.002,26c0-2.539-5.218-4.259-6.046-6.552c-0.745-2.375,2.484-6.88,0.911-8.846 c-1.49-2.047-6.79-0.328-8.777-1.802c-1.988-1.474-2.07-6.961-4.473-7.699c-2.318-0.819-5.549,3.604-8.201,3.604 c-2.567,0-5.88-4.423-8.198-3.604c-2.402,0.737-2.484,6.225-4.472,7.699c-2.07,1.475-7.288-0.245-8.778,1.802 c-1.491,1.966,1.739,6.47,0.91,8.846C11.216,21.741,6,23.461,6,26s5.217,4.259,6.045,6.553c0.745,2.375-2.484,6.879-0.911,8.846 c1.491,2.047,6.791,0.327,8.778,1.801c1.988,1.475,2.07,6.963,4.473,7.699c2.318,0.737,5.548-3.604,8.197-3.604 c2.571,0,5.882,4.423,8.202,3.604c2.401-0.736,2.484-6.225,4.472-7.699c2.07-1.474,7.287,0.246,8.778-1.801 c1.49-1.967-1.739-6.471-0.911-8.846C53.784,30.259,59.002,28.539,59.002,26z M25.5,15c1.933,0,3.5,1.567,3.5,3.5S27.432,22,25.5,22 S22,20.433,22,18.5S23.567,15,25.5,15z M39.502,29c1.933,0,3.5,1.566,3.5,3.5s-1.567,3.5-3.5,3.5s-3.5-1.566-3.5-3.5 S37.569,29,39.502,29z M42.002,15c1,0.062,1.938,1.312,2,2S24.875,37,24,37s-2-1.188-2-2S41.002,14.938,42.002,15z"/></svg>