<svg xmlns="http://www.w3.org/2000/svg" xmlns:xlink="http://www.w3.org/1999/xlink" width="64px" height="52px" viewBox="0 0 64 52"><linearGradient id="SVGID_1_" gradientUnits="userSpaceOnUse" x1="12.4624" y1="1.8306" x2="51.4886" y2="40.8568"><stop  offset="0" style="stop-color:#88C8EC"/><stop  offset="1" style="stop-color:#43A8DD"/></linearGradient><polygon fill="url(#SVGID_1_)" points="26.438,11.172 21.757,6.586 7.706,6.586 0,14.296 0,28.245 7.805,36.149 23.317,36.149  43.709,14.391 52.973,14.391 56.096,17.516 56.096,25.318 51.318,29.907 45.169,29.907 41.271,26.782 35.904,31.468 35.904,45.414  43.609,45.414 43.609,37.807 56.195,36.149 64,28.345 64,14.391 56.096,6.586 40.588,6.586 20.243,28.345 10.878,28.345  7.706,25.025 7.706,17.318 10.829,14.296 18.635,14.296 21.757,16.637 "/></svg>