<svg version="1.1" xmlns="http://www.w3.org/2000/svg" xmlns:a="http://ns.adobe.com/AdobeSVGViewerExtensions/3.0/" width="110px" height="120px" viewBox="0 0 110 120">
<linearGradient id="SVGID_1_" gradientUnits="userSpaceOnUse" x1="9.209" y1="28.5645" x2="100.7358" y2="120.0913"><stop  offset="0" style="stop-color:#88C8EC"/><stop  offset="1" style="stop-color:#43A8DD"/><a:midPointStop  offset="0" style="stop-color:#88C8EC"/><a:midPointStop  offset="0.5" style="stop-color:#88C8EC"/><a:midPointStop  offset="1" style="stop-color:#43A8DD"/></linearGradient><path fill="url(#SVGID_1_)" d="M29,55.5h53v6H29V55.5z M105.465,42.855V77.29H99.05c1.327-1.234,2.102-3.028,2.102-5.048V47.566 c0-3.926-3.098-7.066-6.969-7.066s-6.968,3.141-6.968,7.066v20.975l-20.574-1.57c-1.438-0.112-2.876,0.448-3.981,1.458 C61.553,69.438,61,70.784,61,72.354v33.874c0,2.916,2.322,5.271,5.198,5.271s5.199-2.355,5.199-5.271V77.963l3.761,0.336v32.641 h4.646V82.001h25.55v28.826H110V42.855H105.465z M89,38.5c4.971,0,9-4.029,9-9s-4.029-9-9-9s-9,4.029-9,9S84.029,38.5,89,38.5z  M43.69,66.971l-20.684,0.897V47.566c0-3.926-3.098-7.066-6.969-7.066s-6.969,3.141-6.969,7.066v24.676 c0,2.02,0.774,3.701,2.103,5.048H4.646V42.855H0v68.084h4.646V82.001h25.551v28.826h4.646V77.963l3.761-0.112v28.378 c0,2.916,2.323,5.271,5.198,5.271c2.876,0,5.199-2.355,5.199-5.271V72.242c0-1.458-0.554-2.804-1.659-3.813 C46.456,67.419,45.128,66.971,43.69,66.971z M21,38.5c4.971,0,9-4.029,9-9s-4.029-9-9-9s-9,4.029-9,9S16.029,38.5,21,38.5z M55,44.5 c9.878,0,18-8.348,18-18.5S64.878,7.5,55,7.5S37,15.734,37,26S45.122,44.5,55,44.5z M55,12.463c7.243,0,13.171,6.092,13.171,13.537 c0,2.933-0.988,5.753-2.524,8.009c-0.988-1.917-2.744-3.271-4.72-3.271H49.073c-2.085,0-3.731,1.354-4.72,3.271 c-1.537-2.256-2.524-4.963-2.524-8.009C41.829,18.555,47.756,12.463,55,12.463z M55,16.5c-3.283,0-6,2.717-6,6s2.717,6,6,6 s6-2.717,6-6S58.283,16.5,55,16.5z"/></svg>