<svg version="1.1" xmlns="http://www.w3.org/2000/svg" xmlns:a="http://ns.adobe.com/AdobeSVGViewerExtensions/3.0/" width="64px" height="52px" viewBox="0 0 64 52"><linearGradient id="SVGID_1_" gradientUnits="userSpaceOnUse" x1="6.3896" y1="26" x2="57.6094" y2="26"><stop  offset="0" style="stop-color:#88C8EC"/><stop  offset="1" style="stop-color:#43A8DD"/></linearGradient><linearGradient id="SVGID_2_" gradientUnits="userSpaceOnUse" x1="6.0898" y1="26" x2="57.9092" y2="26"><stop  offset="0" style="stop-color:#88C8EC"/><stop  offset="1" style="stop-color:#43A8DD"/></linearGradient><path fill="url(#SVGID_1_)" stroke="url(#SVGID_2_)" stroke-width="0.6" stroke-linecap="round" stroke-linejoin="round" stroke-miterlimit="10" d=" M16.495,28.398c3.505,0,6.343-2.843,6.343-6.35c0-3.505-2.838-6.343-6.343-6.343c-3.507,0-6.347,2.838-6.347,6.343 C10.147,25.556,12.987,28.398,16.495,28.398z M16.495,16.817c2.891,0,5.23,2.34,5.23,5.231c0,2.897-2.34,5.238-5.23,5.238 c-2.897,0-5.233-2.341-5.233-5.238C11.262,19.157,13.597,16.817,16.495,16.817z M54.894,31.4C54.894,31.35,54.84,31.35,54.894,31.4 l-2.612-1.393c-0.5-0.336-1.12-0.285-1.56,0.164c-1.945,1.564-4.789,1.564-6.79,0c-0.447-0.381-1.058-0.449-1.558-0.164L39.815,31.4 c0,0-0.054,0-0.054,0.057c-1.005,0.717-1.785,1.666-2.178,2.783l-0.72-0.439c-0.5-0.342-1.114-0.285-1.559,0.107 c-2,1.502-4.787,1.502-6.792,0c-0.446-0.393-1.056-0.449-1.556-0.107l-0.669,0.381c-0.446-1.115-1.172-2.115-2.172-2.781 c0,0-0.056,0-0.056-0.051l-2.559-1.393c-0.5-0.342-1.114-0.285-1.556,0.158c-1.949,1.559-4.788,1.559-6.793,0 c-0.443-0.393-1.058-0.443-1.558-0.158L9.036,31.35c0,0-0.054,0-0.054,0.051c-1.95,1.336-2.897,3.725-2.505,6.066l1.78,8.012 c0.279,1.342,1.502,2.29,2.894,2.29h10.908c0.446,0,0.835-0.124,1.226-0.282l0.391,1.836c0.278,1.332,1.504,2.277,2.891,2.277 h10.906c1.397,0,2.559-0.945,2.897-2.277l0.393-1.836c0.381,0.158,0.773,0.282,1.22,0.282h10.911c1.394,0,2.558-0.948,2.894-2.29 l1.776-8.012C57.845,35.074,56.845,32.736,54.894,31.4z M21.949,46.645h-10.91c-0.891,0-1.613-0.609-1.779-1.441l-1.78-7.952 c-0.337-1.896,0.443-3.843,2.057-4.901l2.559-1.393c0,0,0.057,0,0.057-0.057c0.059-0.051,0.167-0.051,0.223,0 c0,0,0.057,0,0.057,0.057c2.391,1.951,5.842,1.951,8.236,0c0,0,0.058,0,0.058-0.057c0.054-0.051,0.107-0.051,0.223,0 c0,0,0.054,0,0.054,0.057l2.559,1.393c0.837,0.609,1.449,1.451,1.839,2.391l-0.893,0.501c0,0-0.054,0-0.054,0.06 c-1.949,1.327-2.895,3.725-2.504,6.064l1.112,5.062C22.614,46.537,22.281,46.645,21.949,46.645z M39.138,49.041 c-0.161,0.839-0.946,1.447-1.773,1.447H26.458c-0.895,0-1.618-0.608-1.782-1.447l-1.783-7.957c-0.335-1.896,0.444-3.833,2.062-4.902 l2.557-1.381c0,0,0.055,0,0.055-0.061c0.054-0.059,0.169-0.059,0.223,0l0.054,0.061c2.395,1.827,5.786,1.827,8.181,0l0.054-0.061 c0.054-0.059,0.107-0.059,0.231,0c0,0,0.054,0,0.054,0.061l2.559,1.381c1.557,1.121,2.339,3.071,2.059,4.902L39.138,49.041z M56.345,37.184l-1.787,8.02c-0.164,0.832-0.949,1.441-1.776,1.441H41.874c-0.339,0-0.678-0.107-1.005-0.273l1.112-5.061 c0.393-2.342-0.608-4.683-2.505-6.069c0,0-0.054,0-0.054-0.06l-0.893-0.5c0.339-0.941,1-1.773,1.839-2.389l2.559-1.393 c0,0,0.054,0,0.054-0.051c0.054-0.057,0.166-0.057,0.222,0c0,0,0.063,0,0.063,0.051c2.386,1.95,5.837,1.95,8.229,0 c0,0,0.054,0,0.054-0.051c0.058-0.057,0.113-0.057,0.231,0c0,0,0.054,0,0.054,0.051l2.559,1.393 C55.843,33.408,56.671,35.354,56.345,37.184z M40.981,22.049c0,3.507,2.839,6.35,6.347,6.35c3.507,0,6.335-2.843,6.335-6.35 c0-3.505-2.828-6.343-6.335-6.343C43.82,15.706,40.981,18.544,40.981,22.049z M47.328,16.817c2.891,0,5.227,2.34,5.227,5.231 c0,2.897-2.336,5.238-5.227,5.238c-2.896,0-5.239-2.341-5.239-5.238C42.089,19.157,44.433,16.817,47.328,16.817z M31.912,19.544 c-3.505,0-6.349,2.841-6.349,6.349c0,3.506,2.844,6.344,6.349,6.344c3.505,0,6.345-2.838,6.345-6.344 C38.257,22.385,35.417,19.544,31.912,19.544z M31.912,31.12c-2.895,0-5.23-2.329-5.23-5.228c0-2.897,2.335-5.23,5.23-5.23 c2.894,0,5.226,2.333,5.226,5.23C37.138,28.791,34.806,31.12,31.912,31.12z M23.114,13.203c-0.054,1.335-0.333,1.726-0.387,1.781 c-0.223,0.107-0.393,0.329-0.336,0.554c0.059,0.279,0.282,0.501,0.559,0.501c2.559,0,3.73-1.226,4.115-1.834 c0.115,0,0.223,0,0.338,0c2.505,0,4.785-0.946,6.227-2.505c0.556,0.387,1.175,0.724,1.841,0.943c0.893,0.336,1.785,0.444,2.72,0.444 c0.393,0.559,1.339,1.45,3.344,1.45c0.285,0,0.5-0.225,0.554-0.502c0-0.224-0.107-0.448-0.324-0.556 c-0.068-0.056-0.229-0.337-0.283-1.279c1.893-1.001,3.112-2.842,3.112-4.788c0-3.115-2.951-5.62-6.617-5.62 c-0.894,0-1.722,0.166-2.56,0.446c-0.611,0.22-1.111,0.5-1.611,0.833C32.298,1.458,29.963,0.4,27.345,0.4 c-4.507,0-8.122,3.118-8.122,6.902C19.223,9.696,20.667,11.922,23.114,13.203z M35.809,3.348c0.663-0.221,1.448-0.387,2.168-0.387 c3.059,0,5.508,2.005,5.508,4.51c0,1.611-1.057,3.112-2.788,3.949c0,0-0.054,0-0.054,0.058c-0.054,0-0.107,0.056-0.107,0.109 l-0.056,0.056c0,0.058-0.057,0.058-0.057,0.112c0,0.054,0,0.054,0,0.107c0,0.06,0,0.06,0,0.117c0,0.608,0.057,1.055,0.166,1.445 c-1.166-0.281-1.505-1.001-1.559-1.06c-0.107-0.222-0.339-0.332-0.554-0.332c-0.893,0.054-1.844-0.054-2.612-0.333 c-0.559-0.167-1.059-0.446-1.505-0.781c0.72-1.058,1.166-2.282,1.166-3.562c0-1.225-0.393-2.337-1.002-3.338 C34.913,3.74,35.306,3.519,35.809,3.348z M27.345,1.515c3.897,0,7.015,2.613,7.015,5.788c0,3.173-3.171,5.785-7.015,5.785 c-0.223,0-0.387,0-0.61,0l0,0c-0.223,0-0.446,0.115-0.556,0.337c0,0.056-0.5,1.113-2.226,1.442c0.107-0.44,0.223-1.108,0.223-2.001 c0-0.223-0.169-0.442-0.339-0.501c-2.167-1.057-3.505-2.947-3.505-5.009C20.333,4.128,23.507,1.515,27.345,1.515z M23.114,7.971 c0.06,0.054,0.114,0.109,0.169,0.109c0.054,0.057,0.11,0.057,0.223,0.057c0.107,0,0.168,0,0.223-0.057 c0.054-0.056,0.107-0.056,0.167-0.109c0.11-0.114,0.164-0.222,0.164-0.393c0-0.054,0-0.165-0.054-0.222 c0-0.054-0.054-0.108-0.11-0.167c-0.059-0.057-0.113-0.111-0.167-0.111c-0.116-0.054-0.279-0.054-0.446,0 c-0.056,0-0.11,0.055-0.169,0.111c-0.054,0.059-0.109,0.113-0.109,0.167c-0.054,0.057-0.054,0.114-0.054,0.222 c0,0.115,0,0.171,0.054,0.225C23.005,7.856,23.061,7.914,23.114,7.971z M27.345,8.137c0.168,0,0.277-0.057,0.393-0.166 c0.107-0.114,0.167-0.222,0.167-0.393c0-0.054,0-0.165-0.06-0.222c0-0.054-0.054-0.108-0.107-0.167c-0.225-0.22-0.556-0.22-0.779,0 c-0.054,0.059-0.115,0.113-0.115,0.167c-0.054,0.057-0.054,0.114-0.054,0.222c0,0.171,0.054,0.278,0.169,0.393 C27.066,8.08,27.235,8.137,27.345,8.137z M31.188,8.137c0.162,0,0.277-0.057,0.387-0.166c0.113-0.114,0.167-0.222,0.167-0.393 c0-0.165-0.054-0.275-0.167-0.389c-0.225-0.22-0.556-0.22-0.779,0c-0.109,0.113-0.166,0.224-0.166,0.389 c0,0.171,0.056,0.278,0.166,0.393C30.91,8.08,31.019,8.137,31.188,8.137z"/></svg>