<svg version="1.1" xmlns="http://www.w3.org/2000/svg" xmlns:a="http://ns.adobe.com/AdobeSVGViewerExtensions/3.0/" width="19px" height="22px" viewBox="0 0 19 22">
<linearGradient id="SVGID_1_" gradientUnits="userSpaceOnUse" x1="302.999" y1="-380.5" x2="322.001" y2="-380.5" gradientTransform="matrix(1 0 0 -1 -303 -369.5)"><stop  offset="0" style="stop-color:#88C8EC"/><stop  offset="1" style="stop-color:#43A8DD"/></linearGradient><path fill="url(#SVGID_1_)" d="M9.498,3.5c-4.693,0-8.499,3.806-8.499,8.5c0,4.693,3.806,8.5,8.499,8.5 c4.694,0,8.501-3.807,8.501-8.5C17.999,7.306,14.192,3.5,9.498,3.5z M9.498,18.844c-3.773,0-6.845-3.07-6.845-6.844 c0-3.774,3.07-6.844,6.845-6.844s6.847,3.07,6.847,6.844C16.345,15.773,13.272,18.844,9.498,18.844z M17.896,2.641 C17.185,1.905,16.238,1.5,15.231,1.5c-0.813,0-1.59,0.266-2.231,0.757c1.276,0.477,2.448,1.242,3.437,2.264 c0.844,0.872,1.506,1.881,1.967,2.979c0.389-0.622,0.598-1.347,0.598-2.104C19,4.355,18.606,3.377,17.896,2.641z M3.766,1.5 c-1.007,0-1.952,0.405-2.663,1.141C0.391,3.377-0.001,4.355-0.001,5.395c0,0.758,0.209,1.482,0.596,2.104 c0.462-1.096,1.124-2.105,1.966-2.978C3.551,3.5,4.722,2.734,5.999,2.257C5.354,1.766,4.581,1.5,3.766,1.5z M2.911,18.5 l-0.912,1.189L3.106,20.5l0.892-1.162C3.622,19.081,3.26,18.801,2.911,18.5z M16.088,18.5c-0.349,0.301-0.712,0.581-1.089,0.838 l0.893,1.162L17,19.689L16.088,18.5z M9.498,6.5c-3.032,0-5.5,2.467-5.5,5.5s2.468,5.5,5.5,5.5c3.034,0,5.501-2.467,5.501-5.5 S12.532,6.5,9.498,6.5z M8.999,12.5v-5h1.063v3.936H14V12.5H8.999z"/></svg>