<svg version="1.1" xmlns="http://www.w3.org/2000/svg" xmlns:a="http://ns.adobe.com/AdobeSVGViewerExtensions/3.0/" width="110px" height="120px" viewBox="0 0 110 120">
<linearGradient id="SVGID_1_" gradientUnits="userSpaceOnUse" x1="14.2046" y1="36.3599" x2="95.2947" y2="117.45"><stop  offset="0" style="stop-color:#88C8EC"/><stop  offset="1" style="stop-color:#43A8DD"/><a:midPointStop  offset="0" style="stop-color:#88C8EC"/><a:midPointStop  offset="0.5" style="stop-color:#88C8EC"/><a:midPointStop  offset="1" style="stop-color:#43A8DD"/></linearGradient><path fill="url(#SVGID_1_)" d="M72.771,109.387c-5.386,2.339-11.143,3.778-17.271,3.778s-11.7-1.26-17.271-3.778 c-1.857-0.899-4.086-0.18-4.829,1.619c-0.929,1.799-0.186,3.957,1.672,4.677C41.386,118.561,48.257,120,55.5,120 c7.242,0,14.114-1.439,20.429-4.317c1.856-0.899,2.601-2.878,1.671-4.677C76.857,109.387,74.629,108.487,72.771,109.387z  M26.349,33.637c-7.11,5.291-12.723,12.226-16.09,20.437c-0.749,1.824,0.187,4.015,2.058,4.744C12.878,59,13.252,59,13.626,59 c1.497,0,2.994-0.912,3.368-2.372c2.806-6.935,7.483-12.773,13.47-17.152c1.685-1.277,2.059-3.467,0.749-5.109 C30.277,32.906,28.032,32.542,26.349,33.637z M92.07,56.64c0.551,1.452,2.018,2.36,3.301,2.36c0.549,0,0.916-0.182,1.283-0.182 c1.833-0.727,2.933-2.904,2.016-4.721c-3.299-8.17-8.615-15.068-15.766-20.334c-1.649-1.271-3.85-0.907-5.133,0.727 s-0.916,3.812,0.733,5.084C84.921,43.931,89.32,49.922,92.07,56.64z M71,37.203c0-7.312-2.447-13.875-7.529-17.062 c-0.188-0.188-0.564-0.188-0.753,0c-2.07,1.5-4.894,2.438-7.717,2.438c-2.824,0-5.647-0.938-7.718-2.438 c-0.188-0.188-0.564-0.188-0.753,0c-5.083,3.375-7.529,9.75-7.529,17.062C38.812,42.266,71,42.266,71,37.203z M54.5,19 c5.246,0,9.5-4.253,9.5-9.5S59.746,0,54.5,0C49.253,0,45,4.253,45,9.5S49.253,19,54.5,19z M24.32,85.141 c-0.187-0.188-0.562-0.188-0.748,0c-2.058,1.5-4.864,2.438-7.671,2.438c-2.993,0-5.612-0.938-7.67-2.438 c-0.187-0.188-0.561-0.188-0.748,0C2.433,88.516,0,94.891,0,102.203c0,5.062,31.99,5.062,31.99,0 C32.178,94.891,29.559,88.328,24.32,85.141z M15.5,84c5.247,0,9.5-4.253,9.5-9.5S20.747,65,15.5,65C10.254,65,6,69.253,6,74.5 S10.254,84,15.5,84z M102.327,85.141c-0.187-0.188-0.562-0.188-0.748,0c-2.059,1.5-4.866,2.438-7.673,2.438 c-2.994,0-5.614-0.938-7.672-2.438c-0.188-0.188-0.562-0.188-0.75,0C80.433,88.516,78,94.891,78,102.203c0,5.062,32,5.062,32,0 C110,94.891,107.566,88.328,102.327,85.141z M94.5,84c5.246,0,9.5-4.253,9.5-9.5S99.746,65,94.5,65S85,69.253,85,74.5 S89.254,84,94.5,84z M55,94c11.605,0,21-9.618,21-21.5S66.605,51,55,51s-21,9.618-21,21.5S43.579,94,55,94z M55,56.658 c8.474,0,15.474,7.166,15.474,15.842s-7,15.842-15.474,15.842S39.526,81.176,39.526,72.5S46.526,56.658,55,56.658z M55.157,75h6.871 C63.514,75,65,73.711,65,72.053c0-1.474-1.301-2.947-2.972-2.947h-4.086v-5.158c0-1.474-1.3-2.947-2.971-2.947 C53.486,61,52,62.289,52,63.947v8.105C52.372,73.711,53.672,75,55.157,75z"/></svg>