<svg xmlns="http://www.w3.org/2000/svg" xmlns:xlink="http://www.w3.org/1999/xlink" width="44px" height="36px" viewBox="0 0 44 36"><linearGradient id="SVGID_1_" gradientUnits="userSpaceOnUse" x1="11.0591" y1="4.2026" x2="35.7981" y2="28.9417"><stop  offset="0" style="stop-color:#88C8EC"/><stop  offset="1" style="stop-color:#43A8DD"/></linearGradient><path fill="url(#SVGID_1_)" d="M38.375,11.835C39.1,13.754,39.5,15.83,39.5,18c0,9.654-7.85,17.5-17.5,17.5S4.5,27.654,4.5,18 S12.35,0.5,22,0.5c4.021,0,7.728,1.368,10.686,3.656l-1.658,1.658C28.505,3.943,25.389,2.836,22,2.836 C13.61,2.836,6.833,9.609,6.833,18S13.61,33.164,22,33.164c8.391,0,15.167-6.773,15.167-15.164c0-1.506-0.223-2.957-0.632-4.324 L38.375,11.835z M39.402,5.042c-0.205-0.438-0.709-0.722-1.191-0.663c-0.258,0.031-0.509,0.15-0.691,0.342L20.043,21.828 l-5.795-5.454c-0.435-0.466-1.262-0.47-1.7-0.007c-0.435,0.455-0.39,1.283,0.095,1.691l6.61,6.223 c0.431,0.409,1.189,0.402,1.615-0.01l18.28-17.889c0.22-0.21,0.351-0.524,0.351-0.828C39.5,5.372,39.477,5.204,39.402,5.042z"/></svg>