<svg version="1.1" xmlns="http://www.w3.org/2000/svg" xmlns:a="http://ns.adobe.com/AdobeSVGViewerExtensions/3.0/" width="18px" height="18px" viewBox="0 0 18 18"><linearGradient id="SVGID_1_" gradientUnits="userSpaceOnUse" x1="2.1455" y1="2.1289" x2="17.8144" y2="17.7978"><stop  offset="0" style="stop-color:#86C8EC"/><stop  offset="1" style="stop-color:#42A8DE"/><a:midPointStop  offset="0" style="stop-color:#86C8EC"/><a:midPointStop  offset="0.5" style="stop-color:#86C8EC"/><a:midPointStop  offset="1" style="stop-color:#42A8DE"/></linearGradient><path fill="url(#SVGID_1_)" d="M17.81,16.818l-4.952-4.979c0.45-0.59,0.844-1.209,1.125-1.884c0.338-0.872,0.535-1.771,0.535-2.728 c0-0.956-0.197-1.856-0.535-2.728c-0.365-0.9-0.899-1.716-1.604-2.391c-0.703-0.675-1.49-1.237-2.391-1.603 C9.116,0.197,8.216,0,7.258,0C6.302,0,5.401,0.197,4.529,0.534c-0.9,0.366-1.716,0.9-2.392,1.604 c-0.675,0.703-1.238,1.49-1.604,2.391C0.197,5.4,0,6.3,0,7.256c0,0.956,0.197,1.856,0.534,2.728c0.366,0.9,0.901,1.716,1.604,2.391 s1.491,1.237,2.392,1.604c0.872,0.337,1.772,0.534,2.729,0.534c0.958,0,1.858-0.197,2.73-0.534c0.703-0.281,1.321-0.647,1.885-1.125 l4.98,4.949C16.994,17.943,17.19,18,17.332,18c0.196,0,0.336-0.057,0.478-0.197C18.063,17.55,18.063,17.1,17.81,16.818z  M4.982,10.077c0.314,0.278,0.314,0.698,0,0.978c-0.157,0.14-0.376,0.195-0.534,0.195c-0.156,0-0.377-0.056-0.534-0.195 C2.847,10.104,2.25,8.848,2.25,7.507s0.597-2.598,1.665-3.547c0.314-0.279,0.786-0.279,1.101,0c0.313,0.279,0.313,0.698,0,0.978 c-0.786,0.699-1.226,1.62-1.226,2.57S4.197,9.378,4.982,10.077z"/></svg>