<svg version="1.1" xmlns="http://www.w3.org/2000/svg" xmlns:a="http://ns.adobe.com/AdobeSVGViewerExtensions/3.0/" width="65px" height="52px" viewBox="0 0 65 52">
<linearGradient id="SVGID_1_" gradientUnits="userSpaceOnUse" x1="13.1743" y1="8.6694" x2="51.8325" y2="47.3276"><stop  offset="0" style="stop-color:#88C8EC"/><stop  offset="1" style="stop-color:#43A8DD"/><a:midPointStop  offset="0" style="stop-color:#88C8EC"/><a:midPointStop  offset="0.5" style="stop-color:#88C8EC"/><a:midPointStop  offset="1" style="stop-color:#43A8DD"/></linearGradient><path fill="url(#SVGID_1_)" d="M37.754,1C38.455,1,39,1.5,39,2.143v2.714C39,5.5,38.455,6,37.754,6H27.245C26.544,6,26,5.5,26,4.857 V2.143C26,1.5,26.544,1,27.245,1H37.754z M47.229,5h-5.797v0.696c0,1.933-1.646,3.556-3.604,3.556H27.25 c-1.958,0-3.604-1.624-3.604-3.556V5h-5.798c-1.332,0-2.35,1.005-2.35,2.319v41.361c0,1.314,1.018,2.319,2.35,2.319H47.15 c1.332,0,2.35-1.005,2.35-2.319V7.319C49.5,6.005,48.482,5,47.229,5z M24.672,38.562c0,0-2.477,3.711-2.672,3.906 s-0.633,0.164-0.844-0.047s-1.891-1.766-1.891-1.766s-0.219-0.531,0.109-0.859c0.258-0.258,0.734-0.062,0.734-0.062L21.5,41 l2.11-3.188c0,0,0.527-0.57,0.969-0.203C25.047,38,24.672,38.562,24.672,38.562z M24.672,27.562c0,0-2.477,3.711-2.672,3.906 s-0.633,0.164-0.844-0.047s-1.891-1.766-1.891-1.766s-0.219-0.531,0.109-0.859c0.258-0.258,0.734-0.062,0.734-0.062L21.5,30 l2.11-3.188c0,0,0.527-0.57,0.969-0.203C25.047,27,24.672,27.562,24.672,27.562z M24.672,16.562c0,0-2.477,3.711-2.672,3.906 s-0.633,0.164-0.844-0.047s-1.891-1.766-1.891-1.766s-0.219-0.531,0.109-0.859c0.258-0.258,0.734-0.062,0.734-0.062L21.5,19 l2.11-3.188c0,0,0.527-0.571,0.969-0.203C25.047,16,24.672,16.562,24.672,16.562z M44.5,42h-16c-0.552,0-1-0.447-1-1s0.448-1,1-1h16 c0.553,0,1,0.447,1,1S45.053,42,44.5,42z M44.5,31h-16c-0.552,0-1-0.447-1-1s0.448-1,1-1h16c0.553,0,1,0.447,1,1S45.053,31,44.5,31z  M44.5,20h-16c-0.552,0-1-0.448-1-1s0.448-1,1-1h16c0.553,0,1,0.448,1,1S45.053,20,44.5,20z"/></svg>