<svg version="1.1" xmlns="http://www.w3.org/2000/svg" xmlns:a="http://ns.adobe.com/AdobeSVGViewerExtensions/3.0/" width="18px" height="22px" viewBox="0 0 18 22">
<linearGradient id="SVGID_1_" gradientUnits="userSpaceOnUse" x1="3.0479" y1="3.5752" x2="15.0079" y2="15.5352"><stop  offset="0" style="stop-color:#88C8EC"/><stop  offset="1" style="stop-color:#43A8DD"/><a:midPointStop  offset="0" style="stop-color:#88C8EC"/><a:midPointStop  offset="0.5" style="stop-color:#88C8EC"/><a:midPointStop  offset="1" style="stop-color:#43A8DD"/></linearGradient><path fill="url(#SVGID_1_)" d="M9.014,0.5C5.152,0.5,2,3.659,2,7.528c0,0.114,0,0.256,0,0.37l0.028,0.569 c0.113,0.598,0.369,1.622,0.937,3.073c0.852,2.106,2.584,5.492,6.077,9.96c1.647-2.276,6.446-9.163,6.872-12.776V8.695 C15.972,8.325,16,7.927,16,7.528C16.028,3.659,12.876,0.5,9.014,0.5z M9,10.5c-1.927,0-3.5-1.349-3.5-3s1.573-3,3.5-3 s3.5,1.349,3.5,3S10.927,10.5,9,10.5z"/></svg>