<svg version="1.1" xmlns="http://www.w3.org/2000/svg" xmlns:a="http://ns.adobe.com/AdobeSVGViewerExtensions/3.0/" width="64px" height="52px" viewBox="0 0 64 52">
<linearGradient id="SVGID_1_" gradientUnits="userSpaceOnUse" x1="3.918" y1="6.4014" x2="51.6152" y2="54.0986"><stop  offset="0" style="stop-color:#88C8EC"/><stop  offset="1" style="stop-color:#43A8DD"/><a:midPointStop  offset="0" style="stop-color:#88C8EC"/><a:midPointStop  offset="0.5" style="stop-color:#88C8EC"/><a:midPointStop  offset="1" style="stop-color:#43A8DD"/></linearGradient><path fill="url(#SVGID_1_)" d="M31.424,11.151c-0.77,0-1.386-0.608-1.386-1.368V1.5H9.808C8.5,1.5,7.5,2.488,7.5,3.78v39.44 c0,1.292,1,2.28,2.308,2.28h17.154v-6.003H15.346c-1.769,0-1.769-2.66,0-2.66h11.616v-8.208H15.346c-1.769,0-1.769-2.66,0-2.66 h11.616v-2.583c0-1.292,1-2.28,2.308-2.28H41.5v-9.956H31.424z M34.885,17.687H15.346c-1.769,0-1.769-2.66,0-2.66h19.616 C36.73,15.103,36.73,17.687,34.885,17.687z M32.5,8.5v-5l6,5H32.5z M54.264,23.5h-7.527c-1.268,0-2.236,0.969-2.236,2.236v7.528 c0,1.267,0.969,2.236,2.236,2.236h7.527c1.268,0,2.236-0.969,2.236-2.236v-7.528C56.5,24.469,55.531,23.5,54.264,23.5z  M53.519,30.133h-2.311v2.311c0,0.373-0.298,0.671-0.671,0.671c-0.372,0-0.671-0.298-0.671-0.671v-2.311h-2.311 c-0.372,0-0.671-0.298-0.671-0.67c-0.074-0.298,0.225-0.671,0.597-0.671h2.311v-2.311c0-0.373,0.298-0.671,0.671-0.671 c0.372,0,0.671,0.298,0.671,0.671v2.311h2.385c0.373,0,0.671,0.298,0.671,0.671C54.189,29.835,53.892,30.133,53.519,30.133z  M40.264,38.5h-7.527c-1.268,0-2.236,0.969-2.236,2.236v7.528c0,1.267,1.044,2.236,2.236,2.236h7.527 c1.268,0,2.236-0.969,2.236-2.236v-7.528C42.5,39.469,41.531,38.5,40.264,38.5z M39.146,46.177c0.298,0.298,0.298,0.671,0,0.969 c-0.299,0.298-0.672,0.298-0.97,0l-1.64-1.64l-1.64,1.64c-0.298,0.298-0.671,0.298-0.969,0s-0.298-0.671,0-0.969l1.64-1.64 l-1.64-1.64c-0.298-0.298-0.298-0.745,0-0.969c0.298-0.298,0.671-0.298,0.969,0l1.64,1.64l1.64-1.64c0.298-0.298,0.671-0.298,0.97,0 c0.298,0.298,0.298,0.67,0,0.969l-1.641,1.64L39.146,46.177z M54.264,38.5h-7.527c-1.268,0-2.236,0.969-2.236,2.236v7.528 c0,1.267,0.969,2.236,2.236,2.236h7.527c1.268,0,2.236-0.969,2.236-2.236v-7.528C56.5,39.469,55.531,38.5,54.264,38.5z  M50.463,41.779c0.447,0,0.895,0.373,0.895,0.895c0,0.522-0.373,0.895-0.895,0.895c-0.447,0-0.895-0.373-0.895-0.895 C49.643,42.152,50.016,41.779,50.463,41.779z M50.463,48.041c-0.447,0-0.895-0.373-0.895-0.895c0-0.447,0.373-0.895,0.895-0.895 c0.447,0,0.895,0.373,0.895,0.895C51.357,47.667,50.984,48.041,50.463,48.041z M53.071,45.655h-5.143 c-0.298,0-0.596-0.224-0.596-0.596c0-0.373,0.298-0.597,0.596-0.597h5.143c0.299,0,0.597,0.224,0.597,0.597 C53.668,45.357,53.444,45.655,53.071,45.655z M40.264,23.5h-7.527c-1.268,0-2.236,0.969-2.236,2.236v7.528 c0,1.267,1.044,2.236,2.236,2.236h7.527c1.268,0,2.236-0.969,2.236-2.236v-7.528C42.5,24.469,41.531,23.5,40.264,23.5z  M39.071,30.133h-5.143c-0.298,0-0.597-0.224-0.597-0.596c0.075-0.373,0.299-0.596,0.597-0.596h5.143 c0.299,0,0.597,0.224,0.597,0.596C39.668,29.835,39.444,30.133,39.071,30.133z"/></svg>