<svg version="1.1" xmlns="http://www.w3.org/2000/svg" xmlns:a="http://ns.adobe.com/AdobeSVGViewerExtensions/3.0/" width="64px" height="52px" viewBox="0 0 64 52">
<linearGradient id="SVGID_1_" gradientUnits="userSpaceOnUse" x1="6.3794" y1="3.9487" x2="55.0524" y2="52.6217"><stop  offset="0" style="stop-color:#88C8EC"/><stop  offset="1" style="stop-color:#43A8DD"/><a:midPointStop  offset="0" style="stop-color:#88C8EC"/><a:midPointStop  offset="0.5" style="stop-color:#88C8EC"/><a:midPointStop  offset="1" style="stop-color:#43A8DD"/></linearGradient><path fill="url(#SVGID_1_)" d="M28.192,28.5H9.808c-1.308,0-2.308,1-2.308,2.308v18.385c0,1.308,1,2.308,2.308,2.308h18.385 c1.308,0,2.308-1,2.308-2.308V30.808C30.5,29.5,29.5,28.5,28.192,28.5z M30.5,3.808v18.385c0,1.308-1,2.308-2.308,2.308H9.808 c-1.308,0-2.308-1-2.308-2.308V3.808C7.5,2.5,8.5,1.5,9.808,1.5h18.385C29.5,1.5,30.5,2.5,30.5,3.808z M57.5,30.808v18.385 c0,1.308-1,2.308-2.308,2.308H36.808c-1.308,0-2.308-1-2.308-2.308V30.808c0-1.308,1-2.308,2.308-2.308h18.385 C56.5,28.5,57.5,29.5,57.5,30.808z M53.949,14.254l-0.077-2.978c0.62-0.157,1.317-1.567,1.473-2.272l-1.783-2.978 c-0.697-0.157-2.248-0.235-2.713,0.313l-2.636-1.411c0.233-0.627-0.698-1.959-1.24-2.429l-3.488,0.078 c-0.465,0.549-1.318,1.881-1.085,2.508l-2.48,1.567c-0.465-0.471-2.016-0.313-2.713-0.157L35.5,9.552 c0.233,0.706,0.931,2.116,1.551,2.194l0.078,2.978c-0.698,0.157-1.318,1.567-1.473,2.272l1.783,2.978 c0.698,0.157,2.248,0.235,2.713-0.313l2.558,1.41c-0.155,0.627,0.698,1.881,1.24,2.43l3.489-0.078 c0.465-0.549,1.318-1.881,1.085-2.508l2.558-1.567c0.465,0.471,2.016,0.313,2.713,0.157l1.706-3.135 C55.345,15.82,54.647,14.41,53.949,14.254z M48.291,14.489c-0.775,1.488-2.713,2.115-4.186,1.253 c-1.473-0.861-2.016-2.742-1.24-4.231c0.775-1.488,2.713-2.115,4.186-1.253C48.601,11.041,49.143,12.922,48.291,14.489z"/></svg>
