<svg version="1.1" xmlns="http://www.w3.org/2000/svg" xmlns:a="http://ns.adobe.com/AdobeSVGViewerExtensions/3.0/" width="44px" height="36px" viewBox="0 0 44 36">
<linearGradient id="SVGID_1_" gradientUnits="userSpaceOnUse" x1="4.2119" y1="2.1318" x2="39.8217" y2="37.7416"><stop  offset="0" style="stop-color:#88C8EC"/><stop  offset="1" style="stop-color:#43A8DD"/><a:midPointStop  offset="0" style="stop-color:#88C8EC"/><a:midPointStop  offset="0.5" style="stop-color:#88C8EC"/><a:midPointStop  offset="1" style="stop-color:#43A8DD"/></linearGradient><path fill="url(#SVGID_1_)" d="M40.535,4.864H22.843l-1.49-2.559C20.944,1.723,20.144,1,18.831,1H5.878 C5.166,1,4.571,1.593,4.571,2.305v2.594C3.281,4.898,2,6.064,2,7.49V14h0.211c0.49-1.289,1.467-1.253,2.287-1.253l35.965-0.031 c0.916,0,1.92-0.005,2.345,1.284H43V7.49C43,6.064,41.961,4.864,40.535,4.864z M40.528,15L4.574,15.018 C3.284,15.018,2,16.21,2,17.664v15.765C2,34.884,3.158,36,4.583,36h35.952C41.961,36,43,34.884,43,33.429V17.664 C42.999,16.21,41.956,15,40.528,15z M30.188,26.832h-1.412c-0.167,0.835-0.492,1.609-0.935,2.297l1.001,1.023l-1.813,1.853l-1-1.024 c-0.671,0.456-1.43,0.789-2.247,0.958v1.442h-2.562v-1.442c-0.818-0.17-1.575-0.501-2.249-0.956l-0.999,1.023l-1.813-1.853l1-1.022 c-0.446-0.686-0.771-1.461-0.937-2.298h-1.41v-2.62h1.41c0.167-0.837,0.492-1.611,0.937-2.298l-1-1.021l1.813-1.854l0.999,1.023 c0.673-0.456,1.431-0.787,2.249-0.956v-1.442h2.562v1.442c0.817,0.17,1.575,0.503,2.247,0.958l1-1.024l1.813,1.854l-1.001,1.022 c0.444,0.687,0.77,1.462,0.935,2.297h1.412V26.832z M18,26c0-2.209,1.791-4,4-4c2.209,0,4,1.791,4,4c0,2.209-1.791,4-4,4 C19.791,30,18,28.209,18,26z"/></svg>
