<svg version="1.1" xmlns="http://www.w3.org/2000/svg" xmlns:a="http://ns.adobe.com/AdobeSVGViewerExtensions/3.0/" width="64px" height="52px" viewBox="0 0 64 52"><linearGradient id="SVGID_1_" gradientUnits="userSpaceOnUse" x1="2.9907" y1="26" x2="61.0098" y2="26"><stop  offset="0" style="stop-color:#88C8EC"/><stop  offset="1" style="stop-color:#43A8DD"/></linearGradient><path fill="url(#SVGID_1_)" d="M39.012,31.381v0.721c2.219,1.417,3.941,3.479,4.939,5.897H61.01v-9.001 c0-4.498-2.697-8.499-6.877-10.198c-0.361-0.139-0.602-0.499-0.621-0.88c-0.021-0.399,0.201-0.76,0.562-0.939 c3.057-1.541,4.938-4.601,4.938-7.981c0-4.958-4.041-8.999-9-8.999c-4.961,0-9,4.041-9,8.999c0,3.4,1.9,6.46,4.941,7.981 c0.359,0.18,0.559,0.54,0.559,0.939c-0.021,0.401-0.258,0.741-0.619,0.88c-1.143,0.461-2.201,1.16-3.141,1.961 c0.16,0.719,0.262,1.46,0.262,2.219C43.014,26.26,41.51,29.34,39.012,31.381z M3.011,37.999h17.06 c1.001-2.419,2.72-4.461,4.941-5.897V31.4c-2.521-2.041-4.001-5.141-4.001-8.421c0-0.779,0.081-1.54,0.241-2.28 c-0.921-0.799-2-1.459-3.121-1.899c-0.36-0.139-0.6-0.499-0.62-0.88c-0.02-0.379,0.2-0.76,0.54-0.939 c3.061-1.541,4.939-4.601,4.939-7.981C23.011,4.041,18.972,0,14.012,0c-4.961,0-9,4.041-9,8.999c0,3.4,1.899,6.46,4.94,7.981 c0.36,0.18,0.56,0.54,0.54,0.939c-0.02,0.401-0.259,0.741-0.62,0.88c-4.179,1.681-6.88,5.701-6.88,10.198v9.001H3.011z M26.612,30.121L26.612,30.121c0.021,0.021,0.021,0.021,0.021,0.021c0.418,0.338,0.858,0.619,1.319,0.855 c0.359,0.183,0.56,0.541,0.539,0.941c-0.02,0.4-0.279,0.742-0.64,0.881c-0.419,0.158-0.841,0.358-1.359,0.659 c-2.281,1.319-4.001,3.399-4.86,5.84c-0.42,1.183-0.641,2.401-0.641,3.681v9h22.001v-9c0-1.26-0.221-2.498-0.639-3.659 c-0.863-2.462-2.582-4.542-4.861-5.861c-0.521-0.301-0.939-0.521-1.361-0.659c-0.379-0.139-0.619-0.48-0.639-0.881 c-0.021-0.4,0.199-0.759,0.537-0.941c0.463-0.236,0.92-0.518,1.32-0.855c2.281-1.684,3.623-4.342,3.623-7.143 c0-0.819-0.102-1.6-0.322-2.34c-1.02-3.92-4.58-6.661-8.639-6.661c-4.06,0-7.62,2.741-8.68,6.641l0,0l0,0 c-0.221,0.74-0.32,1.541-0.32,2.339C23.011,25.801,24.352,28.459,26.612,30.121z"/></svg>