<svg version="1.1" xmlns="http://www.w3.org/2000/svg" xmlns:a="http://ns.adobe.com/AdobeSVGViewerExtensions/3.0/" width="64px" height="52px" viewBox="0 0 64 52"><linearGradient id="SVGID_1_" gradientUnits="userSpaceOnUse" x1="5.3613" y1="26" x2="58.6387" y2="26"><stop  offset="0" style="stop-color:#88C8EC"/><stop  offset="1" style="stop-color:#43A8DD"/></linearGradient><path fill="url(#SVGID_1_)" d="M46.625,49.554H17.54c-0.667,0-1.224,0.554-1.224,1.223S16.873,52,17.54,52h29.085 c0.668,0,1.227-0.555,1.227-1.224S47.293,49.554,46.625,49.554z M13.48,13.125c1.724,0,3.169-1.392,3.169-3.17 c0-0.223-0.056-0.445-0.056-0.667h14.238v36.259h-8.454c-0.669,0-1.224,0.559-1.224,1.227c0,0.665,0.555,1.221,1.224,1.221H41.73 c0.67,0,1.227-0.556,1.227-1.221c0-0.668-0.557-1.227-1.227-1.227h-8.453V9.288h14.24c-0.061,0.222-0.061,0.445-0.061,0.667 c0,1.723,1.393,3.17,3.173,3.17c1.724,0,3.173-1.392,3.173-3.17c0-1.67-1.279-3.003-2.895-3.113c-0.059,0-0.17,0-0.278,0H33.277 v-5.62C33.277,0.556,32.722,0,32.054,0c-0.667,0-1.223,0.556-1.223,1.222v5.62H13.48c-0.111,0-0.167,0-0.278,0 c-1.614,0.11-2.894,1.5-2.894,3.113C10.309,11.733,11.756,13.125,13.48,13.125z M21.321,30.311L21.321,30.311 c0-0.059,0-0.111,0-0.167c0-0.058,0-0.058,0-0.112c0-0.056,0-0.056-0.056-0.11c0-0.056-0.056-0.108-0.056-0.167l0,0l-6.617-14.461 c-0.223-0.442-0.613-0.722-1.113-0.722c-0.446,0-0.948,0.279-1.112,0.722L5.47,29.754l0,0c0,0.059-0.055,0.111-0.055,0.111 c0,0.056,0,0.056-0.054,0.11c0,0.056,0,0.056,0,0.11c0,0.058,0,0.113,0,0.113l0,0c0,3.504,3.392,6.34,7.673,6.51 c0.056,0,0.111,0,0.168,0c0.111,0,0.167,0,0.278,0c0.055,0,0.11,0,0.165,0C17.93,36.65,21.321,33.814,21.321,30.311z M13.48,18.797 l4.671,10.287H8.586L13.48,18.797z M58.639,30.311c0-0.059,0-0.111,0-0.111c0-0.056,0-0.056,0-0.113c0-0.055,0-0.055-0.057-0.11 c0-0.055-0.055-0.11-0.055-0.11l0,0L51.795,15.35c-0.218-0.443-0.662-0.723-1.109-0.723c-0.445,0-0.945,0.279-1.115,0.723 l-6.725,14.463l0,0c0,0.053-0.061,0.108-0.061,0.108c0,0.055,0,0.055-0.053,0.11c0,0.055,0,0.055,0,0.112c0,0.056,0,0.108,0,0.108 l0,0c0,3.504,3.393,6.346,7.677,6.51c0.055,0,0.11,0,0.165,0c0.111,0,0.164,0,0.275,0c0.059,0,0.111,0,0.172,0 C55.246,36.65,58.639,33.814,58.639,30.311L58.639,30.311z M50.63,18.797l4.78,10.287h-9.562L50.63,18.797z"/></svg>