<svg version="1.1" xmlns="http://www.w3.org/2000/svg" xmlns:a="http://ns.adobe.com/AdobeSVGViewerExtensions/3.0/" width="64px" height="52px" viewBox="0 0 64 52"><linearGradient id="SVGID_1_" gradientUnits="userSpaceOnUse" x1="308.8438" y1="-212.9507" x2="361.4471" y2="-265.5541" gradientTransform="matrix(1 0 0 -1 -304.5 -214)"><stop  offset="0" style="stop-color:#88C8EC"/><stop  offset="1" style="stop-color:#43A8DD"/><a:midPointStop  offset="0" style="stop-color:#88C8EC"/><a:midPointStop  offset="0.5" style="stop-color:#88C8EC"/><a:midPointStop  offset="1" style="stop-color:#43A8DD"/></linearGradient><path fill="url(#SVGID_1_)" d="M49.1,11.221C49.9,10.626,49.9,9.534,49.3,8.84c-0.6-0.793-1.7-0.793-2.399-0.198L28.1,24.314 L9.4,8.542C8.6,7.947,7.6,7.947,7,8.741c-0.6,0.794-0.6,1.786,0.2,2.381L20.6,22.33L7.1,35.025c-0.7,0.596-0.8,1.687-0.1,2.381 c0.4,0.297,0.9,0.496,1.3,0.496c0.4,0,0.8-0.1,1.2-0.496l13.7-12.795l3.9,3.174c0.299,0.298,0.7,0.396,1.1,0.396 c0.4,0,0.8-0.099,1.1-0.396l3.9-3.174l9.1,8.53c-1.3,2.084-2.1,4.562-2.1,7.143c0,1.29,0.2,2.578,0.6,3.77H3c-1.6,0-3-1.389-3-2.976 V4.476C0,2.889,1.4,1.5,3,1.5h50.3c1.601,0,3,1.29,3,2.976v22.615c-0.8-0.099-1.7-0.297-2.6-0.297c-3.601,0-6.8,1.39-9.3,3.67 L35.8,22.43L49.1,11.221z M64,40.283C64,45.938,59.4,50.5,53.7,50.5s-10.3-4.562-10.3-10.217s4.5-10.316,10.3-10.316 C59.3,29.967,64,34.629,64,40.283z M59.2,38.895H55v-4.166h-2.8v4.166H48v2.777h4.2v4.166H55v-4.166h4.2V38.895z"/></svg>