<svg xmlns="http://www.w3.org/2000/svg" xmlns:xlink="http://www.w3.org/1999/xlink" width="120px" height="120px" viewBox="0 0 120 120"><linearGradient id="SVGID_1_" gradientUnits="userSpaceOnUse" x1="12.0464" y1="17.2954" x2="107.9547" y2="113.2037"><stop  offset="0" style="stop-color:#88C8EC"/><stop  offset="1" style="stop-color:#43A8DD"/></linearGradient><path fill="url(#SVGID_1_)" d="M107.555,27.843v62.224H13.11V27.843h14.668v2.462H15.522v57.316h89.621V30.305H92.668v-2.462 H107.555z M120,95.508v2.777c0,3.828-3.116,6.945-6.945,6.945H6.945C3.117,105.23,0,102.113,0,98.285v-2.777 c0-0.766,0.622-1.389,1.389-1.389h4.167v-68.61c0-2.298,1.869-4.167,4.167-4.167h18.056v2.777H9.722 c-0.767,0-1.389,0.622-1.389,1.389v68.61H48.89c0.37,0,0.722,0.145,0.982,0.408l2.373,2.369h15.517l2.374-2.369 c0.256-0.264,0.608-0.408,0.977-0.408h40.556v-68.61c0-0.767-0.622-1.389-1.39-1.389H92.668v-2.777h17.609 c2.297,0,4.168,1.869,4.168,4.167v68.61h4.168C119.379,94.119,120,94.742,120,95.508z M117.224,96.896H71.687l-2.371,2.371 c-0.259,0.258-0.611,0.408-0.982,0.408H51.667c-0.369,0-0.721-0.15-0.982-0.408l-2.369-2.371H2.778v1.389 c0,2.297,1.869,4.168,4.167,4.168h106.11c2.301,0,4.169-1.871,4.169-4.168V96.896z M86.611,83.619V21.184 c0-3.536-2.878-6.414-6.412-6.414H63.166c-0.692,0-1.255,0.562-1.255,1.255c0,0.695,0.562,1.256,1.255,1.256H80.2 c2.15,0,3.903,1.749,3.903,3.902v62.436c0,2.154-1.753,3.904-3.903,3.904H39.69c-2.151,0-3.905-1.754-3.905-3.904V21.184 c0-2.153,1.754-3.902,3.905-3.902h17.03c0.694,0,1.256-0.562,1.256-1.256c0-0.693-0.562-1.255-1.256-1.255H39.69 c-3.537,0-6.414,2.877-6.414,6.414v62.436c0,3.537,0.057,3.459,0.057,4h53.23C86.563,86.869,86.611,87.156,86.611,83.619z  M80.165,26.158c0-0.693-0.562-1.255-1.255-1.255H62.791c-0.692,0-1.254,0.562-1.254,1.255c0,0.692,0.562,1.255,1.254,1.255H78.91 C79.603,27.413,80.165,26.851,80.165,26.158z M80.165,34.819c0-0.692-0.562-1.255-1.255-1.255H62.791 c-0.692,0-1.254,0.562-1.254,1.255s0.562,1.255,1.254,1.255H78.91C79.603,36.074,80.165,35.512,80.165,34.819z M80.165,43.445 c0-0.693-0.562-1.255-1.255-1.255H62.791c-0.692,0-1.254,0.562-1.254,1.255c0,0.694,0.562,1.254,1.254,1.254H78.91 C79.603,44.699,80.165,44.139,80.165,43.445z M80.165,52.741c0-0.692-0.562-1.255-1.255-1.255H40.979 c-0.694,0-1.256,0.562-1.256,1.255s0.562,1.255,1.256,1.255H78.91C79.603,53.996,80.165,53.434,80.165,52.741z M80.165,61.404 c0-0.693-0.562-1.256-1.255-1.256H40.979c-0.694,0-1.256,0.562-1.256,1.256c0,0.691,0.562,1.254,1.256,1.254H78.91 C79.603,62.658,80.165,62.096,80.165,61.404z M80.165,70.029c0-0.693-0.562-1.256-1.255-1.256H40.979 c-0.694,0-1.256,0.562-1.256,1.256c0,0.691,0.562,1.254,1.256,1.254H78.91C79.603,71.283,80.165,70.721,80.165,70.029z  M72.104,78.688c0-0.691-0.561-1.254-1.254-1.254H40.979c-0.694,0-1.256,0.562-1.256,1.254c0,0.695,0.562,1.256,1.256,1.256h29.871 C71.544,79.943,72.104,79.383,72.104,78.688z M58.997,42.728c0,0.696-0.562,1.257-1.257,1.257c-0.692,0-1.254-0.562-1.254-1.257 c0-3.928-3.196-7.125-7.125-7.125c-3.928,0-7.126,3.196-7.126,7.125c0,0.696-0.561,1.257-1.255,1.257 c-0.694,0-1.254-0.562-1.254-1.257c0-3.917,2.352-7.291,5.72-8.796c-0.945-0.979-1.531-2.309-1.531-3.773 c0-3.004,2.441-5.447,5.446-5.447c3.003,0,5.447,2.443,5.447,5.447c0,1.465-0.586,2.794-1.532,3.773 C56.641,35.437,58.998,38.811,58.997,42.728z M49.36,33.092c1.618,0,2.936-1.317,2.936-2.934c0-1.619-1.318-2.937-2.936-2.937 s-2.936,1.318-2.936,2.937C46.424,31.776,47.742,33.092,49.36,33.092z"/></svg>