<svg xmlns="http://www.w3.org/2000/svg" xmlns:xlink="http://www.w3.org/1999/xlink" width="44px" height="36px" viewBox="0 0 44 36"><linearGradient id="SVGID_1_" gradientUnits="userSpaceOnUse" x1="6.4629" y1="1.501" x2="37.057" y2="32.0951"><stop  offset="0" style="stop-color:#88C8EC"/><stop  offset="1" style="stop-color:#43A8DD"/></linearGradient><path fill="url(#SVGID_1_)" d="M18.557,0.5c-8.067,0-14.611,1.828-14.611,4.081c0,2.254,6.544,4.078,14.611,4.078 c8.069,0,14.611-1.824,14.611-4.078C33.168,2.328,26.626,0.5,18.557,0.5z M18.557,7.194c-6.839,0-12.384-1.175-12.384-2.623 c0-1.449,5.545-2.62,12.384-2.62c6.84,0,12.385,1.171,12.385,2.62C30.941,6.02,25.396,7.194,18.557,7.194z M29.124,13.643 c-6.036,0-10.928,4.891-10.928,10.93c0,6.033,4.892,10.928,10.928,10.928s10.931-4.895,10.931-10.928 C40.055,18.533,35.16,13.643,29.124,13.643z M29.124,33.751c-5.069,0-9.181-4.112-9.181-9.179c0-5.07,4.111-9.184,9.181-9.184 s9.181,4.113,9.181,9.184C38.305,29.639,34.193,33.751,29.124,33.751z M34.152,25.575h-4.24v4.24H27.9v-4.24h-4.24v-2.011h4.24 v-4.24h2.012v4.24h4.24V25.575z M4.401,3.588C4.389,3.596,4.38,3.609,4.37,3.622C4.379,3.609,4.39,3.596,4.401,3.588z  M20.202,30.869c0.388,0.547,0.822,1.059,1.303,1.53l-5.135,1.932c-0.178,0.076-0.366,0.114-0.556,0.114 c-0.792,0-1.432-0.639-1.442-1.433V20.449c0-0.537-0.169-1.064-0.489-1.499c-0.009-0.011-0.009-0.011-0.009-0.017L4.25,5.464 C4.152,5.333,4.086,5.185,4.041,5.029c0.356,0.908,1.783,1.723,3.91,2.354l7.449,10.43c0.557,0.761,0.857,1.686,0.857,2.631v11.898 L20.202,30.869z M32.975,3.946c0.002,0.003,0.005,0.006,0.006,0.009c0,0.002,0,0.005,0.001,0.007 C32.98,3.957,32.979,3.951,32.975,3.946z M33.067,5.042c-0.045,0.149-0.106,0.294-0.201,0.422l-6.021,8.418 c-1.148,0.244-2.226,0.677-3.211,1.25l5.521-7.747C31.279,6.757,32.703,5.946,33.067,5.042z"/></svg>