<svg xmlns="http://www.w3.org/2000/svg" xmlns:xlink="http://www.w3.org/1999/xlink" width="120px" height="120px" viewBox="0 0 120 120"><linearGradient id="SVGID_1_" gradientUnits="userSpaceOnUse" x1="-20.8252" y1="95.3281" x2="76.6333" y2="-2.1304" gradientTransform="matrix(1 0 0 -1 24 111.5)"><stop  offset="0" style="stop-color:#88C8EC"/><stop  offset="1" style="stop-color:#43A8DD"/></linearGradient><path fill="url(#SVGID_1_)" d="M76.137,21.497c-17.129,0-30.945,13.931-30.945,30.948c0,17.013,13.93,30.944,30.945,30.944 c8.106,0,14.969-2.787,20.564-7.928l20.213,20.21c0.227,0.231,0.566,0.345,0.798,0.345c0.228,0,1.718-1.179,1.945-1.41 c0.456-0.457,0.456-1.139,0-1.595l-20.212-20.1c5.139-5.479,7.748-12.246,7.748-20.467C107.193,35.428,93.266,21.497,76.137,21.497z M48.713,52.447c0-15.188,12.344-27.427,27.424-27.427c15.078,0,27.424,12.347,27.424,27.427c0,15.078-12.236,27.531-27.424,27.531 C60.948,79.979,48.713,67.631,48.713,52.447z M83.529,86.527v13.339c0,5.233-4.258,9.493-9.491,9.493 c-2.545,0-4.927-0.987-6.701-2.779c-1.804-1.787-2.791-4.168-2.791-6.714v-11.39c0-1.05-0.853-1.899-1.897-1.899h-47.46V10.641 h68.341v7.524c1.294,0.287,2.561,0.647,3.798,1.072V8.743c0-1.049-0.853-1.899-1.897-1.899H13.289c-1.049,0-1.898,0.851-1.898,1.899 v77.834H1.899C0.85,86.577,0,87.428,0,88.477v11.391c0,3.566,1.386,6.904,3.902,9.398c2.482,2.502,5.821,3.892,9.387,3.892h60.749 c7.327,0,13.289-5.964,13.289-13.29V85.454C86.09,85.879,84.823,86.239,83.529,86.527z M13.289,109.359 c-2.545,0-4.926-0.987-6.701-2.779c-1.804-1.787-2.791-4.168-2.791-6.714v-9.491h9.492h47.46v9.491c0,3.567,1.386,6.903,3.901,9.397 c0.033,0.03,0.062,0.062,0.096,0.096H13.289z M71.67,32.665l-7.543,4.354v8.709l7.543,4.353l7.541-4.353V37.02L71.67,32.665z M75.948,43.83l-4.115,2.377l-4.115-2.377v-4.753l4.115-2.376l4.115,2.376V43.83z M77.587,42.955l-7.543,4.355v8.707l7.543,4.352 l7.541-4.352V47.31L77.587,42.955z M81.863,54.121l-4.114,2.376l-4.117-2.376v-4.755l4.117-2.375l4.114,2.375V54.121z M71.67,52.986 l-7.543,4.355v8.709l7.543,4.353l7.541-4.353v-8.709L71.67,52.986z M75.948,64.15l-4.115,2.379l-4.115-2.379V59.4l4.115-2.377 l4.115,2.377V64.15z M97.591,35.431V69.55c-1.11,1.402-2.354,2.693-3.711,3.855V31.589C95.236,32.747,96.479,34.033,97.591,35.431z"/></svg>