<svg version="1.1" xmlns="http://www.w3.org/2000/svg" xmlns:a="http://ns.adobe.com/AdobeSVGViewerExtensions/3.0/" width="64px" height="52px" viewBox="0 0 64 52"><linearGradient id="SVGID_1_" gradientUnits="userSpaceOnUse" x1="5.0835" y1="26" x2="58.918" y2="26"><stop  offset="0" style="stop-color:#88C8EC"/><stop  offset="1" style="stop-color:#43A8DD"/></linearGradient><path fill="url(#SVGID_1_)" d="M33.355,40.844v-1.191c1.03-0.22,2.005-0.595,2.868-1.194l0.868,0.868 c0.326,0.326,0.812,0.326,1.139,0l0.812-0.868c0.324-0.324,0.324-0.812,0-1.137l-0.868-0.863c0.596-0.868,0.975-1.787,1.192-2.872 h1.245c0.433,0,0.812-0.378,0.812-0.812v-1.246c0-0.433-0.38-0.812-0.812-0.812h-1.245c-0.218-1.026-0.597-2.003-1.192-2.869 l0.868-0.757c0.324-0.324,0.324-0.813,0-1.138l-0.868-0.867c-0.326-0.325-0.812-0.325-1.139,0l-0.863,0.867 c-0.868-0.596-1.787-0.975-2.873-1.192v-1.192c0-0.432-0.377-0.812-0.813-0.812h-1.244c-0.434,0-0.812,0.381-0.812,0.812v1.192 c-1.029,0.217-2.003,0.596-2.872,1.192l-0.812-0.812c-0.325-0.325-0.812-0.325-1.137,0l-0.867,0.866 c-0.325,0.325-0.325,0.812,0,1.136l0.812,0.812c-0.595,0.87-0.975,1.845-1.191,2.873h-1.191c-0.434,0-0.812,0.376-0.812,0.812v1.246 c0,0.431,0.378,0.812,0.812,0.812h1.244c0.218,1.025,0.597,2.002,1.192,2.868l-0.812,0.812c-0.324,0.324-0.324,0.812,0,1.137 l0.867,0.867c0.325,0.327,0.812,0.327,1.138,0l0.812-0.81c0.866,0.593,1.841,0.974,2.869,1.188v1.192 c0,0.433,0.379,0.812,0.812,0.812h1.246C32.974,41.656,33.355,41.277,33.355,40.844z M35.143,28.228 c1.137,0.919,1.843,2.326,1.843,3.95c0,1.571-0.706,2.979-1.843,3.898l-0.812-1.405c0.65-0.65,1.03-1.519,1.03-2.546 c0-0.976-0.38-1.897-1.03-2.548L35.143,28.228z M31.893,27.089c0.542,0,1.081,0.108,1.57,0.271l-0.702,1.353 c-0.274-0.054-0.599-0.109-0.923-0.109c-1.68,0-3.033,1.139-3.467,2.656h-1.462C27.343,28.878,29.401,27.089,31.893,27.089z  M33.573,32.178c0,0.975-0.761,1.731-1.735,1.731c-0.975,0-1.733-0.757-1.733-1.731c0-0.977,0.758-1.73,1.733-1.73 C32.761,30.447,33.573,31.201,33.573,32.178z M31.893,37.321c-2.491,0-4.604-1.787-5.038-4.169h1.463c0.434,1.519,1.84,2.6,3.52,2.6 c0.324,0,0.648-0.054,0.923-0.106l0.812,1.407C33.029,37.215,32.486,37.321,31.893,37.321z M39.908,43.227L39.908,43.227 L39.908,43.227z M24.255,43.227L24.255,43.227L24.255,43.227z M32.761,51.298c0,0.379-0.326,0.702-0.706,0.702h-0.108 c-0.379,0-0.704-0.323-0.704-0.702c0-0.38,0.325-0.706,0.704-0.706l0,0h0.108C32.435,50.592,32.761,50.918,32.761,51.298z  M36.062,50.918c0.056,0.38-0.162,0.759-0.595,0.812H35.36c-0.056,0-0.056,0-0.111,0c-0.324,0-0.65-0.271-0.701-0.595 c-0.056-0.382,0.213-0.76,0.595-0.812h0.106C35.573,50.268,35.955,50.485,36.062,50.918z M29.456,51.136 c-0.054,0.324-0.379,0.595-0.704,0.595c-0.056,0-0.056,0-0.109,0h-0.11c-0.377-0.054-0.649-0.433-0.594-0.812 c0.053-0.379,0.432-0.65,0.812-0.595h0.106C29.238,50.376,29.509,50.754,29.456,51.136z M39.205,49.889 c0.106,0.379-0.056,0.759-0.435,0.923l-0.109,0.053c-0.054,0-0.162,0.054-0.215,0.054c-0.271,0-0.542-0.164-0.65-0.488 c-0.109-0.377,0.053-0.757,0.435-0.919l0.106-0.056C38.661,49.349,39.097,49.563,39.205,49.889z M26.206,50.43 c-0.108,0.271-0.378,0.488-0.65,0.488c-0.053,0-0.162,0-0.215-0.054l-0.11-0.053c-0.378-0.111-0.541-0.544-0.433-0.923 c0.108-0.378,0.542-0.54,0.921-0.434l0.109,0.056C26.152,49.617,26.314,50.053,26.206,50.43z M42.129,48.374 c0.217,0.324,0.108,0.755-0.271,0.975l-0.108,0.054c-0.106,0.053-0.216,0.108-0.324,0.108c-0.271,0-0.488-0.108-0.595-0.382 c-0.218-0.324-0.056-0.755,0.269-0.975l0.108-0.051C41.533,47.939,41.967,48.048,42.129,48.374z M23.118,49.129 c-0.106,0.22-0.378,0.382-0.594,0.382c-0.109,0-0.219-0.056-0.381-0.108l-0.106-0.054c-0.325-0.22-0.434-0.65-0.272-0.975 c0.215-0.326,0.65-0.435,0.975-0.272l0.11,0.053C23.227,48.374,23.336,48.805,23.118,49.129z M50.631,28.228 c0.38-0.056,0.758,0.162,0.812,0.595v0.106c0.056,0.38-0.216,0.76-0.595,0.812c-0.056,0-0.056,0-0.109,0 c-0.323,0-0.65-0.271-0.703-0.595v-0.108C49.98,28.712,50.251,28.334,50.631,28.228z M12.558,28.765 c0.053-0.375,0.433-0.648,0.812-0.593c0.378,0.056,0.65,0.431,0.596,0.812v0.106c-0.055,0.324-0.38,0.598-0.705,0.598 c-0.053,0-0.107,0-0.107,0c-0.38-0.054-0.649-0.436-0.596-0.811V28.765z M50.577,25.625c0.109,0.378-0.053,0.758-0.435,0.921 c-0.054,0-0.162,0-0.215,0c-0.271,0-0.542-0.163-0.65-0.488l-0.054-0.055c-0.106-0.378,0.054-0.758,0.433-0.92 c0.38-0.108,0.76,0.054,0.921,0.433V25.625z M14.833,25.896l-0.055,0.107c-0.107,0.272-0.379,0.486-0.65,0.486 c-0.055,0-0.162,0-0.217-0.052c-0.378-0.109-0.542-0.542-0.433-0.921l0.054-0.107c0.162-0.38,0.541-0.543,0.92-0.433 C14.778,25.138,14.94,25.571,14.833,25.896z M49.117,22.485c0.213,0.324,0.051,0.756-0.273,0.975 c-0.106,0.053-0.217,0.106-0.326,0.106c-0.269,0-0.486-0.106-0.593-0.378l-0.058-0.109c-0.213-0.325-0.051-0.757,0.273-0.974 c0.326-0.217,0.759-0.055,0.977,0.271V22.485z M15.916,22.05c0.324,0.217,0.434,0.65,0.271,0.976l-0.053,0.109 c-0.109,0.216-0.38,0.378-0.596,0.378c-0.109,0-0.216-0.053-0.378-0.109c-0.325-0.216-0.434-0.65-0.272-0.975l0.054-0.107 C15.158,21.997,15.59,21.888,15.916,22.05z M47.112,20.643c-0.108,0.107-0.271,0.162-0.433,0.162c-0.218,0-0.38-0.108-0.544-0.27 l-0.056-0.054c-0.269-0.325-0.213-0.758,0.111-0.976c0.326-0.27,0.757-0.217,0.977,0.108l0.051,0.055 C47.437,19.938,47.381,20.426,47.112,20.643z M16.89,19.614l0.056-0.054c0.27-0.324,0.704-0.324,0.976-0.109 c0.324,0.272,0.324,0.705,0.106,0.975l-0.053,0.055c-0.163,0.162-0.325,0.27-0.542,0.27c-0.162,0-0.324-0.053-0.434-0.162 C16.673,20.318,16.62,19.885,16.89,19.614z M43.698,17.232c0.271-0.325,0.706-0.325,0.977-0.11l0.056,0.054 c0.324,0.271,0.324,0.705,0.106,0.975c-0.162,0.162-0.326,0.272-0.543,0.272c-0.163,0-0.325-0.053-0.432-0.163l-0.058-0.053 C43.481,17.989,43.43,17.557,43.698,17.232z M20.412,17.176c0.27,0.324,0.215,0.758-0.11,0.975l-0.053,0.056 c-0.162,0.163-0.325,0.216-0.487,0.216c-0.217,0-0.379-0.11-0.542-0.272c-0.271-0.325-0.218-0.757,0.107-0.975l0.055-0.054 C19.707,16.852,20.14,16.907,20.412,17.176z M41.967,15.228c0.326,0.216,0.433,0.649,0.271,0.974c-0.108,0.218-0.38,0.38-0.595,0.38 c-0.109,0-0.218-0.055-0.382-0.109l-0.106-0.053c-0.324-0.218-0.434-0.65-0.271-0.976c0.216-0.324,0.65-0.434,0.975-0.271 L41.967,15.228z M23.173,15.39c0.216,0.325,0.054,0.758-0.271,0.975l-0.11,0.055c-0.106,0.053-0.215,0.107-0.377,0.107 c-0.272,0-0.488-0.107-0.597-0.379c-0.215-0.325-0.053-0.758,0.272-0.975l0.109-0.053C22.577,14.957,23.011,15.064,23.173,15.39z  M28.371,4.991c-0.215-0.651-0.215-1.302-0.106-1.896c0.162-0.705,0.541-1.247,0.974-1.734c0.271-0.271,0.596-0.541,0.92-0.758 c0.272-0.162,0.543-0.325,0.868-0.433l0,0c0.27-0.109,0.542-0.163,0.812-0.163c0.867-0.054,1.518,0.163,2.004,0.434 c0.706,0.379,0.975,0.92,0.975,0.92s1.789,0.109,0.977,3.846c0.218,0.108,0.431,0.433,0.106,1.409 c-0.326,1.191-0.65,1.247-0.812,1.137c-0.213,1.301-0.919,2.979-3.194,3.033c-2.275-0.163-3.034-1.896-3.196-3.195 c-0.163,0-0.432-0.272-0.704-1.191C27.667,5.153,28.046,4.938,28.371,4.991z M32,17.719h-7.69c0.054-3.197-0.108-4.928,2.004-5.634 c1.895-0.704,3.031-1.461,3.031-1.461l1.463,4.604l0.217,0.595l0.649-1.84c-1.517-2.059,0.109-2.167,0.38-2.167l0,0l0,0l0,0l0,0l0,0 l0,0c0.271,0,1.894,0.107,0.38,2.167l0.65,1.84l0.215-0.595l1.461-4.604c0,0,1.139,0.758,3.035,1.461 c2.06,0.759,1.948,2.438,2.004,5.634H32L32,17.719z M55.018,36.402c0.218,0.106,0.433,0.431,0.107,1.407 c-0.325,1.192-0.648,1.248-0.812,1.137c-0.214,1.299-0.92,2.981-3.195,3.035c-2.273-0.164-3.03-1.898-3.192-3.197 c-0.164,0-0.433-0.271-0.706-1.189c-0.377-1.248,0-1.461,0.324-1.41c-0.215-0.65-0.215-1.299-0.106-1.896 c0.162-0.703,0.544-1.243,0.975-1.731c0.269-0.271,0.595-0.544,0.919-0.759c0.273-0.161,0.544-0.324,0.868-0.434l0,0 c0.271-0.106,0.541-0.164,0.812-0.164c0.865-0.052,1.516,0.164,2.003,0.437c0.705,0.376,0.975,0.92,0.975,0.92 S55.83,32.664,55.018,36.402z M58.918,48.914h-7.69l0,0h-7.691c0.056-3.197-0.106-4.931,2.007-5.634 c1.894-0.704,3.03-1.462,3.03-1.462l1.463,4.603l0.215,0.595l0.65-1.838c-1.516-2.06,0.109-2.169,0.38-2.169l0,0l0,0l0,0l0,0l0,0 l0,0c0.271,0,1.896,0.109,0.38,2.169l0.65,1.838l0.215-0.595l1.462-4.603c0,0,1.137,0.758,3.036,1.462 C59.024,44.039,58.862,45.717,58.918,48.914z M9.146,36.185c-0.216-0.65-0.216-1.299-0.107-1.896 c0.162-0.703,0.542-1.243,0.974-1.731c0.271-0.271,0.596-0.544,0.92-0.759c0.272-0.161,0.542-0.324,0.866-0.434l0,0 c0.272-0.106,0.544-0.164,0.812-0.164c0.868-0.052,1.518,0.164,2.004,0.437c0.705,0.376,0.975,0.92,0.975,0.92 s1.787,0.106,0.974,3.845c0.219,0.106,0.434,0.431,0.109,1.407c-0.324,1.192-0.649,1.248-0.812,1.137 c-0.215,1.299-0.92,2.981-3.193,3.035c-2.275-0.163-3.035-1.898-3.197-3.197c-0.163,0-0.433-0.271-0.704-1.189 C8.442,36.347,8.82,36.185,9.146,36.185z M20.465,48.914h-7.691l0,0h-7.69c0.054-3.197-0.107-4.931,2.004-5.634 c1.896-0.704,3.032-1.462,3.032-1.462l1.463,4.603l0.215,0.595l0.65-1.838c-1.516-2.06,0.109-2.169,0.381-2.169l0,0l0,0l0,0l0,0l0,0 l0,0c0.27,0,1.895,0.109,0.378,2.169l0.65,1.838l0.215-0.595l1.463-4.603c0,0,1.137,0.758,3.033,1.462 C20.574,44.039,20.412,45.717,20.465,48.914z"/></svg>