<svg version="1.1" xmlns="http://www.w3.org/2000/svg" xmlns:a="http://ns.adobe.com/AdobeSVGViewerExtensions/3.0/" width="44px" height="36px" viewBox="0 0 44 36">
<linearGradient id="SVGID_1_" gradientUnits="userSpaceOnUse" x1="9.6216" y1="5.5132" x2="34.5851" y2="30.4767"><stop  offset="0" style="stop-color:#88C8EC"/><stop  offset="1" style="stop-color:#43A8DD"/><a:midPointStop  offset="0" style="stop-color:#88C8EC"/><a:midPointStop  offset="0.5" style="stop-color:#88C8EC"/><a:midPointStop  offset="1" style="stop-color:#43A8DD"/></linearGradient><path fill="url(#SVGID_1_)" d="M39.254,15.5c-1.113,0.189-2.219,0.386-3.374,0.583c0.599,4.001-0.232,7.61-2.684,10.769 c-2.437,3.145-5.704,4.872-9.697,5.314c0.099,1.13,0.197,2.232,0.289,3.334C32.148,35.205,41.106,26.837,39.254,15.5z M7.996,16.5 c-1.144-0.091-2.288-0.19-3.496-0.295c0.712-5.789,3.475-10.286,8.568-13.243c5.266-3.063,10.777-3.175,16.432-0.85 c-0.511,1.075-1,2.086-1.482,3.105C18.521,1.044,8.622,7.753,7.996,16.5z M20.5,32.16c-0.092,1.083-0.191,2.201-0.291,3.34 C10.921,34.75,4.762,26.824,4.5,19.783c1.114-0.092,2.228-0.191,3.299-0.283C9.027,26.753,13.234,30.95,20.5,32.16z M30.5,6.192 c0.647-0.917,1.273-1.794,1.907-2.692c2.853,2.031,4.861,4.622,6.094,7.874c-1.069,0.384-2.09,0.755-3.125,1.126 c-0.497-1.295-1.137-2.469-1.968-3.535C32.583,7.905,31.603,6.995,30.5,6.192z M32.573,16.847h-1.416 c-0.223-1.164-0.683-2.285-1.373-3.298l1.006-1.005c0.359-0.367,0.359-0.949,0-1.315l-1.028-1.021c-0.366-0.359-0.948-0.359-1.315,0 l-1.006,1.006c-1.013-0.69-2.142-1.15-3.306-1.373V8.427c0-0.51-0.417-0.927-0.927-0.927h-1.437c-0.511,0-0.927,0.417-0.927,0.927 v1.408c-1.165,0.216-2.3,0.675-3.321,1.365l-0.984-0.977c-0.367-0.359-0.949-0.359-1.315,0l-1.013,1.02 c-0.359,0.367-0.359,0.949,0,1.315l0.977,0.977c-0.704,1.02-1.164,2.155-1.387,3.327h-1.373c-0.51,0-0.927,0.417-0.927,0.927v1.437 c0,0.51,0.417,0.927,0.927,0.927h1.366c0.223,1.178,0.683,2.321,1.38,3.341l-0.949,0.97c-0.359,0.366-0.359,0.948,0,1.315 l1.014,1.013c0.366,0.359,0.949,0.359,1.315,0l0.963-0.962c1.028,0.697,2.17,1.157,3.349,1.379v1.365 c0,0.51,0.417,0.927,0.927,0.927h1.438c0.518-0.007,0.934-0.424,0.934-0.934v-1.373c1.171-0.223,2.307-0.689,3.328-1.394 l0.978,0.977c0.366,0.359,0.949,0.359,1.315,0l1.013-1.013c0.359-0.366,0.359-0.948,0-1.315l-0.992-0.991 c0.69-1.021,1.143-2.156,1.358-3.319h1.409c0.51,0,0.927-0.417,0.927-0.927v-1.437C33.5,17.264,33.083,16.847,32.573,16.847z  M25.889,21.884c-1.861,1.868-4.895,1.875-6.771,0.007c-1.869-1.868-1.876-4.9-0.007-6.768c1.869-1.868,4.902-1.875,6.771-0.007 S27.757,20.016,25.889,21.884z"/></svg>
