<svg version="1.1" xmlns="http://www.w3.org/2000/svg" xmlns:a="http://ns.adobe.com/AdobeSVGViewerExtensions/3.0/" width="18px" height="18px" viewBox="0 0 18 18"><linearGradient id="SVGID_1_" gradientUnits="userSpaceOnUse" x1="0.5854" y1="1.2808" x2="17.4103" y2="18.1056"><stop  offset="0" style="stop-color:#86C8EC"/><stop  offset="1" style="stop-color:#42A8DE"/><a:midPointStop  offset="0" style="stop-color:#86C8EC"/><a:midPointStop  offset="0.5" style="stop-color:#86C8EC"/><a:midPointStop  offset="1" style="stop-color:#42A8DE"/></linearGradient><path fill="url(#SVGID_1_)" d="M17.156,1.38h-1.912V0.733c0-0.366-0.254-0.703-0.619-0.731c-0.422-0.028-0.76,0.281-0.76,0.675V1.38 H4.162V0.733c0-0.366-0.252-0.703-0.618-0.731c-0.422-0.028-0.76,0.281-0.76,0.675V1.38h-1.94C0.366,1.38,0,1.745,0,2.224v3.853h18 V2.224C18,1.773,17.635,1.38,17.156,1.38z M0,7.482v9.674C0,17.635,0.366,18,0.844,18h16.312C17.635,18,18,17.635,18,17.156V7.482H0 z M6.043,15.215c0,0.253-0.202,0.46-0.505,0.46H4.253c-0.277,0-0.503-0.207-0.503-0.46v-1.173c0-0.253,0.226-0.461,0.503-0.461 h1.285c0.277,0,0.505,0.208,0.505,0.461V15.215z M6.043,11.558c0,0.254-0.202,0.46-0.505,0.46H4.253 c-0.277,0-0.503-0.206-0.503-0.46v-1.173c0-0.253,0.226-0.46,0.503-0.46h1.285c0.277,0,0.505,0.207,0.505,0.46V11.558z  M10.453,15.215c0,0.253-0.228,0.46-0.505,0.46H8.663c-0.277,0-0.504-0.207-0.504-0.46v-1.173c0-0.253,0.227-0.461,0.504-0.461 h1.285c0.277,0,0.505,0.208,0.505,0.461V15.215z M10.453,11.558c0,0.254-0.228,0.46-0.505,0.46H8.663 c-0.277,0-0.504-0.206-0.504-0.46v-1.173c0-0.253,0.227-0.46,0.504-0.46h1.285c0.277,0,0.505,0.207,0.505,0.46V11.558z  M14.611,15.215c0,0.253-0.202,0.46-0.505,0.46h-1.285c-0.276,0-0.503-0.207-0.503-0.46v-1.173c0-0.253,0.227-0.461,0.503-0.461 h1.285c0.277,0,0.505,0.208,0.505,0.461V15.215z M14.611,11.558c0,0.254-0.202,0.46-0.505,0.46h-1.285 c-0.276,0-0.503-0.206-0.503-0.46v-1.173c0-0.253,0.227-0.46,0.503-0.46h1.285c0.277,0,0.505,0.207,0.505,0.46V11.558z"/></svg>