<svg version="1.1" xmlns="http://www.w3.org/2000/svg" xmlns:a="http://ns.adobe.com/AdobeSVGViewerExtensions/3.0/" width="64px" height="52px" viewBox="0 0 64 52">
<linearGradient id="SVGID_1_" gradientUnits="userSpaceOnUse" x1="6.9424" y1="26" x2="57.0576" y2="26"><stop  offset="0" style="stop-color:#88C8EC"/><stop  offset="1" style="stop-color:#43A8DD"/></linearGradient><path fill="url(#SVGID_1_)" d="M57.058,52h-4.71c0-11.211-9.138-20.349-20.348-20.349c-11.211,0-20.348,9.138-20.348,20.349h-4.71 c0-13.848,11.304-25.057,25.058-25.057C45.848,26.943,57.058,38.152,57.058,52z M32,31.465c-8.667,0-15.732-7.065-15.732-15.732 C16.268,7.064,23.333,0,32,0s15.638,7.064,15.638,15.732C47.638,24.399,40.573,31.465,32,31.465z M32,4.711 c-6.028,0-11.021,4.897-11.021,11.021c0,6.123,4.898,11.021,11.021,11.021c6.122,0,10.927-4.993,10.927-11.021 C42.927,9.703,38.029,4.711,32,4.711z"/></svg>