<svg version="1.1" xmlns="http://www.w3.org/2000/svg" xmlns:a="http://ns.adobe.com/AdobeSVGViewerExtensions/3.0/" width="30px" height="30px" viewBox="0 0 30 30">
<linearGradient id="SVGID_1_" gradientUnits="userSpaceOnUse" x1="305.4053" y1="-238.5601" x2="332.0621" y2="-265.2169" gradientTransform="matrix(1 0 0 -1 -304.5 -236)">
<stop  offset="0" style="stop-color:#88C8EC"/><stop  offset="1" style="stop-color:#43A8DD"/><a:midPointStop  offset="0" style="stop-color:#88C8EC"/><a:midPointStop  offset="0.5" style="stop-color:#88C8EC"/><a:midPointStop  offset="1" style="stop-color:#43A8DD"/></linearGradient><path fill="url(#SVGID_1_)" d="M24.5,19c-3.037,0-5.5,2.463-5.5,5.5s2.463,5.5,5.5,5.5s5.5-2.463,5.5-5.5S27.537,19,24.5,19z  M24.5,25.5c-0.128,0-0.25-0.025-0.361-0.07l-1.826,1.461l-0.625-0.781l1.828-1.461C23.508,24.6,23.5,24.551,23.5,24.5 c0-0.369,0.202-0.688,0.5-0.861V20.5h1v3.139c0.298,0.174,0.5,0.492,0.5,0.861C25.5,25.053,25.052,25.5,24.5,25.5z M2,27h16.5 c-0.32-0.749-0.5-1.57-0.5-2.434c0-2.629,1.65-4.883,3.999-5.838H19.5v-2.918h3v2.739c0.631-0.196,1.302-0.308,2-0.308 c0.518,0,1.018,0.064,1.5,0.176V9H0v16.055C0,26.129,0.895,27,2,27z M19.5,10.459h3v2.919h-3V10.459z M14,10.459h3v2.919h-3V10.459z  M14,15.811h3v2.92h-3V15.811z M14,21.162h3v2.919h-3V21.162z M8.5,10.459h3v2.919h-3V10.459z M8.5,15.811h3v2.92h-3V15.811z  M8.5,21.162h3v2.919h-3V21.162z M3,10.459h3v2.919H3V10.459z M3,15.811h3v2.92H3V15.811z M3,21.162h3v2.919H3V21.162z M26,4.2 c0-1.031-0.896-1.867-2-1.867h-0.5v1.4c0,0.515-0.448,0.933-1,0.933h-1c0.552,0,1-0.418,1-0.933v-2.8C22.5,0.418,22.052,0,21.5,0 c-0.553,0-1,0.418-1,0.933v1.4H18v1.4c0,0.515-0.448,0.933-1,0.933h-1c0.552,0,1-0.418,1-0.933v-2.8C17,0.418,16.552,0,16,0 c-0.553,0-1,0.418-1,0.933v1.4h-3v1.4c0,0.515-0.448,0.933-1,0.933h-1c0.552,0,1-0.418,1-0.933v-2.8C11,0.418,10.552,0,10,0 C9.447,0,9,0.418,9,0.933v1.4H6.5v1.4c0,0.515-0.448,0.933-1,0.933h-1c0.552,0,1-0.418,1-0.933v-2.8C5.5,0.418,5.052,0,4.5,0 c-0.553,0-1,0.418-1,0.933v1.4H2c-1.104,0-2,0.835-2,1.867V7h26V4.2z"/></svg>