<svg xmlns="http://www.w3.org/2000/svg" xmlns:xlink="http://www.w3.org/1999/xlink" width="18px" height="20px" viewBox="0 0 18 20">
<path fill="#31A3E0" d="M6.239,17.562C6.406,18.949,7.585,20,9.015,20s2.608-1.072,2.775-2.438 c-0.819,0.084-1.745,0.125-2.775,0.125C7.985,17.688,7.08,17.646,6.239,17.562z M16.67,13.102l-1.451-3.026 c-0.251-0.526-0.378-1.072-0.378-1.663V7.298c0-2.607-1.767-4.795-4.164-5.448V1.683C10.677,0.757,9.919,0,8.994,0 C8.068,0,7.311,0.757,7.311,1.683V1.85C4.914,2.503,3.146,4.69,3.146,7.298v1.113c0,0.569-0.125,1.137-0.378,1.663l-1.451,3.027 c-0.315,0.674-0.021,1.493,0.673,1.809c1.178,0.525,3.365,1.137,7.004,1.137c3.638,0,5.804-0.632,7.003-1.137 C16.712,14.596,17.007,13.775,16.67,13.102z"/></svg>