<svg version="1.1" xmlns="http://www.w3.org/2000/svg" xmlns:a="http://ns.adobe.com/AdobeSVGViewerExtensions/3.0/" width="64px" height="52px" viewBox="0 0 64 52"><linearGradient id="SVGID_1_" gradientUnits="userSpaceOnUse" x1="1.543" y1="26" x2="62.457" y2="26"><stop  offset="0" style="stop-color:#88C8EC"/><stop  offset="1" style="stop-color:#43A8DD"/></linearGradient><path fill="url(#SVGID_1_)" d="M1.543,9.643v9.672h0.285c0.632-1.916,2.123-1.908,3.484-1.908l53.433,0.046 c1.219,0,2.67-0.054,3.398,1.862h0.313V9.643c0-2.119-1.903-3.852-3.819-3.85V1.939C58.638,0.881,57.754,0,56.695,0H37.451 c-1.951,0-3.139,1.075-3.747,1.939l-2.213,3.803H5.206C3.088,5.742,1.543,7.524,1.543,9.643z M1.543,24.758v23.424 c0,2.16,1.545,3.818,3.663,3.818H58.62c2.116,0,3.837-1.658,3.837-3.818V24.758c0-2.161-1.907-3.931-3.824-3.931L5.218,20.8 C3.095,20.8,1.544,22.597,1.543,24.758z"/></svg>