<svg xmlns="http://www.w3.org/2000/svg" xmlns:xlink="http://www.w3.org/1999/xlink" width="74px" height="94px" viewBox="0 0 74 94">
<linearGradient id="SVGID_1_" gradientUnits="userSpaceOnUse" x1="-9.0801" y1="11.9741" x2="68.5808" y2="89.635"><stop  offset="0" style="stop-color:#86C8EC"/><stop  offset="1" style="stop-color:#42A8DE"/></linearGradient><path fill="url(#SVGID_1_)" d="M33.221,37.115c0,4.148-3.369,7.518-7.509,7.518c-4.142,0-7.509-3.369-7.509-7.518 c0-4.141,3.367-7.517,7.509-7.517C29.852,29.599,33.221,32.975,33.221,37.115z M50.863,16H60L46,2v9.085 C46,13.766,48.211,16,50.863,16z M74,77.074C74,86.428,66.618,94,57.5,94S41,86.427,41,77.074C41,67.721,48.236,60,57.5,60 C66.475,60,73.855,67.721,74,77.074z M66.186,74.848h-6.658v-6.83H55.04v6.83h-6.657v4.603h6.657v6.829h4.487V79.45h6.658V74.848z  M36.458,77.23c0,4.119,1.166,8.238,3.354,11.77H4.958C2.188,89,0,86.793,0,83.998V5.001C0,2.207,2.188,0,4.958,0h36.459v11.327 c0,5.296,4.375,9.709,9.625,9.709h11.957v35.011c-1.604-0.441-3.208-0.588-4.958-0.588C46.083,55.459,36.458,65.168,36.458,77.23z  M35.859,50.182l2.898-2.891c0.266-0.273,0.266-0.704,0-0.971l-2.104-2.105c0.859-1.331,1.454-2.788,1.782-4.347h2.992 c0.377,0,0.685-0.306,0.685-0.683v-4.092c0-0.384-0.308-0.685-0.685-0.685h-3.006c-0.334-1.551-0.936-2.999-1.797-4.325l2.133-2.125 c0.266-0.273,0.266-0.705,0-0.971l-2.898-2.897c-0.266-0.266-0.697-0.266-0.964,0l-2.138,2.14c-1.497-1.005-2.911-1.654-4.312-1.976 v-2.856c0-0.375-0.308-0.683-0.684-0.683h-4.1c-0.377,0-0.683,0.308-0.683,0.683v2.856c-1.4,0.321-2.817,0.971-4.312,1.976 l-2.14-2.14c-0.267-0.266-0.697-0.266-0.964,0l-2.898,2.897c-0.266,0.266-0.266,0.697,0,0.971l2.133,2.125 c-0.859,1.326-1.463,2.774-1.797,4.325H9.995c-0.376,0-0.684,0.301-0.684,0.685v4.092c0,0.377,0.308,0.683,0.684,0.683h2.993 c0.328,1.559,0.923,3.016,1.783,4.347l-2.105,2.105c-0.266,0.267-0.266,0.697,0,0.971l2.898,2.891c0.267,0.266,0.697,0.266,0.964,0 l2.098-2.099c1.407,0.93,2.87,1.572,4.354,1.899v2.849c0,0.377,0.306,0.685,0.683,0.685h4.1c0.376,0,0.684-0.308,0.684-0.685v-2.849 c1.482-0.327,2.945-0.97,4.353-1.899l2.098,2.099C35.162,50.447,35.594,50.447,35.859,50.182z"/></svg>