<svg xmlns="http://www.w3.org/2000/svg" xmlns:xlink="http://www.w3.org/1999/xlink" width="44px" height="36px" viewBox="0 0 44 36"><linearGradient id="SVGID_1_" gradientUnits="userSpaceOnUse" x1="5.1777" y1="-2.376" x2="38.8226" y2="31.2689"><stop  offset="0" style="stop-color:#88C8EC"/><stop  offset="1" style="stop-color:#43A8DD"/></linearGradient><path fill="url(#SVGID_1_)" d="M2.756,27.914h15.09l-1.533,5.895h-2.604v1.213h16.582v-1.213h-2.604l-1.534-5.895h15.091 c1.243,0,2.256-1.012,2.256-2.256V3.234c0-1.244-1.013-2.255-2.256-2.255H2.756C1.512,0.979,0.5,1.99,0.5,3.234v22.424 C0.5,26.902,1.512,27.914,2.756,27.914z M26.469,33.809h-8.938l1.534-5.895h5.872L26.469,33.809z M1.71,4.18 c0-1.098,0.893-1.99,1.992-1.99h36.596c1.099,0,1.991,0.893,1.991,1.99v20.533c0,1.098-0.893,1.992-1.991,1.992H3.702 c-1.099,0-1.992-0.895-1.992-1.992V4.18z M32.947,13.921c-0.26-0.012-0.519-0.019-0.78-0.026c-0.446-0.011-0.91-0.023-1.363-0.062 c-1.406-0.119-2.396-0.461-3.206-1.107c-0.673-0.538-1.428-0.626-2.258-0.268c-0.11,0.049-0.219,0.101-0.33,0.154 c-0.158,0.075-0.321,0.153-0.488,0.215c-0.132,0.05-0.221,0.072-0.283,0.072c-0.099,0-0.16-0.049-0.266-0.335l-0.041-0.112 c-0.037-0.106-0.077-0.214-0.122-0.316c-0.336-0.74-0.958-1.149-1.759-1.151c-0.768,0-1.367,0.418-1.687,1.178 c-0.068,0.163-0.126,0.331-0.182,0.494c-0.025,0.073-0.05,0.146-0.076,0.218c-0.079,0.22-0.247,0.481-0.605,0.482 c-0.284,0-0.511-0.18-0.562-0.449c-0.078-0.399-0.162-0.919-0.123-1.415c0.022-0.286,0.065-0.578,0.108-0.858 c0.096-0.634,0.195-1.29,0.066-1.968c-0.25-1.314-1.509-2.346-2.867-2.346c-0.213,0-0.427,0.026-0.633,0.077 c-1.387,0.346-2.299,1.522-2.322,2.996c-0.016,0.911,0.236,1.776,0.481,2.614l0.07,0.247c0.16,0.547,0.316,1.138,0.398,1.74 c0.085,0.63-0.055,1.148-0.418,1.538c-0.342,0.37-0.732,0.482-1.235,0.357c-0.374-0.093-0.731,0.146-0.854,0.559 c-0.099,0.333,0.055,0.771,0.443,0.894c0.235,0.074,0.59,0.173,0.927,0.173c0.086,0,0.17-0.007,0.249-0.02 c1.597-0.264,2.627-1.729,2.451-3.481c-0.058-0.583-0.208-1.163-0.351-1.722c-0.081-0.315-0.165-0.64-0.23-0.961 c-0.026-0.125-0.053-0.25-0.08-0.375c-0.112-0.525-0.231-1.069-0.247-1.6c-0.012-0.398,0.132-0.773,0.405-1.054 c0.252-0.261,0.595-0.411,0.937-0.411l0.053,0.001c0.777,0.034,1.324,0.668,1.297,1.511c-0.014,0.488-0.097,0.984-0.177,1.464 l-0.015,0.088c-0.171,1.036-0.115,1.818,0.183,2.536c0.373,0.898,1.133,1.433,2.034,1.433h0.035c0.937-0.013,1.682-0.548,2.04-1.463 c0.03-0.077,0.057-0.155,0.082-0.233c0.05-0.15,0.098-0.292,0.171-0.419c0.063-0.108,0.195-0.219,0.266-0.219 c0.071,0.001,0.198,0.101,0.291,0.228c0.052,0.071,0.081,0.167,0.11,0.266c0.018,0.056,0.035,0.113,0.057,0.166 c0.409,1.042,1.225,1.443,2.291,1.125c0.285-0.084,0.559-0.211,0.822-0.334c0.088-0.042,0.177-0.083,0.265-0.122 c0.277-0.121,0.486-0.098,0.745,0.082c0.436,0.307,0.867,0.557,1.282,0.745c1.423,0.641,2.97,0.728,4.312,0.761H32.9 c0.584-0.002,0.914-0.27,0.926-0.756C33.839,14.272,33.494,13.946,32.947,13.921z M42.286,22.43L1.704,22.465v-1.219l40.583-0.033 V22.43z"/></svg>