<svg xmlns="http://www.w3.org/2000/svg" xmlns:xlink="http://www.w3.org/1999/xlink" width="44px" height="36px" viewBox="0 0 44 36"><linearGradient id="SVGID_1_" gradientUnits="userSpaceOnUse" x1="13.3022" y1="7.3843" x2="37.2175" y2="31.2995"><stop  offset="0" style="stop-color:#88C8EC"/><stop  offset="1" style="stop-color:#43A8DD"/></linearGradient><path fill="url(#SVGID_1_)" d="M30.858,35.5h-9.521c-0.938,0-1.825,0-2.896-0.713c-0.547-0.363-0.897-0.647-1.403-1.262 L8.303,23.482c-1.153-1.328-0.915-3.419,0.521-4.675c0.675-0.583,1.514-0.901,2.367-0.901c0.913,0,1.763,0.377,2.332,1.033 l2.274,2.616V6.067c0-1.574,1.282-2.854,2.858-2.854c0.835,0,1.591,0.36,2.115,0.938V3.354c0-1.572,1.28-2.854,2.854-2.854 c1.277,0,2.36,0.84,2.729,2c0.519-0.667,1.336-1.094,2.245-1.094c1.575,0,2.854,1.278,2.854,2.854v3.058 c0.524-0.579,1.279-0.941,2.116-0.941c1.574,0,2.858,1.282,2.858,2.856v20.166C36.429,32.764,33.93,35.5,30.858,35.5z  M11.191,19.261c-0.525,0-1.051,0.202-1.478,0.571c-0.875,0.764-1.051,2.001-0.389,2.762l8.747,10.054 c0.433,0.527,0.686,0.72,1.119,1.013c0.73,0.486,1.291,0.486,2.145,0.486v0.678l0.019-0.678h9.504c2.324,0,4.215-2.13,4.215-4.748 V9.232c0-0.826-0.676-1.502-1.503-1.502c-0.824,0-1.499,0.676-1.499,1.502v7.874c0,0.192-0.081,0.379-0.228,0.506 c-0.146,0.132-0.335,0.192-0.53,0.165c-0.164-0.018-0.311-0.028-0.455-0.028h-0.081c-0.374,0-0.677-0.302-0.677-0.677V4.261 c0-0.828-0.673-1.5-1.5-1.5c-0.828,0-1.499,0.672-1.499,1.5v12.812c0,0.375-0.303,0.677-0.677,0.677h-0.616 c-0.374,0-0.681-0.302-0.681-0.677V3.354c0-0.822-0.673-1.499-1.501-1.499c-0.823,0-1.5,0.677-1.5,1.499v13.719 c0,0.375-0.302,0.677-0.676,0.677h-0.082c-0.14,0-0.29,0.011-0.452,0.028c-0.197,0.027-0.387-0.033-0.533-0.165 c-0.144-0.127-0.228-0.313-0.228-0.506V6.067c0-0.827-0.671-1.499-1.499-1.499s-1.498,0.672-1.498,1.499v17.301 c0,0.285-0.177,0.535-0.44,0.633c-0.27,0.101-0.566,0.027-0.751-0.188l-3.466-3.984C12.182,19.461,11.719,19.261,11.191,19.261z  M28.488,29.27l-2.339-2.34l-2.345,2.34l-1.107-1.108l2.339-2.345l-2.339-2.339l1.107-1.113l2.345,2.344l2.339-2.344l1.113,1.113 l-2.344,2.339l2.344,2.345L28.488,29.27z"/></svg>