<svg version="1.1" xmlns="http://www.w3.org/2000/svg" xmlns:a="http://ns.adobe.com/AdobeSVGViewerExtensions/3.0/" width="65px" height="52px" viewBox="0 0 65 52">
<linearGradient id="SVGID_1_" gradientUnits="userSpaceOnUse" x1="5.5044" y1="3.4966" x2="50.5907" y2="48.5829"><stop  offset="0" style="stop-color:#88C8EC"/><stop  offset="1" style="stop-color:#43A8DD"/><a:midPointStop  offset="0" style="stop-color:#88C8EC"/><a:midPointStop  offset="0.5" style="stop-color:#88C8EC"/><a:midPointStop  offset="1" style="stop-color:#43A8DD"/></linearGradient><path fill="url(#SVGID_1_)" d="M56.788,27.641c0.391,0.625,0.234,1.484-0.393,1.875l-13.077,8.438l-1.487-2.266l13.076-8.438 C55.534,26.859,56.396,27.094,56.788,27.641z M38.385,39.047c0-0.078,0-0.078,0-0.078v-0.078l2.036-3.672l0,0l0.078-0.078 l0.078-0.078l0,0l7.439-4.844V1H7.999v50h40.174V36.312l-4.697,2.969l0,0c-0.079,0.078-0.157,0.078-0.236,0.078l-1.096,0.078 c0.078,0.078,0.156,0.078,0.234,0.234c0.157,0.312,0.078,0.625-0.156,0.781c-1.41,0.859-2.74,1.719-3.915,1.719 c-0.157,0-0.392,0-0.548-0.078c-0.549-0.156-0.939-0.469-1.254-1.016c-0.156-0.234-0.234-0.469-0.312-0.781v0.078 c-0.156,0.547-0.235,0.938-0.313,1.25c-0.235,0.547-0.626,0.547-0.783,0.547c-0.626-0.078-0.626-0.625-0.861-2.734 c-0.079-1.25-0.235-3.047-0.548-3.672c-0.627,0.547-1.803,2.891-2.585,4.531l-1.097-0.547c1.723-3.594,2.584-5.156,3.604-5.156 c0.234,0,0.626,0.078,0.939,0.625c0.391,0.625,0.548,1.953,0.705,3.672c0.156-0.547,0.391-0.859,0.783-0.859 c0.547,0,0.704,0.547,0.939,1.25c0.156,0.391,0.234,0.938,0.469,1.25c0.157,0.312,0.393,0.391,0.549,0.469 c0.783,0.156,2.193-0.625,3.445-1.406l-2.428,0.234c0,0,0,0-0.078,0s-0.156,0-0.234-0.078l0,0c0,0,0,0-0.078-0.078l-0.078-0.078 l-0.079-0.078c0,0,0-0.078-0.078-0.078v-0.078c0,0,0,0,0-0.078v-0.078C38.385,39.203,38.385,39.125,38.385,39.047z M16,10h23.001 c0.337,0,0.996,0.6,0.996,1.537c0,0.75-0.575,1.463-0.996,1.463H16c-0.337,0-1.012-0.525-1.012-1.463S15.663,10,16,10z M40.028,38.5 l1.02-1.797l1.096,1.641L40.028,38.5z M16,16h23.001c0.337,0,0.996,0.6,0.996,1.537c0,0.75-0.575,1.463-0.996,1.463H16 c-0.337,0-1.012-0.525-1.012-1.463S15.663,16,16,16z M16,23h23.001c0.337,0,0.996,0.6,0.996,1.537c0,0.75-0.575,1.463-0.996,1.463 H16c-0.337,0-1.012-0.525-1.012-1.463S15.663,23,16,23z M16,29h23.001c0.337,0,0.996,0.6,0.996,1.537 c0,0.75-0.575,1.463-0.996,1.463H16c-0.337,0-1.012-0.525-1.012-1.463S15.663,29,16,29z"/></svg>