<svg version="1.1" xmlns="http://www.w3.org/2000/svg" xmlns:a="http://ns.adobe.com/AdobeSVGViewerExtensions/3.0/" width="74px" height="94px" viewBox="0 0 74 94">
<linearGradient id="SVGID_1_" gradientUnits="userSpaceOnUse" x1="295.4219" y1="-183.9727" x2="373.0834" y2="-261.6342" gradientTransform="matrix(1 0 0 -1 -304.5 -172)"><stop  offset="0" style="stop-color:#86C8EC"/><stop  offset="1" style="stop-color:#42A8DE"/><a:midPointStop  offset="0" style="stop-color:#86C8EC"/><a:midPointStop  offset="0.5" style="stop-color:#86C8EC"/><a:midPointStop  offset="1" style="stop-color:#42A8DE"/></linearGradient><path fill="url(#SVGID_1_)" d="M60,16h-9.137C48.211,16,46,13.766,46,11.085V2L60,16z M51.042,21.036 c-5.25,0-9.625-4.413-9.625-9.709V0H4.958C2.188,0,0,2.207,0,5.001v78.997C0,86.793,2.188,89,4.958,89h34.854 c-2.188-3.531-3.354-7.65-3.354-11.77c0-12.062,9.625-21.771,21.583-21.771c1.75,0,3.354,0.146,4.958,0.588V21.036H51.042z  M42.875,51.046H13.854c-0.875,0-1.459-0.735-1.459-1.471c0.729-6.62,5.25-12.063,11.521-13.975 c-2.771-1.471-4.667-4.561-4.667-7.944c0-5.002,4.083-9.121,9.042-9.121c4.958,0,9.041,4.119,9.041,9.121 c0,3.383-1.896,6.473-4.521,7.944c6.125,1.912,10.792,7.355,11.521,13.975C44.479,50.458,43.75,51.046,42.875,51.046z M57.5,60 C48.236,60,41,67.721,41,77.074C41,86.427,48.382,94,57.5,94S74,86.428,74,77.074C73.855,67.721,66.475,60,57.5,60z M66.186,79.45 h-6.658v6.829H55.04V79.45h-6.657v-4.603h6.657v-6.83h4.487v6.83h6.658V79.45z"/></svg>
