<svg version="1.1" xmlns="http://www.w3.org/2000/svg" xmlns:a="http://ns.adobe.com/AdobeSVGViewerExtensions/3.0/" width="65px" height="52px" viewBox="0 0 65 52">
<linearGradient id="SVGID_1_" gradientUnits="userSpaceOnUse" x1="8.0278" y1="4.9937" x2="54.6347" y2="51.6006"><stop  offset="0" style="stop-color:#88C8EC"/><stop  offset="1" style="stop-color:#43A8DD"/><a:midPointStop  offset="0" style="stop-color:#88C8EC"/><a:midPointStop  offset="0.5" style="stop-color:#88C8EC"/><a:midPointStop  offset="1" style="stop-color:#43A8DD"/></linearGradient><path fill="url(#SVGID_1_)" d="M51.844,5.283H31.062c-0.609,0-1.218-0.348-1.565-0.957l-1.652-2.87 C27.497,0.935,26.975,0.5,26.279,0.5H13.238c-0.957,0-1.739,0.783-1.739,1.739v8.521c0,0.957,0.782,1.739,1.739,1.739h38.518 c0.957,0,1.739-0.783,1.739-1.739V6.935C53.582,6.065,52.8,5.283,51.844,5.283z M57.668,22.182l0.787-3.624 c0.262-1.07-0.611-2.059-1.748-2.059H8.293c-1.136,0-2.01,0.988-1.747,2.059l0.786,3.624C7.507,23.006,8.207,23.5,9.08,23.5h46.841 C56.795,23.5,57.494,22.923,57.668,22.182z M4.584,30.697l4.203,18.73c0.262,1.209,1.4,2.072,2.626,2.072h42.2 c1.226,0,2.363-0.863,2.626-2.072l4.202-18.73c0.351-1.641-0.875-3.193-2.626-3.193H7.211C5.459,27.417,4.146,29.057,4.584,30.697z" /></svg>