<svg version="1.1" xmlns="http://www.w3.org/2000/svg" xmlns:a="http://ns.adobe.com/AdobeSVGViewerExtensions/3.0/" width="64px" height="52px" viewBox="0 0 64 52">
<linearGradient id="SVGID_1_" gradientUnits="userSpaceOnUse" x1="4.2593" y1="-1.1597" x2="57.0471" y2="51.6282"><stop  offset="0" style="stop-color:#88C8EC"/><stop  offset="1" style="stop-color:#43A8DD"/><a:midPointStop  offset="0" style="stop-color:#88C8EC"/><a:midPointStop  offset="0.5" style="stop-color:#88C8EC"/><a:midPointStop  offset="1" style="stop-color:#43A8DD"/></linearGradient><path fill="url(#SVGID_1_)" d="M49.1,11.1C49.9,10.5,49.9,9.4,49.3,8.7c-0.6-0.8-1.7-0.8-2.399-0.2L28.1,24.3L9.4,8.4 C8.6,7.8,7.601,7.8,7,8.6C6.4,9.4,6.4,10.399,7.2,11L20.6,22.3L7.101,35.1C6.4,35.7,6.3,36.8,7,37.5C7.4,37.8,7.9,38,8.3,38 c0.4,0,0.801-0.1,1.2-0.5l13.7-12.9l3.9,3.2c0.299,0.3,0.699,0.4,1.1,0.4s0.8-0.101,1.1-0.4l3.9-3.2l9.1,8.601 c-1.3,2.1-2.1,4.6-2.1,7.2c0,1.3,0.2,2.6,0.6,3.8H3c-1.6,0-3-1.4-3-3V4.3c0-1.6,1.4-3,3-3h50.3c1.601,0,3,1.3,3,3v22.8 c-0.8-0.1-1.7-0.3-2.6-0.3c-3.6,0-6.8,1.4-9.3,3.7L35.8,22.4L49.1,11.1z M53.7,30c-5.8,0-10.3,4.7-10.3,10.4 c0,5.699,4.6,10.3,10.3,10.3S64,46.1,64,40.4C64,34.7,59.3,30,53.7,30z M59,43l-4-3v6h-2v-6l-4,3v-4l5-4l5,4V43z"/></svg>
