<svg version="1.1" xmlns="http://www.w3.org/2000/svg" xmlns:a="http://ns.adobe.com/AdobeSVGViewerExtensions/3.0/" width="65px" height="52px" viewBox="0 0 65 52">
<linearGradient id="SVGID_1_" gradientUnits="userSpaceOnUse" x1="11.6821" y1="7.0679" x2="53.4525" y2="48.8383"><stop  offset="0" style="stop-color:#88C8EC"/><stop  offset="1" style="stop-color:#43A8DD"/><a:midPointStop  offset="0" style="stop-color:#88C8EC"/><a:midPointStop  offset="0.5" style="stop-color:#88C8EC"/><a:midPointStop  offset="1" style="stop-color:#43A8DD"/></linearGradient><path fill="url(#SVGID_1_)" d="M32.5,24.1c2.701,0,5.201-1.1,7.001-2.9c1.8-1.8,2.9-4.2,2.9-6.9c0-5.4-4.4-9.8-9.802-9.8 c-5.4,0-9.8,4.4-9.8,9.8c0,2.7,1.1,5.2,2.9,6.9C27.299,22.9,29.799,24.1,32.5,24.1z M58.2,21.9c-1.799,1.9-4.299,3.2-7.1,3.2 c-1.6,0-3.199-0.399-4.5-1.1c3.5,4,5.5,9.4,5.5,15.1c0,0.801,0,1.5-0.1,2.101c7,0,12.5,0.5,12.5-6.601 C64.501,29.3,62.001,24.6,58.2,21.9z M51.101,23.1c2.1,0,4-0.9,5.4-2.2c1.4-1.4,2.199-3.3,2.199-5.3c0-4.2-3.399-7.6-7.6-7.6 s-7.6,3.3-7.6,7.5c0,2.1,0.8,4,2.199,5.3C47.101,22.2,49.001,23.1,51.101,23.1z M18.399,23.9c-1.3,0.7-2.899,1.1-4.5,1.1 c-2.8,0-5.4-1.2-7.1-3.2c-3.8,2.8-6.3,7.5-6.3,12.8c0,6.5,5.5,6.601,12.5,6.601c-0.1-0.7-0.2-1.4-0.2-2.101 C12.899,33.3,14.899,27.9,18.399,23.9z M13.899,23.1c2.1,0,4-0.9,5.4-2.2c1.4-1.4,2.2-3.3,2.2-5.3c0-4.2-3.4-7.6-7.6-7.6 c-4.2,0-7.6,3.4-7.6,7.6c0,2.1,0.8,4,2.2,5.3C9.899,22.2,11.799,23.1,13.899,23.1z M42.501,23.1c-0.301-0.2-0.5-0.4-0.801-0.6 c-2.199,2.5-5.5,4.1-9.201,4.1c-3.7,0-7-1.6-9.2-4.1c-0.3,0.2-0.5,0.4-0.8,0.6c-4.4,3.5-7.4,9.4-7.4,15.9c0,0.8,0.1,1.5,0.2,2.1 c1.2,6.2,7.8,6.4,15.9,6.4c0.399,0,0.8,0,1.3,0c1.701,0,3.301,0,4.801,0c6.5,0,11.4-0.6,12.399-6.4c0.101-0.6,0.201-1.3,0.201-2.1 C49.901,32.5,47.001,26.7,42.501,23.1z"/></svg>