<svg version="1.1" xmlns="http://www.w3.org/2000/svg" xmlns:a="http://ns.adobe.com/AdobeSVGViewerExtensions/3.0/" width="18px" height="22px" viewBox="0 0 18 22">
<linearGradient id="SVGID_1_" gradientUnits="userSpaceOnUse" x1="2.7031" y1="2.2236" x2="17.7768" y2="17.2973"><stop  offset="0" style="stop-color:#88C8EC"/><stop  offset="1" style="stop-color:#43A8DD"/><a:midPointStop  offset="0" style="stop-color:#88C8EC"/><a:midPointStop  offset="0.5" style="stop-color:#88C8EC"/><a:midPointStop  offset="1" style="stop-color:#43A8DD"/></linearGradient><path fill="url(#SVGID_1_)" d="M7.548,12.453c-1.625-1.624-1.991-3.248-2.074-3.899c-0.023-0.18,0.039-0.36,0.167-0.488l1.314-1.313 c0.193-0.193,0.228-0.494,0.083-0.727l-2.093-3.25c-0.161-0.256-0.49-0.349-0.76-0.213l-3.36,1.582 c-0.219,0.107-0.348,0.34-0.323,0.583c0.176,1.672,0.905,5.783,4.945,9.824c4.04,4.04,8.151,4.77,9.824,4.945 c0.243,0.024,0.476-0.104,0.583-0.323l1.582-3.359c0.135-0.271,0.043-0.599-0.213-0.759l-3.249-2.093 c-0.231-0.145-0.532-0.111-0.727,0.082l-1.313,1.314c-0.128,0.129-0.309,0.191-0.488,0.168C10.797,14.444,9.172,14.077,7.548,12.453 z M13.929,11.5c-0.315,0-0.571-0.256-0.571-0.571c-0.004-2.366-1.92-4.283-4.286-4.286C8.756,6.643,8.5,6.387,8.5,6.071 S8.756,5.5,9.071,5.5c2.997,0.003,5.425,2.432,5.429,5.429C14.5,11.244,14.244,11.5,13.929,11.5z M16.92,11.5 c-0.321,0-0.582-0.26-0.582-0.581c-0.004-4.007-3.25-7.253-7.257-7.258c-0.321,0-0.581-0.26-0.581-0.58C8.5,2.76,8.76,2.5,9.081,2.5 c4.648,0.005,8.414,3.771,8.419,8.419c0,0.154-0.062,0.302-0.17,0.411C17.221,11.438,17.073,11.5,16.92,11.5z"/></svg>