<svg version="1.1" xmlns="http://www.w3.org/2000/svg" xmlns:a="http://ns.adobe.com/AdobeSVGViewerExtensions/3.0/" width="64px" height="52px" viewBox="0 0 64 52">
<linearGradient id="SVGID_1_" gradientUnits="userSpaceOnUse" x1="3.9141" y1="26" x2="60.0859" y2="26"><stop  offset="0" style="stop-color:#88C8EC"/><stop  offset="1" style="stop-color:#43A8DD"/></linearGradient><path fill="url(#SVGID_1_)" d="M3.914,0v52h56.172V0H3.914z M55.129,46.941H8.87V15.906h46.259V46.941z M55.129,11.902H8.872V5.018 h46.257V11.902z M23.589,21.424c-1.413,2.279-2.502,5.601-2.502,10.037c0,4.36,1.115,7.655,2.502,9.963h-2.627 c-1.337-1.91-2.825-5.204-2.825-9.986c0.025-4.809,1.487-8.08,2.825-10.013H23.589z M34.988,39.775l-1.514-3.023 c-0.619-1.165-1.015-2.032-1.485-2.997h-0.05c-0.347,0.965-0.769,1.832-1.289,2.997l-1.388,3.023h-4.312l4.833-8.45l-4.659-8.251 h4.336l1.463,3.045c0.495,1.015,0.867,1.834,1.263,2.775h0.05c0.396-1.065,0.719-1.808,1.14-2.775l1.411-3.045h4.313l-4.707,8.15 l4.957,8.551H34.988z M40.615,41.424c1.361-2.281,2.501-5.627,2.501-10.013s-1.113-7.683-2.501-9.987h2.626 c1.313,1.907,2.824,5.154,2.824,9.987c-0.026,4.834-1.511,8.081-2.824,10.013H40.615z"/></svg>