<svg version="1.1" xmlns="http://www.w3.org/2000/svg" xmlns:a="http://ns.adobe.com/AdobeSVGViewerExtensions/3.0/" width="65px" height="52px" viewBox="0 0 65 52">
<linearGradient id="SVGID_1_" gradientUnits="userSpaceOnUse" x1="10.8594" y1="12.5283" x2="48.4299" y2="50.0989"><stop  offset="0" style="stop-color:#88C8EC"/><stop  offset="1" style="stop-color:#43A8DD"/><a:midPointStop  offset="0" style="stop-color:#88C8EC"/><a:midPointStop  offset="0.5" style="stop-color:#88C8EC"/><a:midPointStop  offset="1" style="stop-color:#43A8DD"/></linearGradient><path fill="url(#SVGID_1_)" d="M33.045,42.98c-0.711,0.865-2.055-0.156-1.343-1.101l1.976-2.516 c0.316-0.472,0.948-0.472,1.344-0.079l2.213,2.359c0.791,0.865-0.553,2.044-1.344,1.18l-0.553-0.551 c0.553,3.931,4.031,6.918,8.062,6.918c3.241,0,6.087-1.809,7.431-4.639c0.475-1.101,2.056-0.314,1.581,0.708 C50.831,48.72,47.273,51,43.4,51c-4.979,0-9.248-3.773-9.802-8.727L33.045,42.98z M29.721,42.195c0,0.628,0.078,1.177,0.078,1.805 H10.823C9.507,44,8.5,42.902,8.5,41.646v-4.785c0-7.373,5.499-13.414,12.624-14.276c-3.408-2.04-5.576-5.727-5.576-9.962 c0-6.118,4.957-11.374,10.998-11.609c6.583-0.314,12.004,5.02,12.004,11.609c0,4.236-2.245,7.923-5.576,9.962 c3.872,0.471,7.28,2.432,9.526,5.413C35.375,28.625,29.721,34.822,29.721,42.195z M36.169,37.461 c-0.474,1.025-2.056,0.315-1.581-0.787C36.169,33.206,39.648,31,43.523,31c5.061,0,9.252,3.703,9.885,8.668l0.475-0.631 c0.711-0.945,2.135,0.158,1.423,1.025l-1.977,2.6c-0.316,0.395-1.028,0.473-1.345,0.078l-2.214-2.441 c-0.791-0.789,0.475-2.049,1.265-1.183l0.554,0.63c-0.554-4.018-3.954-7.013-8.065-7.013C40.36,32.733,37.514,34.546,36.169,37.461z  M41.753,41.215l-0.138,0.082c-0.139,0.081-0.139,0.244-0.07,0.406l0,0l0,0c0.07,0.082,0.139,0.082,0.277,0.164 c0.069,0,0.139,0,0.208,0c0.139,0.081,0.208,0.162,0.277,0.244c0.069,0.162,0,0.407,0,0.57c-0.208,0.978-0.416,1.955-0.624,2.934 C41.545,46.43,41.892,47,42.654,47c0.762,0,1.523-0.326,2.147-0.814c0.069,0,0.069-0.082,0.139-0.164 c0.138-0.162,0.069-0.325-0.139-0.406c-0.069,0-0.139,0-0.208-0.082c-0.416-0.163-0.484-0.326-0.416-0.814 c0.208-0.979,0.416-1.956,0.624-2.934c0.139-0.652-0.139-1.223-0.624-1.304c-0.139,0-0.276-0.081-0.415-0.081 c-0.208,0-0.347,0-0.555,0.081c-0.138,0-0.208,0.081-0.276,0.081c-0.209,0.082-0.348,0.163-0.555,0.244 c-0.139,0.082-0.208,0.082-0.416,0.245L41.753,41.215z M44.178,36c-0.762,0-1.316,0.652-1.385,1.548c0,0,0,0,0,0.081 c0,0.896,0.623,1.631,1.316,1.631c0.762,0,1.385-0.734,1.385-1.549C45.564,36.733,44.94,36,44.178,36C44.248,36,44.248,36,44.178,36 z"/></svg>