<svg version="1.1" xmlns="http://www.w3.org/2000/svg" xmlns:a="http://ns.adobe.com/AdobeSVGViewerExtensions/3.0/" width="30px" height="30px" viewBox="0 0 30 30">
<path fill="#FFFFFF" d="M30,9.694C30,4.349,25.514,0,20,0S10,4.349,10,9.694c0,0.662,0.067,1.301,0.204,1.941h13.33v1.72h-3.746 v6.031c0.071,0.001,0.142,0.003,0.212,0.003c1.257,0,2.479-0.222,3.637-0.662L28.711,21l-0.742-5.449 C29.281,13.874,30,11.809,30,9.694z M23.534,9.653h-7.686V7.934h7.686V9.653z M0,14v16l3.536-3.938H18V14H0z M6.521,21.052h-1.75 v-1.725h1.75V21.052z M10.196,21.052h-1.75v-1.725h1.75V21.052z M13.871,21.052h-1.75v-1.725h1.75V21.052z"/></svg>
