<svg version="1.1" xmlns="http://www.w3.org/2000/svg" xmlns:xlink="http://www.w3.org/1999/xlink" width="22px" height="22px" viewBox="0 0 22 22">
<linearGradient id="SVGID_1_" gradientUnits="userSpaceOnUse" x1="302.3682" y1="-370.7988" x2="308.2004" y2="-376.6311" gradientTransform="matrix(1 0 0 -1 -295 -362)"><stop  offset="0" style="stop-color:#88C8EC"/><stop  offset="1" style="stop-color:#43A8DD"/></linearGradient><path fill="url(#SVGID_1_)" d="M21.096,2.362l-1.459-1.458c-1.203-1.206-3.168-1.206-4.373,0l-13.12,13.12 c-0.082,0.082-0.143,0.186-0.174,0.297l-1.943,6.804c-0.069,0.24-0.002,0.497,0.175,0.675C0.333,21.93,0.507,22,0.688,22 c0.063,0,0.127-0.008,0.188-0.025l6.803-1.945c0.112-0.03,0.216-0.092,0.298-0.174l13.119-13.12C21.68,6.152,22,5.376,22,4.549 C22,3.723,21.68,2.946,21.096,2.362z M7.129,18.758l-5.442,1.555l1.555-5.44L13.807,4.307l3.887,3.887L7.129,18.758z M20.123,5.765 l-1.458,1.458l-3.888-3.888l1.459-1.458c0.668-0.669,1.759-0.668,2.43,0l1.458,1.458c0.325,0.324,0.503,0.757,0.503,1.215 S20.447,5.439,20.123,5.765z"/></svg>