<svg version="1.1" xmlns="http://www.w3.org/2000/svg" xmlns:a="http://ns.adobe.com/AdobeSVGViewerExtensions/3.0/" width="44px" height="36px" viewBox="0 0 44 36">
<linearGradient id="SVGID_1_" gradientUnits="userSpaceOnUse" x1="0.9854" y1="3.9951" x2="33.5661" y2="36.5759"><stop  offset="0" style="stop-color:#88C8EC"/><stop  offset="1" style="stop-color:#43A8DD"/><a:midPointStop  offset="0" style="stop-color:#88C8EC"/><a:midPointStop  offset="0.5" style="stop-color:#88C8EC"/><a:midPointStop  offset="1" style="stop-color:#43A8DD"/></linearGradient><path fill="url(#SVGID_1_)" d="M22,5V1l5,4H22z M21.63,7.238c-0.567,0-1.021-0.456-1.021-1.026V0H5.7C4.737,0,4,0.741,4,1.71v29.58 C4,32.259,4.737,33,5.7,33h14.456c-0.907-1.425-1.53-3.078-1.757-4.788c-0.057-0.57-0.113-1.14-0.113-1.71 c0-2.336,0.68-4.502,1.814-6.383c0.34-0.627,0.793-1.197,1.247-1.71c1.927-2.166,4.649-3.647,7.653-3.99V7.238H21.63z M17,28H9 c-0.552,0-1-0.448-1-1s0.448-1,1-1h8c0.552,0,1,0.448,1,1S17.552,28,17,28z M19,20H9c-0.552,0-1-0.448-1-1s0.448-1,1-1h10 c0.552,0,1,0.448,1,1S19.552,20,19,20z M25,12H9c-0.552,0-1-0.448-1-1s0.448-1,1-1h16c0.552,0,1,0.448,1,1S25.552,12,25,12z M30,16 c-5.523,0-10,4.477-10,10s4.477,10,10,10c5.522,0,10-4.477,10-10S35.522,16,30,16z M28,28.5c0,0.829-0.671,1.5-1.5,1.5 S25,29.329,25,28.5v-3c0-0.829,0.671-1.5,1.5-1.5s1.5,0.671,1.5,1.5V28.5z M27,29c0,0.276-0.224,0.5-0.5,0.5S26,29.276,26,29l0,0 c0-0.276,0.224-0.5,0.5-0.5S27,28.724,27,29L27,29z M35,29c0,0.552-0.448,1-1,1h-4c-0.552,0-1-0.448-1-1v-5c0-0.552,0.448-1,1-1 c0,0,1.273-1.996,2-3c1.293,0.392-0.511,3.323,0.536,3.507C33.779,23.726,35,24,35,24c0.552,0,1,0.448,1,1L35,29z"/></svg>
