<svg xmlns="http://www.w3.org/2000/svg" xmlns:xlink="http://www.w3.org/1999/xlink" width="44px" height="36px" viewBox="0 0 44 36"><linearGradient id="SVGID_1_" gradientUnits="userSpaceOnUse" x1="10.2432" y1="9.9629" x2="34.5078" y2="34.2276"><stop  offset="0" style="stop-color:#88C8EC"/><stop  offset="1" style="stop-color:#43A8DD"/></linearGradient><path fill="url(#SVGID_1_)" d="M38.703,26.699c-0.354-0.769-0.92-1.894-1.479-3.018l0,0l-1.59-3.226 c-0.457-0.97-0.817-1.637-0.817-1.637l0,0l-0.255-0.564l0,0c-0.307-0.614-1.075-0.866-1.688-0.56 c-0.613,0.306-0.872,1.074-0.565,1.689l1.025,2.094c0.87,1.793,2.301,4.709,3.119,6.347c0.204,0.409,0.204,0.614,0.157,0.662 c-0.103,0.204-0.819,0.512-1.998,0.512l0,0h-5.986v-3.887c0-0.155-0.102-0.203-0.204-0.102l-7.214,5.065 c-0.103,0.104-0.103,0.205,0,0.308l7.214,5.063c0.103,0.102,0.204,0.05,0.204-0.103v-3.788h5.986l0,0 c1.179,0,3.226-0.205,4.146-1.684C39.113,29.203,39.42,28.181,38.703,26.699z M24.174,4.648c0,0.051,0.056,0.051,0.056,0.104 l2.917,5.627l-3.178,1.329c-0.149,0.052-0.149,0.155,0,0.257l7.474,4.708c0.103,0.046,0.251,0,0.251-0.104l1.896-8.7 c0.051-0.149-0.051-0.205-0.205-0.149L29.5,9.356l-3.021-5.782c-0.613-1.383-2.51-2.918-4.602-3.068 c-1.126-0.055-3.174,0.204-4.759,2.966c-2.612,4.453-3.784,6.498-4.249,7.468l-0.203,0.41l0,0c-0.357,0.615-0.104,1.381,0.511,1.743 c0.613,0.354,1.385,0.103,1.737-0.513l0.158-0.307c0,0,0,0,0,0.048c0,0,0-0.048,0.046-0.102l2.663-4.76 c0.461-0.763,0.973-1.683,1.585-2.761c0.717-1.177,1.487-1.738,2.408-1.688C22.945,3.165,23.969,4.188,24.174,4.648z M17.526,29.463 h-0.464l0,0c0,0-6.086,0-8.795,0c-0.408,0-0.613-0.102-0.668-0.157c-0.103-0.205-0.047-0.968,0.408-1.991l2.612-5.371l3.476,1.683 c0.104,0.056,0.205,0,0.205-0.149l-1.377-8.7c0-0.149-0.156-0.205-0.258-0.149L4.94,18.871c-0.104,0.051-0.104,0.152,0,0.255 l3.43,1.637l-2.612,5.372c-0.511,1.023-1.228,3.022-0.307,4.5c0.361,0.613,1.18,1.332,2.816,1.332c0.818,0,1.993,0,3.17,0l0,0h6.034 l0,0c0.718,0,1.282-0.561,1.282-1.276C18.804,30.021,18.189,29.463,17.526,29.463z"/></svg>