<svg xmlns="http://www.w3.org/2000/svg" xmlns:xlink="http://www.w3.org/1999/xlink" width="44px" height="36px" viewBox="0 0 44 36">
<linearGradient id="SVGID_1_" gradientUnits="userSpaceOnUse" x1="8.1665" y1="4.1665" x2="35.8341" y2="31.8341"><stop  offset="0" style="stop-color:#88C8EC"/><stop  offset="1" style="stop-color:#43A8DD"/></linearGradient><path fill="url(#SVGID_1_)" d="M36.002,9.092h-3.114V1.729c0-0.679-0.549-1.229-1.229-1.229H12.341c-0.679,0-1.229,0.55-1.229,1.229 v7.362H8c-1.931,0.005-3.495,1.57-3.5,3.5v13.133c0,0.682,0.551,1.232,1.232,1.232h5.379v7.313c0,0.679,0.55,1.229,1.229,1.229 h19.317c0.681,0,1.229-0.551,1.229-1.229v-7.313h5.376c0.684,0,1.236-0.553,1.236-1.235V12.588 C39.5,10.657,37.934,9.092,36.002,9.092z M31.333,33.945H12.667V21.132h18.667V33.945z M13.065,18.973v-7.113 c0.502-0.086,1.208-0.15,2.204-0.15c1.005,0,1.722,0.193,2.203,0.578c0.46,0.364,0.77,0.963,0.77,1.669 c0,0.706-0.235,1.305-0.663,1.711c-0.556,0.524-1.38,0.76-2.342,0.76c-0.214,0-0.406-0.011-0.557-0.032v2.578H13.065z  M19.278,18.939v-7.08c0.599-0.096,1.38-0.15,2.203-0.15c1.369,0,2.258,0.247,2.953,0.771c0.748,0.556,1.219,1.444,1.219,2.716 c0,1.38-0.503,2.332-1.198,2.92c-0.76,0.631-1.914,0.93-3.326,0.93C20.284,19.047,19.685,18.993,19.278,18.939z M30.946,14.747 v1.327h-2.589v2.899h-1.636v-7.209h4.406V13.1h-2.771v1.647H30.946z M31.333,9.092H12.667V2.056h18.667V9.092z M23.921,15.25 c0,1.722-0.963,2.535-2.439,2.524c-0.203,0-0.428,0-0.566-0.032v-4.717c0.139-0.032,0.375-0.064,0.738-0.064 C23.054,12.961,23.932,13.753,23.921,15.25z M15.225,15.175c-0.235,0-0.406-0.01-0.545-0.042v-2.128 c0.118-0.032,0.342-0.064,0.674-0.064c0.812,0,1.272,0.396,1.272,1.059C16.626,14.737,16.092,15.175,15.225,15.175z"/></svg>