<svg version="1.1" xmlns="http://www.w3.org/2000/svg" xmlns:a="http://ns.adobe.com/AdobeSVGViewerExtensions/3.0/" width="64px" height="52px" viewBox="0 0 64 52">
<linearGradient id="SVGID_1_" gradientUnits="userSpaceOnUse" x1="12.7749" y1="13.8745" x2="51.2642" y2="52.3638"><stop  offset="0" style="stop-color:#88C8EC"/><stop  offset="1" style="stop-color:#43A8DD"/><a:midPointStop  offset="0" style="stop-color:#88C8EC"/><a:midPointStop  offset="0.5" style="stop-color:#88C8EC"/><a:midPointStop  offset="1" style="stop-color:#43A8DD"/></linearGradient><path fill="url(#SVGID_1_)" d="M46.064,13.39l-2.805-0.468c-0.312-1.091-0.701-2.104-1.247-3.039l1.637-2.338 c0.312-0.467,0.312-1.013-0.078-1.402l-0.936-0.935l-0.935-0.936c-0.39-0.312-1.013-0.39-1.402-0.078l-2.338,1.715 c-1.013-0.546-1.948-1.013-3.039-1.247l-0.467-2.805C34.299,1.39,33.909,1,33.363,1h-2.805c-0.624,0-1.014,0.39-1.091,0.935L29,4.74 c-1.014,0.233-2.104,0.623-3.039,1.247l-2.338-1.637c-0.468-0.312-1.013-0.312-1.48,0.156l-0.935,0.935l-0.936,1.013 c-0.39,0.312-0.468,0.936-0.078,1.247l1.637,2.338c-0.546,1.013-1.013,2.025-1.247,3.039l-2.728,0.467 C17.39,13.701,17,14.091,17,14.637v2.805c0,0.546,0.312,1.013,0.856,1.091L20.662,19c0.312,1.091,0.701,2.104,1.247,3.039 l-1.637,2.338c-0.312,0.467-0.312,1.013,0.078,1.402l0.935,0.935l0.936,1.014c0.39,0.312,1.013,0.39,1.402,0.077l2.338-1.636 c1.013,0.545,2.025,1.013,3.039,1.247l0.468,2.727C29.623,30.61,30.013,31,30.559,31h2.883c0.545,0,1.014-0.312,1.091-0.857 L35,27.338c1.013-0.312,2.026-0.702,2.961-1.247l2.338,1.637c0.468,0.312,1.013,0.312,1.48-0.234l1.87-1.87 c0.312-0.39,0.39-1.013,0.077-1.402l-1.636-2.338c0.545-1.013,1.013-1.947,1.247-3.039l2.805-0.467 C46.61,18.221,47,17.831,47,17.286V14.48C46.922,13.935,46.61,13.468,46.064,13.39z M30.48,20.792l-2.26-2.26l-2.182-2.182 l2.182-2.26l2.182,2.182l5.221-5.064l2.26,2.182L30.48,20.792z M54,48.684C54,49.919,52.979,51,51.643,51H32H12.357 C11.021,51,10,49.919,10,48.684c0.078-7.49,0.235-11.66,5.657-13.591c2.278-0.85,4.085-1.699,5.578-2.395 C23.2,31.695,24.3,31,24.3,31h0.078c1.965,1.854,4.636,3.012,7.622,3.012c2.985,0,5.735-1.158,7.621-3.012H39.7 c0,0,1.1,0.695,3.063,1.698c1.415,0.695,3.301,1.545,5.579,2.395C53.764,37.023,53.921,41.193,54,48.684z"/></svg>
