<svg version="1.1" xmlns="http://www.w3.org/2000/svg" xmlns:a="http://ns.adobe.com/AdobeSVGViewerExtensions/3.0/" width="64px" height="52px" viewBox="0 0 64 52">
<linearGradient id="SVGID_1_" gradientUnits="userSpaceOnUse" x1="21.2646" y1="14.748" x2="55.3273" y2="48.8107"><stop  offset="0" style="stop-color:#88C8EC"/><stop  offset="1" style="stop-color:#43A8DD"/><a:midPointStop  offset="0" style="stop-color:#88C8EC"/><a:midPointStop  offset="0.5" style="stop-color:#88C8EC"/><a:midPointStop  offset="1" style="stop-color:#43A8DD"/></linearGradient><path fill="url(#SVGID_1_)" d="M10.25,35.239c-0.803,0-1.607-0.076-2.25-0.381v13.354c0,1.297,1.044,2.289,2.41,2.289h4.179 c1.366,0,2.411-0.992,2.411-2.289V31.5l-2.089,1.984C13.625,34.628,11.938,35.239,10.25,35.239z M29.759,29.564 c0.081,0.076,0.161,0.151,0.241,0.227v19.198c0,0.832-0.724,1.512-1.607,1.512h-4.982C22.044,50.5,21,49.517,21,48.232V27.674 l3.375-3.174L29.759,29.564z M37.821,29.451L42,25.5v23.48c0,0.836-0.723,1.52-1.607,1.52h-4.982C34.044,50.5,33,49.512,33,48.22 V31.275C34.688,31.275,36.455,30.667,37.821,29.451z M53.553,18.82c0.482,0,0.964-0.078,1.447-0.155V48.17 c0,1.32-1.045,2.33-2.411,2.33h-4.982C46.723,50.5,46,49.801,46,48.947v-28.03l3.536-3.417C50.661,18.354,52.107,18.82,53.553,18.82 z M56.953,4.165l-1.533,9.471c-0.077,0.847-0.69,1.617-1.533,1.848c-0.23,0-0.46,0.077-0.689,0.077c-0.614,0-1.227-0.308-1.61-0.693 l-2.222-2.233L35.341,26.726c-0.92,1.001-2.529,1.001-3.525,0l-7.741-7.777L12.272,30.807c-0.46,0.462-1.15,0.693-1.763,0.693 s-1.303-0.231-1.763-0.693c-0.996-0.924-0.996-2.541,0-3.542l13.642-13.629c0.92-1.001,2.529-1.001,3.526,0l7.664,7.7L45.841,9.093 L43.618,6.86c-0.613-0.616-0.767-1.463-0.537-2.31c0.307-0.847,0.997-1.386,1.839-1.54l9.426-1.463 c0.767-0.154,1.457,0.077,1.993,0.616C56.876,2.625,57.106,3.395,56.953,4.165z"/></svg>
