<svg version="1.1" xmlns="http://www.w3.org/2000/svg" xmlns:a="http://ns.adobe.com/AdobeSVGViewerExtensions/3.0/" width="44px" height="36px" viewBox="0 0 44 36">
<linearGradient id="SVGID_1_" gradientUnits="userSpaceOnUse" x1="6.8989" y1="7.7134" x2="37.0984" y2="37.9128"><stop  offset="0" style="stop-color:#88C8EC"/><stop  offset="1" style="stop-color:#43A8DD"/><a:midPointStop  offset="0" style="stop-color:#88C8EC"/><a:midPointStop  offset="0.5" style="stop-color:#88C8EC"/><a:midPointStop  offset="1" style="stop-color:#43A8DD"/></linearGradient><path fill="url(#SVGID_1_)" d="M10.685,19.287c-4.559-1.215-9.208,1.547-10.398,6.025c-1.205,4.528,1.5,9.194,6.029,10.4 c4.53,1.207,9.193-1.497,10.398-6.025C17.92,25.158,15.197,20.488,10.685,19.287z M14.495,29.1c-0.882,3.305-4.29,5.269-7.592,4.391 c-3.301-0.873-5.279-4.278-4.396-7.589c0.879-3.297,4.281-5.273,7.581-4.399C13.394,22.382,15.379,25.783,14.495,29.1z  M13.832,28.292c-0.709,2.661-3.454,4.251-6.122,3.538c-2.672-0.707-4.248-3.463-3.542-6.116C4.764,23.48,6.794,22,9.005,22 c0.42,0,0.849,0.054,1.274,0.167C12.98,22.885,14.534,25.658,13.832,28.292z M17.993,10.604C17.885,11.769,18.384,6.383,16.938,22 c-1.269-2.196-3.319-3.912-5.86-4.626C8.612,16.681,6.018,17.072,4,18.195L8.422,8.083c1.049-2.397,3.553-3.552,5.854-2.907 C16.445,5.786,18.125,7.95,17.993,10.604z M12,3.89l0.315-1.16c0.341-1.258,1.657-1.979,2.913-1.652 c0.618,0.16,1.132,0.544,1.45,1.082c0.697,1.176,0.065,2.141-0.046,2.84c-0.558-0.407-1.333-0.791-2.081-0.985 C13.809,3.822,12.888,3.749,12,3.89z M27.08,3.932c-0.332-1.22,0.391-2.515,1.693-2.853c1.264-0.331,2.572,0.405,2.911,1.652 L32,3.89c-0.783-0.125-1.729-0.088-2.55,0.125C28.672,4.218,27.927,4.593,27.37,5L27.08,3.932z M24.5,18l-5-0.175L20.084,11 l3.919,0.08C23.969,10.615,24.494,17.919,24.5,18z M43.714,25.265c-2.858-10.829-19.252-6.485-16.377,4.395 c1.201,4.549,5.851,7.262,10.366,6.052C42.219,34.5,44.915,29.813,43.714,25.265z M37.113,33.48 c-3.291,0.887-6.688-1.091-7.567-4.41c-0.878-3.319,1.092-6.743,4.392-7.63c3.303-0.881,6.693,1.104,7.561,4.42 C42.375,29.166,40.432,32.6,37.113,33.48z M24.839,19.191L25,21l-6-0.33L19.148,19L24.839,19.191z M27.065,21.997 c-0.108-1.161,0.391,4.206-1.056-11.354c-0.146-2.617,1.47-4.834,3.716-5.466c2.332-0.656,4.829,0.565,5.854,2.906L40,18.193 c-2.261-1.259-4.816-1.458-7.077-0.822C30.362,18.091,28.32,19.823,27.065,21.997z M39.83,25.713 c0.71,2.669-0.874,5.413-3.541,6.116c0,0-0.001,0-0.002,0.001c-2.662,0.711-5.409-0.875-6.119-3.539 c-0.709-2.665,0.884-5.412,3.551-6.125C34.147,22.054,34.577,22,35,22C37.214,22,39.24,23.479,39.83,25.713z"/></svg>
