<svg version="1.1" xmlns="http://www.w3.org/2000/svg" xmlns:a="http://ns.adobe.com/AdobeSVGViewerExtensions/3.0/" width="64px" height="52px" viewBox="0 0 64 52">
<linearGradient id="SVGID_1_" gradientUnits="userSpaceOnUse" x1="5.5601" y1="26" x2="58.4395" y2="26"><stop  offset="0" style="stop-color:#88C8EC"/><stop  offset="1" style="stop-color:#43A8DD"/></linearGradient><path fill="url(#SVGID_1_)" d="M22.841,5.047H10.382c-2.68,0-4.822,2.144-4.822,4.822v12.525c0,2.679,2.143,4.822,4.822,4.822 h12.523c2.682,0,4.823-2.143,4.823-4.822V9.87C27.662,7.191,25.52,5.047,22.841,5.047z M24.982,22.33 c0,1.138-0.938,2.141-2.142,2.141H10.382c-1.139,0-2.144-0.938-2.144-2.141V9.87c0-1.138,0.938-2.143,2.144-2.143h12.523 c1.139,0,2.145,0.938,2.145,2.143v12.46H24.982z M56.583,8.75l-9.787-7.707c-2.106-1.658-5.118-1.301-6.774,0.804l-7.747,9.84 c-1.661,2.106-1.301,5.116,0.806,6.773l9.84,7.751c2.104,1.655,5.113,1.3,6.771-0.807l7.75-9.84 C59.046,13.418,58.687,10.407,56.583,8.75z M47.574,23.652c-0.704,0.893-2.061,1.104-3.008,0.356l-9.79-7.706 c-0.892-0.702-1.102-2.062-0.358-3.008l7.711-9.789c0.705-0.895,2.061-1.104,3.008-0.358l9.842,7.75 c0.895,0.703,1.104,2.063,0.355,3.009l-7.707,9.789L47.574,23.652z M47.618,29.83H35.164c-2.682,0-4.824,2.141-4.824,4.824v12.524 c0,2.676,2.142,4.821,4.824,4.821h12.524c2.676,0,4.821-2.146,4.821-4.821V34.654C52.443,31.971,50.301,29.83,47.618,29.83z  M49.764,47.108c0,1.141-0.937,2.144-2.146,2.144H35.164c-1.139,0-2.144-0.937-2.144-2.144V34.654c0-1.141,0.935-2.145,2.144-2.145 h12.524c1.139,0,2.145,0.934,2.145,2.145v12.454H49.764z M22.841,29.83H10.382c-2.68,0-4.822,2.141-4.822,4.824v12.524 C5.56,49.854,7.703,52,10.382,52h12.523c2.682,0,4.823-2.146,4.823-4.821V34.654C27.662,31.971,25.52,29.83,22.841,29.83z  M24.982,47.108c0,1.141-0.938,2.144-2.142,2.144H10.382c-1.139,0-2.144-0.937-2.144-2.144V34.654c0-1.141,0.938-2.145,2.144-2.145 h12.523c1.139,0,2.145,0.934,2.145,2.145v12.454H24.982z"/></svg>