<svg version="1.1" xmlns="http://www.w3.org/2000/svg" xmlns:a="http://ns.adobe.com/AdobeSVGViewerExtensions/3.0/" width="18px" height="18px" viewBox="0 0 18 18"><linearGradient id="SVGID_1_" gradientUnits="userSpaceOnUse" x1="-0.3447" y1="0.7949" x2="12.9529" y2="14.0925"><stop  offset="0" style="stop-color:#86C8EC"/><stop  offset="1" style="stop-color:#42A8DE"/><a:midPointStop  offset="0" style="stop-color:#86C8EC"/><a:midPointStop  offset="0.5" style="stop-color:#86C8EC"/><a:midPointStop  offset="1" style="stop-color:#42A8DE"/></linearGradient><path fill="url(#SVGID_1_)" d="M17.914,8.086l-3.879,3.833c-0.17,0.169-0.484,0.057-0.484-0.197V9.665 c0-0.169-0.113-0.282-0.285-0.282h-2.48c-0.172,0-0.285-0.112-0.285-0.281V6.649c0-0.169,0.113-0.282,0.285-0.282h2.48 c0.172,0,0.285-0.113,0.285-0.282V4.028c0-0.254,0.314-0.367,0.484-0.197l3.879,3.861C18.027,7.776,18.027,7.974,17.914,8.086z  M10.15,1.545H1.542L7.29,4.438c0.251,0.14,0.42,0.393,0.42,0.702v8.51c0,0.169,0.14,0.281,0.28,0.281h2.16 c0.168,0,0.279-0.141,0.279-0.281v-2.021c0-0.422,0.336-0.787,0.785-0.787l0,0c0.42,0,0.785,0.337,0.785,0.787v3.089 c0,0.421-0.336,0.786-0.785,0.786H8.019c-0.169,0-0.28,0.141-0.28,0.281v1.433c0,0.59-0.646,0.983-1.178,0.674l-6.169-3.707 C0.141,14.016,0,13.764,0,13.482V0.787C0,0.337,0.336,0,0.785,0h10.43C11.635,0,12,0.337,12,0.787v3.089 c0,0.421-0.336,0.787-0.785,0.787l0,0c-0.42,0-0.785-0.337-0.785-0.787v-2.05C10.459,1.686,10.318,1.545,10.15,1.545z"/></svg>