<svg xmlns="http://www.w3.org/2000/svg" xmlns:xlink="http://www.w3.org/1999/xlink" width="18px" height="20px" viewBox="0 0 18 20"><path fill="#31A3E0" d="M1.725,19.145h14.549c0.952,0,1.726-0.772,1.726-1.726V8.18c-0.001-0.144-0.064-0.281-0.176-0.374 l-2.408-2.034V2.225c0-0.758-0.612-1.369-1.368-1.369h-10c-0.756,0-1.37,0.611-1.37,1.369v3.472L0.174,7.806 C0.063,7.898,0,8.036,0,8.18v9.239C0,18.372,0.772,19.145,1.725,19.145z M16.273,18.168H1.725c-0.413-0.002-0.747-0.336-0.747-0.749 V9.113l5.576,3.944l-3.958,3.029c-0.216,0.16-0.26,0.467-0.098,0.684c0.163,0.216,0.469,0.26,0.685,0.098l4.209-3.221l1.37,0.979 c0.169,0.121,0.396,0.121,0.564,0l1.371-0.979l4.211,3.215c0.216,0.162,0.521,0.119,0.684-0.098 c0.163-0.216,0.119-0.523-0.097-0.686l-3.952-3.021l5.479-3.874v8.237C17.021,17.832,16.687,18.166,16.273,18.168L16.273,18.168z  M16.747,8.178l-1.331,0.94V7.052L16.747,8.178z M4.048,1.834H14.05c0.216,0,0.391,0.177,0.391,0.393v7.579l-5.393,3.816 l-5.39-3.816V2.225C3.66,2.011,3.833,1.836,4.048,1.834z M2.678,9.118L1.293,8.142l1.385-1.174V9.118z M9,11.11h0.125 c0.271,0,0.489-0.219,0.489-0.488c0-0.271-0.219-0.488-0.489-0.488H9c-1.722,0-3.119-1.398-3.119-3.121 c0-1.721,1.396-3.118,3.119-3.118s3.119,1.397,3.119,3.118V7.85c-0.018,0.301-0.277,0.529-0.579,0.512 c-0.275-0.016-0.494-0.235-0.51-0.512V7.013c0.007-1.123-0.898-2.039-2.022-2.048C7.883,4.958,6.966,5.863,6.959,6.986 C6.951,8.111,7.856,9.028,8.98,9.034c0.458,0.004,0.904-0.147,1.267-0.431c0.41,0.734,1.338,0.997,2.069,0.586 c0.486-0.271,0.785-0.784,0.779-1.34V7.013c0-2.262-1.833-4.096-4.096-4.096c-2.262,0-4.097,1.834-4.097,4.096 C4.902,9.276,6.737,11.11,9,11.11z M9,8.063c-0.581,0-1.05-0.469-1.05-1.051c0-0.58,0.47-1.049,1.05-1.049s1.05,0.469,1.05,1.049 l0,0C10.05,7.595,9.58,8.063,9,8.063z"/></svg>