<svg xmlns="http://www.w3.org/2000/svg" xmlns:xlink="http://www.w3.org/1999/xlink" width="22px" height="22px" viewBox="0 0 22 22">
<linearGradient id="SVGID_1_" gradientUnits="userSpaceOnUse" x1="3.2236" y1="3.2227" x2="21.4641" y2="21.4631"><stop  offset="0" style="stop-color:#88C8EC"/><stop  offset="1" style="stop-color:#43A8DD"/></linearGradient><path fill="url(#SVGID_1_)" d="M9.998,20.001c0,1.103,0.896,1.999,1.999,1.999c0.655,0,1.266-0.32,1.641-0.854l2.024-2.891 l3.207,3.208c0.358,0.357,0.828,0.536,1.297,0.536s0.938-0.179,1.297-0.536c0.715-0.714,0.715-1.879,0-2.593l-3.515-3.515 l2.021-2.022h0.696c0.117,0,0.226-0.062,0.286-0.163l0.999-1.666c0.079-0.13,0.058-0.299-0.05-0.407l-0.999-0.999 c-0.108-0.107-0.277-0.129-0.408-0.05l-1.666,0.999c-0.102,0.06-0.162,0.169-0.162,0.286v0.695l-2.023,2.022l-0.358-0.359 c0.209-1.279-0.396-2.597-1.511-3.254c-1.005-0.591-2.248-0.584-3.247,0.02c-0.142,0.087-0.227,0.238-0.225,0.404 c0.001,0.168,0.088,0.316,0.233,0.4l1.303,0.752l-0.006,0.959l-0.829,0.485l-1.302-0.752c-0.146-0.084-0.317-0.085-0.464-0.003 c-0.145,0.082-0.234,0.231-0.236,0.398c-0.023,1.156,0.582,2.231,1.58,2.807c0.642,0.37,1.388,0.504,2.114,0.379l0.048,0.05 l-2.891,2.023C10.318,18.735,9.998,19.347,9.998,20.001z M16.171,14.522l-0.588,0.59l-0.349-0.35c-0.13-0.129-0.342-0.129-0.472,0 l-0.64,0.642c-0.128,0.083-0.264,0.149-0.409,0.2c-0.615,0.138-1.254,0.041-1.8-0.273c-0.686-0.396-1.137-1.091-1.23-1.865 l1.152,0.665c0.104,0.06,0.231,0.06,0.335-0.001l1.162-0.677c0.104-0.06,0.164-0.167,0.164-0.285l0.008-1.345 c0-0.12-0.064-0.229-0.167-0.29l-1.154-0.665c0.314-0.136,0.649-0.202,0.984-0.202c0.438,0,0.876,0.114,1.267,0.346 c0.924,0.543,1.402,1.661,1.162,2.717c-0.025,0.11,0.01,0.227,0.091,0.308L16.171,14.522z M16.263,16.099L15.9,15.735l3.334-3.333 c0.063-0.064,0.099-0.147,0.099-0.236v-0.645l1.28-0.769l0.633,0.633l-0.769,1.279h-0.645c-0.089,0-0.173,0.035-0.236,0.099 L16.263,16.099z M16.347,17.998c0.083-0.003,0.162-0.036,0.221-0.095l0.668-0.667c0.129-0.131,0.129-0.342,0-0.472l-0.349-0.35 l0.59-0.587l3.514,3.514c0.455,0.454,0.455,1.195,0,1.649c-0.454,0.454-1.195,0.455-1.648,0L16.347,17.998z M10.664,20.001 c0-0.436,0.214-0.844,0.57-1.095l3.289-2.301c0.088-0.062,0.144-0.164,0.144-0.271v-0.528l0.331-0.335l1.53,1.53l-0.335,0.331 h-0.528c-0.107,0-0.211,0.056-0.271,0.144l-2.302,3.288c-0.25,0.356-0.659,0.57-1.095,0.57 C11.263,21.334,10.664,20.735,10.664,20.001z M8.443,19.297c-0.674-0.206-1.316-0.468-1.914-0.824l-1.562,1.23 c-0.26,0.211-0.629,0.189-0.865-0.047l-1.758-1.758c-0.236-0.236-0.258-0.605-0.045-0.865l1.229-1.561 c-0.434-0.732-0.758-1.525-0.971-2.351l-1.975-0.231c-0.326-0.039-0.581-0.32-0.581-0.646V9.756c0-0.326,0.255-0.607,0.581-0.646 l1.975-0.232C2.77,8.053,3.094,7.26,3.527,6.527L2.299,4.967c-0.213-0.26-0.191-0.629,0.045-0.865l1.758-1.758 c0.236-0.236,0.605-0.258,0.865-0.047l1.562,1.23c0.73-0.436,1.512-0.76,2.361-0.971L9.109,0.58C9.15,0.254,9.43,0,9.758,0h2.486 c0.329,0,0.608,0.254,0.649,0.58l0.219,1.977c0.836,0.211,1.629,0.535,2.361,0.971l1.562-1.23c0.258-0.211,0.627-0.189,0.863,0.047 l1.76,1.758c0.236,0.236,0.258,0.605,0.045,0.865l-1.229,1.561c0.421,0.712,0.734,1.481,0.946,2.28 c-0.423,0.137-0.838,0.286-1.244,0.448c-0.209-0.859-0.558-1.668-1.054-2.404c-0.154-0.236-0.148-0.555,0.025-0.773l1.162-1.463 l-0.926-0.937l-1.461,1.173c-0.219,0.176-0.539,0.18-0.775,0.025c-0.834-0.561-1.76-0.945-2.753-1.139 c-0.28-0.047-0.494-0.281-0.533-0.562L11.65,1.311h-1.299l-0.213,1.865C10.1,3.457,9.887,3.691,9.605,3.738 C8.613,3.932,7.688,4.316,6.854,4.877c-0.238,0.168-0.557,0.15-0.775-0.025L4.617,3.679L3.691,4.615l1.162,1.463 c0.174,0.219,0.18,0.537,0.025,0.773C4.316,7.688,3.932,8.611,3.74,9.604C3.691,9.885,3.457,10.1,3.176,10.137l-1.865,0.201v1.324 l1.865,0.201c0.281,0.037,0.516,0.252,0.564,0.533c0.191,0.992,0.576,1.916,1.139,2.752c0.154,0.236,0.148,0.555-0.025,0.773 l-1.162,1.463l0.926,0.937l1.461-1.173c0.219-0.176,0.537-0.18,0.775-0.025c0.623,0.419,1.299,0.739,2.014,0.956 C8.706,18.478,8.566,18.884,8.443,19.297z"/></svg>