<svg version="1.1" xmlns="http://www.w3.org/2000/svg" xmlns:a="http://ns.adobe.com/AdobeSVGViewerExtensions/3.0/" width="18px" height="20px" viewBox="0 0 18 20">
<path fill="#FFFFFF" d="M16.615,20C17.372,20,18,19.353,18,18.571V4.286c0-0.781-0.628-1.429-1.385-1.429h-1.384V1.786 C15.231,0.804,14.452,0,13.5,0h-0.692c-0.952,0-1.731,0.804-1.731,1.786v1.071H6.923V1.786C6.923,0.804,6.144,0,5.192,0H4.5 c-0.952,0-1.73,0.804-1.73,1.786v1.071H1.384C0.627,2.857,0,3.504,0,4.286v14.286C0,19.353,0.627,20,1.384,20H16.615z M5.15,5h-0.5 C4.517,5,4.4,4.83,4.4,4.636V1.364C4.4,1.17,4.517,1,4.65,1h0.5C5.283,1,5.4,1.17,5.4,1.364v3.272C5.4,4.83,5.283,5,5.15,5z  M13.35,5h-0.5c-0.132,0-0.25-0.17-0.25-0.364V1.364C12.6,1.17,12.717,1,12.85,1h0.5c0.133,0,0.25,0.17,0.25,0.364v3.272 C13.6,4.83,13.482,5,13.35,5z M4,10H1V7h3V10z M8,10H5V7h3V10z M12,10H9V7h3V10z M16,10h-3V7h3V10z M4,15H1v-4h3V15z M8,15H5v-4h3 V15z M12,15H9v-4h3V15z M16,15h-3v-4h3V15z M4,19H1v-3h3V19z M8,19H5v-3h3V19z M12,19H9v-3h3V19z M16,19h-3v-3h3V19z"/></svg>
