<svg version="1.1" xmlns="http://www.w3.org/2000/svg" xmlns:a="http://ns.adobe.com/AdobeSVGViewerExtensions/3.0/" width="64px" height="52px" viewBox="0 0 64 52">
<linearGradient id="SVGID_1_" gradientUnits="userSpaceOnUse" x1="7.54" y1="2.5322" x2="46.588" y2="41.5802"><stop  offset="0" style="stop-color:#88C8EC"/><stop  offset="1" style="stop-color:#43A8DD"/><a:midPointStop  offset="0" style="stop-color:#88C8EC"/><a:midPointStop  offset="0.5" style="stop-color:#88C8EC"/><a:midPointStop  offset="1" style="stop-color:#43A8DD"/></linearGradient><path fill="url(#SVGID_1_)" d="M56.389,22.467c-0.074,0.18-0.183,0.344-0.32,0.481l-4.309,4.306 c-0.372,0.371-0.914,0.517-1.423,0.381s-0.906-0.532-1.042-1.041c-0.137-0.508,0.009-1.05,0.381-1.422l1.795-1.792H36.357 c-0.814,0-1.474-0.659-1.474-1.473s0.659-1.473,1.474-1.473h15.113l-1.795-1.792c-0.372-0.372-0.518-0.914-0.381-1.422 c0.136-0.508,0.533-0.905,1.042-1.041s1.051,0.009,1.423,0.381l4.308,4.308c0.138,0.138,0.247,0.302,0.32,0.481l0.007,0.022 c0.141,0.345,0.141,0.729,0,1.074L56.389,22.467z M45.467,29.269c-0.814,0-1.474,0.659-1.474,1.472v8.657 c0,0.813-0.66,1.473-1.474,1.473H31.96V13.182c-0.005-1.727-1.013-3.293-2.583-4.015L15.742,2.944h26.778 c0.813,0,1.474,0.659,1.474,1.473v8.656c0,0.813,0.659,1.473,1.474,1.473c0.813,0,1.473-0.659,1.473-1.473V4.417 C46.938,1.979,44.96,0.004,42.521,0h-30.6C9.568-0.017,7.622,1.824,7.51,4.172C7.5,4.289,7.5,4.378,7.5,4.417v34.98 c-0.001,0.085,0.002,0.171,0.01,0.255c0.01,0.175,0.029,0.349,0.06,0.521c0.02,0.108,0.039,0.216,0.068,0.324v0.01 c0.417,1.981,1.752,3.646,3.596,4.485l14.47,6.605c0.576,0.263,1.203,0.4,1.837,0.402c0.847,0.001,1.677-0.245,2.387-0.707 c1.268-0.812,2.034-2.215,2.033-3.72v-3.757h10.56c2.441,0,4.42-1.978,4.42-4.417v-8.657c0-0.812-0.659-1.472-1.473-1.472V29.269z" /></svg>
