<svg version="1.1" xmlns="http://www.w3.org/2000/svg" xmlns:a="http://ns.adobe.com/AdobeSVGViewerExtensions/3.0/" width="65px" height="52px" viewBox="0 0 65 52">
<linearGradient id="SVGID_1_" gradientUnits="userSpaceOnUse" x1="18.7217" y1="12.2715" x2="46.1842" y2="39.734"><stop  offset="0" style="stop-color:#88C8EC"/><stop  offset="1" style="stop-color:#43A8DD"/><a:midPointStop  offset="0" style="stop-color:#88C8EC"/><a:midPointStop  offset="0.5" style="stop-color:#88C8EC"/><a:midPointStop  offset="1" style="stop-color:#43A8DD"/></linearGradient><path fill="url(#SVGID_1_)" d="M40.415,45.4c3.006-2.951,1.156-7.946-2.929-8.4c-0.924,1.816-2.852,3.027-5.086,3.027 S28.238,38.816,27.313,37c-4.084,0.454-5.934,5.449-2.928,8.4l4.084,4.01c2.158,2.119,5.626,2.119,7.784,0L40.415,45.4z M28.5,34 c0-2.209,1.791-4,4-4s4,1.791,4,4s-1.791,4-4,4S28.5,36.209,28.5,34z M32.44,11.974c-2.244,0-4.179,1.21-5.107,3.027 c-4.102-0.454-5.959-5.449-2.941-8.4l4.101-4.011c2.167-2.119,5.647-2.119,7.815,0l4.101,4.011c3.018,2.951,1.161,7.946-2.94,8.4 C36.539,13.184,34.604,11.974,32.44,11.974z M28.5,18c0-2.209,1.791-4,4-4s4,1.791,4,4c0,2.209-1.791,4-4,4S28.5,20.209,28.5,18z  M9.089,22.223l4.011-4.239c2.951-3.005,7.946-1.156,8.4,2.929c-1.816,1.002-3.027,2.852-3.027,5.086s1.211,4.163,3.027,5.086 c-0.454,4.085-5.449,5.935-8.4,2.93L9.089,29.93C6.97,27.85,6.97,24.304,9.089,22.223z M20.5,26c0-2.209,1.791-4,4-4s4,1.791,4,4 c0,2.208-1.791,4-4,4S20.5,28.209,20.5,26z M51.9,34.016c-2.952,3.005-7.946,1.155-8.4-2.93c1.816-0.924,3.027-2.852,3.027-5.085 c0-2.235-1.211-4.162-3.027-5.086c0.454-4.085,5.448-5.934,8.4-2.929l4.01,4.084c2.119,2.158,2.119,5.625,0,7.784L51.9,34.016z  M36.5,26c0-2.209,1.791-4,4-4s4,1.791,4,4c0,2.208-1.791,4-4,4S36.5,28.209,36.5,26z"/></svg>