<svg version="1.1" xmlns="http://www.w3.org/2000/svg" xmlns:a="http://ns.adobe.com/AdobeSVGViewerExtensions/3.0/" width="64px" height="52px" viewBox="0 0 64 52"><linearGradient id="SVGID_1_" gradientUnits="userSpaceOnUse" x1="8.5273" y1="26" x2="55.4746" y2="26"><stop  offset="0" style="stop-color:#88C8EC"/><stop  offset="1" style="stop-color:#43A8DD"/></linearGradient><path fill="url(#SVGID_1_)" d="M35.133,30.423c0,0.352,0.283,0.635,0.634,0.635h16.347c0.351,0,0.636-0.283,0.636-0.635V25.13 c0-0.351-0.285-0.634-0.636-0.634H35.767c-0.351,0-0.634,0.284-0.634,0.634V30.423z M36.401,25.764H51.48v4.026H36.401V25.764z  M39.658,32.509h-3.892c-0.351,0-0.634,0.284-0.634,0.635v3.894c0,0.35,0.283,0.635,0.634,0.635h3.892 c0.351,0,0.633-0.285,0.633-0.635v-3.894C40.291,32.793,40.009,32.509,39.658,32.509L39.658,32.509z M39.023,36.402h-2.622v-2.625 h2.622V36.402z M45.887,32.509h-3.894c-0.35,0-0.635,0.284-0.635,0.635v3.894c0,0.35,0.285,0.635,0.635,0.635h3.894 c0.351,0,0.636-0.285,0.636-0.635v-3.894C46.522,32.793,46.237,32.509,45.887,32.509z M45.253,36.402h-2.626v-2.625h2.626V36.402z  M52.113,32.509h-3.892c-0.348,0-0.633,0.284-0.633,0.635v3.894c0,0.35,0.285,0.635,0.633,0.635h3.892 c0.351,0,0.636-0.285,0.636-0.635v-3.894C52.749,32.793,52.464,32.509,52.113,32.509z M51.48,36.402h-2.624v-2.625h2.624V36.402z  M39.658,38.738h-3.892c-0.351,0-0.634,0.283-0.634,0.634v3.892c0,0.35,0.283,0.633,0.634,0.633h3.892 c0.351,0,0.633-0.283,0.633-0.633v-3.892C40.291,39.021,40.009,38.738,39.658,38.738L39.658,38.738z M39.023,42.629h-2.622v-2.622 h2.622V42.629z M45.887,38.738h-3.894c-0.35,0-0.635,0.283-0.635,0.634v3.892c0,0.35,0.285,0.633,0.635,0.633h3.894 c0.351,0,0.636-0.283,0.636-0.633v-3.892C46.522,39.021,46.237,38.738,45.887,38.738z M45.253,42.629h-2.626v-2.622h2.626V42.629z  M39.658,44.964h-3.892c-0.351,0-0.634,0.284-0.634,0.636v3.895c0,0.351,0.283,0.633,0.634,0.633h3.892 c0.351,0,0.633-0.282,0.633-0.633V45.6C40.291,45.248,40.009,44.964,39.658,44.964L39.658,44.964z M39.023,48.859h-2.622v-2.627 h2.622V48.859z M45.887,44.964h-3.894c-0.35,0-0.635,0.284-0.635,0.636v3.895c0,0.351,0.285,0.633,0.635,0.633h3.894 c0.351,0,0.636-0.282,0.636-0.633V45.6C46.522,45.248,46.237,44.964,45.887,44.964z M45.253,48.859h-2.626v-2.627h2.626V48.859z  M52.113,38.738h-3.892c-0.348,0-0.633,0.283-0.633,0.634v10.122c0,0.351,0.285,0.633,0.633,0.633h3.892 c0.351,0,0.636-0.282,0.636-0.633V39.372C52.749,39.021,52.464,38.738,52.113,38.738z M51.48,48.859h-2.624v-8.853h2.624V48.859z  M11.487,46.809h20.919v2.443c0.002,1.518,1.232,2.746,2.749,2.748h17.571c1.517-0.002,2.745-1.23,2.748-2.748V24.674 c-0.003-1.517-1.231-2.746-2.748-2.747h-8.048V5.867c-0.004-1.634-1.325-2.958-2.961-2.96h-7.563 C33.847,1.225,32.382,0.002,30.672,0h-8.14c-1.71-0.001-3.177,1.223-3.483,2.906h-7.562c-1.633,0.003-2.958,1.327-2.959,2.96v37.979 C8.529,45.482,9.854,46.806,11.487,46.809z M54.205,24.674v24.578c0,0.816-0.663,1.479-1.479,1.48H35.155 c-0.816-0.002-1.48-0.664-1.48-1.48V24.674c0-0.816,0.664-1.478,1.48-1.48h17.571C53.542,23.196,54.205,23.858,54.205,24.674z  M20.925,1.934c0.426-0.427,1.004-0.667,1.607-0.665h8.14c1.254,0,2.272,1.018,2.272,2.272c0,1.256-1.018,2.273-2.272,2.273l0,0 h-8.14c-1.254,0-2.272-1.018-2.271-2.274C20.262,2.938,20.5,2.36,20.925,1.934z M9.795,5.867c0-0.935,0.757-1.69,1.691-1.691h7.562 c0.002,0.015,0.006,0.029,0.009,0.043c0.004,0.023,0.009,0.046,0.014,0.069c0.007,0.032,0.015,0.064,0.023,0.097 c0.005,0.023,0.01,0.043,0.016,0.065c0.01,0.034,0.019,0.066,0.027,0.099c0.008,0.021,0.013,0.042,0.02,0.062 c0.011,0.035,0.023,0.07,0.036,0.105c0.005,0.016,0.01,0.034,0.017,0.05c0.019,0.052,0.039,0.103,0.06,0.152 c0.002,0.004,0.004,0.007,0.005,0.01c0.021,0.047,0.04,0.093,0.063,0.138c0.008,0.016,0.017,0.034,0.025,0.049 c0.016,0.033,0.031,0.064,0.048,0.096c0.011,0.02,0.021,0.039,0.031,0.056c0.017,0.03,0.033,0.058,0.049,0.085 c0.012,0.019,0.024,0.039,0.037,0.057c0.015,0.027,0.033,0.054,0.051,0.081c0.012,0.019,0.025,0.039,0.038,0.056 c0.018,0.026,0.036,0.053,0.055,0.079c0.014,0.018,0.026,0.036,0.041,0.054c0.02,0.025,0.04,0.051,0.06,0.076 c0.014,0.017,0.027,0.034,0.041,0.051c0.023,0.027,0.046,0.053,0.07,0.08c0.011,0.013,0.024,0.028,0.036,0.041 c0.036,0.04,0.073,0.079,0.109,0.117l0.01,0.008c0.035,0.036,0.071,0.069,0.107,0.103c0.015,0.013,0.028,0.024,0.043,0.038 c0.026,0.023,0.053,0.046,0.079,0.069c0.018,0.014,0.034,0.028,0.05,0.041c0.025,0.02,0.051,0.041,0.076,0.061 c0.018,0.012,0.036,0.027,0.055,0.04c0.026,0.018,0.052,0.037,0.077,0.054c0.019,0.014,0.039,0.026,0.056,0.04 c0.027,0.016,0.053,0.034,0.081,0.051c0.019,0.011,0.039,0.023,0.059,0.035c0.028,0.016,0.056,0.033,0.084,0.049 c0.019,0.011,0.039,0.021,0.056,0.031c0.034,0.017,0.064,0.034,0.097,0.049c0.016,0.009,0.033,0.017,0.049,0.024 c0.049,0.024,0.098,0.046,0.148,0.068l0.005,0.002c0.048,0.021,0.097,0.04,0.147,0.058c0.016,0.006,0.034,0.012,0.052,0.019 c0.034,0.012,0.069,0.023,0.103,0.035c0.022,0.006,0.042,0.013,0.063,0.019c0.031,0.011,0.064,0.02,0.097,0.028 c0.022,0.005,0.044,0.011,0.066,0.017c0.033,0.008,0.063,0.016,0.097,0.021c0.023,0.005,0.045,0.01,0.068,0.015 c0.034,0.006,0.066,0.012,0.099,0.018c0.022,0.002,0.045,0.007,0.068,0.01c0.033,0.006,0.068,0.01,0.102,0.013 c0.023,0.002,0.044,0.005,0.066,0.007c0.038,0.003,0.076,0.006,0.114,0.009c0.02,0.001,0.039,0.003,0.056,0.004 c0.059,0.002,0.115,0.004,0.172,0.004h8.141c0.939,0.003,1.84-0.372,2.504-1.038c0.056-0.058,0.111-0.117,0.162-0.178 c0.016-0.016,0.026-0.028,0.039-0.043c0.052-0.061,0.1-0.121,0.148-0.185c0.005-0.007,0.01-0.016,0.015-0.022 c0.042-0.059,0.083-0.117,0.122-0.179c0.009-0.015,0.018-0.03,0.026-0.046c0.041-0.065,0.082-0.133,0.118-0.202 c0.006-0.011,0.011-0.024,0.018-0.036c0.033-0.061,0.062-0.123,0.089-0.186c0.006-0.015,0.014-0.029,0.02-0.044 c0.031-0.071,0.057-0.144,0.083-0.217c0.005-0.015,0.011-0.03,0.015-0.045c0.021-0.065,0.042-0.131,0.06-0.197 c0.004-0.014,0.007-0.026,0.01-0.04c0.021-0.075,0.036-0.151,0.051-0.228c0-0.007,0.003-0.013,0.005-0.021h7.562 c0.935,0.002,1.691,0.757,1.692,1.691v16.06h-8.256c-1.517,0.002-2.746,1.23-2.748,2.748v20.865H11.487 c-0.934,0-1.69-0.758-1.691-1.693V5.867z M13.813,13.283h25.581c0.349,0,0.634-0.284,0.634-0.635s-0.285-0.634-0.634-0.634H13.813 c-0.351,0-0.635,0.284-0.635,0.634S13.462,13.283,13.813,13.283z M39.394,18.119H21.951c-0.351,0-0.634,0.283-0.634,0.634 c0,0.35,0.283,0.635,0.634,0.635h17.442c0.349,0,0.634-0.285,0.634-0.635C40.027,18.402,39.742,18.119,39.394,18.119z  M21.951,24.223c-0.351,0-0.634,0.284-0.634,0.634c0,0.351,0.283,0.634,0.634,0.634h8.604c0.351,0,0.635-0.284,0.635-0.634 c0-0.35-0.284-0.634-0.635-0.634H21.951z M13.813,31.595h16.742c0.351,0,0.635-0.281,0.635-0.633c0-0.35-0.284-0.635-0.635-0.635 H13.813c-0.351,0-0.635,0.285-0.635,0.635C13.178,31.313,13.462,31.595,13.813,31.595z M13.813,37.699h16.742 c0.351,0,0.635-0.282,0.635-0.633s-0.284-0.635-0.635-0.635H13.813c-0.351,0-0.635,0.284-0.635,0.635S13.462,37.699,13.813,37.699z  M15.986,25.615c-0.005,0-0.01-0.001-0.015-0.001c-0.006,0-0.011,0.001-0.016,0.001c-0.835-0.01-1.508-0.688-1.509-1.525 c0-0.35-0.284-0.633-0.634-0.633c-0.351,0-0.635,0.283-0.635,0.633c0.002,1.298,0.896,2.424,2.159,2.721v0.723 c0,0.351,0.284,0.635,0.634,0.635c0.35,0,0.635-0.284,0.635-0.635v-0.723c1.501-0.351,2.436-1.853,2.086-3.354 c-0.295-1.265-1.422-2.16-2.721-2.159c-0.843,0-1.524-0.683-1.524-1.524c0-0.843,0.682-1.526,1.524-1.526s1.525,0.683,1.525,1.526 c0,0.351,0.285,0.633,0.635,0.632c0.349,0,0.633-0.283,0.633-0.632c-0.001-1.298-0.896-2.425-2.158-2.72v-0.626 c0-0.351-0.285-0.633-0.635-0.633c-0.351,0-0.634,0.283-0.634,0.633v0.626c-1.501,0.349-2.436,1.852-2.085,3.353 c0.294,1.265,1.422,2.16,2.72,2.16c0.842,0,1.523,0.685,1.522,1.525C17.492,24.927,16.82,25.604,15.986,25.615z"/></svg>