<svg version="1.1" xmlns="http://www.w3.org/2000/svg" xmlns:a="http://ns.adobe.com/AdobeSVGViewerExtensions/3.0/" width="16px" height="22px" viewBox="0 0 16 22"><linearGradient id="SVGID_1_" gradientUnits="userSpaceOnUse" x1="1.7847" y1="6.1665" x2="14.862" y2="19.2438"><stop  offset="0" style="stop-color:#86C8EC"/><stop  offset="1" style="stop-color:#42A8DE"/><a:midPointStop  offset="0" style="stop-color:#86C8EC"/><a:midPointStop  offset="0.5" style="stop-color:#86C8EC"/><a:midPointStop  offset="1" style="stop-color:#42A8DE"/></linearGradient><path fill="url(#SVGID_1_)" d="M8.149,2.988V4.4h0.923V2.988C9.32,2.919,9.57,2.781,9.748,2.609c0.604-0.585,0.604-1.584,0-2.169 c-0.604-0.586-1.634-0.586-2.238,0c-0.604,0.585-0.604,1.584,0,2.169C7.652,2.781,7.9,2.884,8.149,2.988z M14.775,13.871 c-0.312-0.374-0.73-0.611-1.219-0.611h-0.732c-0.279-0.375-0.627-0.681-1.01-0.953c0.418-0.203,0.801-0.442,1.15-0.782 c1.531-1.496,1.531-3.911,0-5.374c-0.697-0.68-1.674-1.123-2.752-1.123h-4.39c-1.08,0-2.055,0.442-2.752,1.123 c-1.533,1.497-1.533,3.911,0,5.374c0.312,0.34,0.731,0.579,1.149,0.782c-0.383,0.238-0.731,0.578-1.011,0.953H2.444 c-0.488,0-0.906,0.237-1.22,0.611c-0.278,0.341-0.418,0.783-0.453,1.259c0,0.034,0,0.067,0,0.067v3.47 c0,0.238,0.21,0.442,0.453,0.442c0.244,0,0.453-0.204,0.453-0.442V15.13c0-0.306,0.104-0.544,0.243-0.748 c0.14-0.17,0.314-0.272,0.488-0.272h0.313c-0.104,0.34-0.174,0.715-0.174,1.122c0,1.429,0.592,2.722,1.567,3.64 c0.627,0.612,1.393,1.055,2.229,1.293H5.196c-0.522,0-0.941,0.408-0.941,0.918c0,0.238,0.105,0.476,0.279,0.646 C4.708,21.898,4.952,22,5.196,22h5.644c0.521,0,0.939-0.408,0.939-0.918c0-0.238-0.104-0.477-0.277-0.646 c-0.176-0.17-0.42-0.271-0.662-0.271h-1.15c0.836-0.238,1.602-0.681,2.23-1.293c0.975-0.952,1.566-2.245,1.566-3.64 c0-0.374-0.07-0.748-0.174-1.122h0.279c0.174,0,0.348,0.103,0.486,0.272c0.141,0.204,0.244,0.442,0.244,0.748v3.571 c0,0.238,0.209,0.441,0.453,0.441s0.453-0.203,0.453-0.441v-3.504c0-0.033,0-0.067,0-0.067 C15.229,14.654,15.055,14.178,14.775,13.871z M6.728,9.654c-0.487,0.476-1.289,0.476-1.776,0c-0.488-0.477-0.488-1.259,0-1.734 c0.487-0.477,1.289-0.477,1.776,0C7.216,8.396,7.216,9.178,6.728,9.654z M11.082,9.654c-0.486,0.476-1.287,0.476-1.775,0 c-0.488-0.477-0.488-1.259,0-1.734c0.488-0.477,1.289-0.477,1.775,0C11.57,8.396,11.57,9.178,11.082,9.654z M1.085,14.709 c0,0.062,0,0.125,0,0.125V14.709L1.085,14.709z"/></svg>