<svg version="1.1" xmlns="http://www.w3.org/2000/svg" xmlns:a="http://ns.adobe.com/AdobeSVGViewerExtensions/3.0/" width="64px" height="52px" viewBox="0 0 64 52">
<linearGradient id="SVGID_1_" gradientUnits="userSpaceOnUse" x1="0.5728" y1="25.6685" x2="63.5" y2="25.6685"><stop  offset="0" style="stop-color:#88C8EC"/><stop  offset="1" style="stop-color:#43A8DD"/></linearGradient><path fill="none" stroke="url(#SVGID_1_)" stroke-linecap="round" stroke-miterlimit="10" d="M15.808,37.684 C13.415,34.388,12,30.335,12,25.95c0-4.716,1.636-9.047,4.367-12.467 M16.367,13.483l-5.352-5.352 M9.208,3.917 c-1.381,0-2.5,1.119-2.5,2.5s1.119,2.5,2.5,2.5s2.5-1.119,2.5-2.5S10.589,3.917,9.208,3.917z M15.805,37.762l-5.352,5.352 M6.239,44.92c0,1.381,1.119,2.5,2.5,2.5s2.5-1.119,2.5-2.5s-1.119-2.5-2.5-2.5S6.239,43.539,6.239,44.92z M11.631,26.018H6.062 M1.805,24.314c-0.977,0.977-0.977,2.56,0,3.536s2.559,0.977,3.536,0c0.976-0.977,0.976-2.56,0-3.536 C4.364,23.339,2.782,23.339,1.805,24.314z M48.265,37.684c2.393-3.296,3.808-7.349,3.808-11.733c0-4.716-1.637-9.047-4.367-12.467 M47.705,13.483l5.353-5.352 M52.363,6.417c0,1.381,1.119,2.5,2.5,2.5s2.5-1.119,2.5-2.5s-1.119-2.5-2.5-2.5 S52.363,5.036,52.363,6.417z M48.268,37.762l5.352,5.352 M55.334,42.42c-1.381,0-2.5,1.119-2.5,2.5s1.119,2.5,2.5,2.5 s2.5-1.119,2.5-2.5S56.715,42.42,55.334,42.42z M52.441,26.018h5.568 M58.731,24.314c-0.976,0.977-0.976,2.56,0,3.536 c0.977,0.977,2.56,0.977,3.536,0s0.977-2.56,0-3.536C61.291,23.339,59.708,23.339,58.731,24.314z"/><linearGradient id="SVGID_2_" gradientUnits="userSpaceOnUse" x1="17" y1="26.5" x2="47" y2="26.5"><stop  offset="0" style="stop-color:#88C8EC"/><stop  offset="1" style="stop-color:#43A8DD"/></linearGradient><linearGradient id="SVGID_3_" gradientUnits="userSpaceOnUse" x1="16.9502" y1="26.5" x2="47.0498" y2="26.5"><stop  offset="0" style="stop-color:#88C8EC"/><stop  offset="1" style="stop-color:#43A8DD"/></linearGradient><path fill="url(#SVGID_2_)" stroke="url(#SVGID_3_)" stroke-width="0.1" stroke-linecap="round" stroke-linejoin="round" stroke-miterlimit="10" d=" M29.294,13.377l-0.281,0.089l-11.438,3.677L17,17.321l0.383,0.473l3.449,4.226l-3.436,3.816l-0.357,0.406l0.485,0.232l3.447,1.658 v6.971v0.281l0.268,0.09l10.621,4.084L32,39.623l0.141-0.064l10.621-4.084l0.266-0.09v-0.281v-6.971l3.449-1.658l0.484-0.232 l-0.359-0.406L43.17,22.02l3.447-4.226L47,17.321l-0.575-0.179l-11.438-3.677l-0.281-0.089l-0.164,0.229L32,16.874l-2.543-3.268 L29.294,13.377z M29,14.333l2.361,3.027l-9.854,4.174l-3.103-3.792L29,14.333z M35,14.333l10.596,3.409l-3.104,3.792l-9.854-4.174 L35,14.333z M32,17.973l9.539,4.034L32,25.684l-9.536-3.677L32,17.973z M21.507,22.505l9.817,3.777L27.8,30.51l-9.434-4.533 L21.507,22.505z M42.492,22.505l3.141,3.472l-9.434,4.533l-3.522-4.228L42.492,22.505z M31.592,27.24v11.361l-9.804-3.778v-6.306 l5.949,2.857l0.293,0.143l0.205-0.244L31.592,27.24z M32.409,27.24l3.353,4.033l0.211,0.244l0.293-0.143l5.947-2.857v6.306 l-9.804,3.778V27.24z"/></svg>