<svg version="1.1" xmlns="http://www.w3.org/2000/svg" xmlns:xlink="http://www.w3.org/1999/xlink" width="18px" height="24px" viewBox="0 0 18 24">
<linearGradient id="SVGID_1_" gradientUnits="userSpaceOnUse" x1="297.5059" y1="-365.1846" x2="314.4941" y2="-382.1729" gradientTransform="matrix(1 0 0 -1 -297 -359)"><stop  offset="0" style="stop-color:#88C8EC"/><stop  offset="1" style="stop-color:#43A8DD"/></linearGradient><path fill="url(#SVGID_1_)" d="M15.749,8h-1.124V5.714C14.625,2.552,12.111,0,8.999,0C5.887,0,3.375,2.552,3.375,5.714V8H2.249 C1.012,8,0,9.029,0,10.286v11.429C0,22.971,1.012,24,2.249,24h13.5C16.986,24,18,22.971,18,21.715V10.286 C18,9.029,16.986,8,15.749,8z M5.999,5.647C5.999,3.647,7.581,2,9.5,2s3.499,1.647,3.499,3.647V8h-7V5.647z M3,15.654h1.761 C4.761,13.077,6.874,11,9.495,11c0.938,0,1.8,0.27,2.505,0.73l-0.861,0.847c-0.509-0.27-1.057-0.423-1.644-0.423 c-1.956,0-3.561,1.577-3.561,3.5h1.761L5.308,18L3,15.654z M13.177,16.346c0,2.577-2.095,4.654-4.694,4.654 C7.551,21,6.699,20.73,6,20.27l0.854-0.847c0.504,0.271,1.047,0.423,1.629,0.423c1.94,0,3.531-1.576,3.531-3.5h-1.746L12.634,14 L15,16.346H13.177z"/></svg>