<svg version="1.1" xmlns="http://www.w3.org/2000/svg" xmlns:a="http://ns.adobe.com/AdobeSVGViewerExtensions/3.0/" width="26px" height="26px" viewBox="0 0 26 26">
<linearGradient id="SVGID_1_" gradientUnits="userSpaceOnUse" x1="8.6401" y1="8.6401" x2="17.3612" y2="17.3612"><stop  offset="0" style="stop-color:#88C8EC"/><stop  offset="1" style="stop-color:#43A8DD"/><a:midPointStop  offset="0" style="stop-color:#88C8EC"/><a:midPointStop  offset="0.5" style="stop-color:#88C8EC"/><a:midPointStop  offset="1" style="stop-color:#43A8DD"/></linearGradient><path fill="url(#SVGID_1_)" d="M8.348,22.013c-1.203,1.205-3.156,1.205-4.36,0c-1.186-1.185-1.205-3.096-0.056-4.304l6.498-6.499 c-2.009-0.537-4.238-0.042-5.845,1.485l-2.89,2.89c-2.298,2.416-2.26,6.239,0.112,8.608c2.408,2.409,6.314,2.409,8.721,0 l2.665-2.664c1.615-1.614,2.147-3.901,1.598-5.958L8.348,22.013z M24.193,1.807c2.409,2.408,2.409,6.314,0,8.722l-2.664,2.664 c-1.614,1.615-3.901,2.147-5.958,1.598l6.442-6.442c1.205-1.204,1.205-3.157,0-4.361c-1.185-1.186-3.096-1.205-4.304-0.056 l-6.499,6.499c-0.537-2.01-0.042-4.238,1.485-5.845l2.89-2.89C18.001-0.602,21.823-0.564,24.193,1.807L24.193,1.807z M8.412,15.467 l7.055-7.055c0.587-0.559,1.517-0.549,2.094,0.027c0.586,0.585,0.586,1.536,0,2.121l-7,7c-0.586,0.586-1.536,0.586-2.121,0 C7.862,16.984,7.854,16.055,8.412,15.467z"/></svg>