<svg xmlns="http://www.w3.org/2000/svg" xmlns:xlink="http://www.w3.org/1999/xlink" width="44px" height="36px"><linearGradient id="SVGID_1_" gradientUnits="userSpaceOnUse" x1="10.6333" y1="6.6431" x2="33.3588" y2="29.3685"><stop  offset="0" style="stop-color:#88C8EC"/><stop  offset="1" style="stop-color:#43A8DD"/></linearGradient><path fill="url(#SVGID_1_)" d="M43.447,17.314L33.066,6.335c-0.429-0.348-1.059-0.284-1.406,0.144 c-0.281,0.346-0.299,0.839-0.04,1.204l9.731,10.329l-9.731,10.28c-0.429,0.349-0.491,0.978-0.147,1.405 c0.352,0.426,0.98,0.489,1.408,0.143c0.07-0.059,0.133-0.125,0.186-0.199l10.381-10.93C43.826,18.325,43.826,17.702,43.447,17.314z  M12.357,28.292l-9.729-10.28l9.729-10.278c0.426-0.35,0.49-0.978,0.141-1.404c-0.346-0.428-0.977-0.493-1.401-0.144 c-0.071,0.058-0.133,0.125-0.186,0.2L0.531,17.314c-0.35,0.381-0.35,0.966,0,1.348l10.38,10.979 c0.315,0.449,0.938,0.559,1.392,0.242c0.451-0.316,0.561-0.939,0.24-1.392C12.493,28.416,12.428,28.35,12.357,28.292L12.357,28.292z  M25.617,1.026c-0.539-0.125-1.072,0.209-1.198,0.747c0,0.001,0,0.001,0,0.001l-6.757,32.026c-0.125,0.538,0.211,1.076,0.748,1.198 c0.001,0,0.001,0,0.001,0.001h0.249c0.449-0.01,0.838-0.314,0.947-0.749l6.707-32.027C26.443,1.701,26.136,1.171,25.617,1.026z"/></svg>