<svg version="1.1" xmlns="http://www.w3.org/2000/svg" xmlns:a="http://ns.adobe.com/AdobeSVGViewerExtensions/3.0/" width="64px" height="52px" viewBox="0 0 64 52">
<linearGradient id="SVGID_1_" gradientUnits="userSpaceOnUse" x1="6.6655" y1="26" x2="57.335" y2="26"><stop  offset="0" style="stop-color:#88C8EC"/><stop  offset="1" style="stop-color:#43A8DD"/></linearGradient><path fill="url(#SVGID_1_)" d="M37.332,39.334c-0.005-2.028,0.535-4.021,1.562-5.769c0.706-1.162,1.086-2.491,1.107-3.853V2.207 c0-1.218-0.99-2.207-2.21-2.207l0,0H8.872C7.654,0,6.666,0.988,6.666,2.207l0,0v47.588c0,1.217,0.989,2.203,2.207,2.203h5.514 c0.891,0,1.613-0.721,1.613-1.613V37.613c0-0.894,0.722-1.615,1.612-1.615h11.441c0.891,0,1.612,0.722,1.612,1.615v12.771 c0,0.893,0.723,1.613,1.615,1.613h5.512c1.22,0,2.21-0.986,2.21-2.203l0,0c0.002-1.189-0.29-2.361-0.849-3.407 C37.964,44.224,37.34,41.798,37.332,39.334z M17.332,29.645c0.004,0.561-0.446,1.019-1.005,1.021c-0.006,0-0.011,0-0.014,0h-4.627 c-0.559,0.005-1.016-0.447-1.02-1.006c0-0.005,0-0.01,0-0.015v-4.626c-0.003-0.56,0.447-1.017,1.006-1.019c0.005,0,0.011,0,0.014,0 h4.627c0.559-0.004,1.016,0.446,1.019,1.007c0,0.003,0,0.008,0,0.012V29.645z M17.332,20.312c0.004,0.56-0.446,1.016-1.005,1.021 c-0.006,0-0.011,0-0.014,0h-4.627c-0.559,0.002-1.016-0.449-1.02-1.007c0-0.005,0-0.01,0-0.013v-4.627 c-0.003-0.559,0.447-1.016,1.006-1.018c0.005,0,0.011,0,0.014,0h4.627c0.559-0.006,1.016,0.446,1.019,1.005c0,0.004,0,0.011,0,0.013 V20.312z M17.332,10.979c0.004,0.559-0.446,1.016-1.005,1.019c-0.006,0-0.011,0-0.014,0h-4.627c-0.559,0.005-1.016-0.446-1.02-1.005 c0-0.005,0-0.009,0-0.014V6.353c-0.003-0.56,0.447-1.016,1.006-1.02c0.005,0,0.011,0,0.014,0h4.627 c0.559-0.003,1.016,0.446,1.019,1.006c0,0.005,0,0.01,0,0.014V10.979z M26.666,29.645c0.003,0.561-0.448,1.019-1.006,1.021 c-0.004,0-0.009,0-0.014,0h-4.627c-0.559,0.005-1.016-0.447-1.019-1.006c0-0.005,0-0.01,0-0.015v-4.626 c-0.004-0.56,0.446-1.017,1.007-1.019c0.004,0,0.007,0,0.011,0h4.627c0.561-0.004,1.016,0.446,1.021,1.007c0,0.003,0,0.008,0,0.012 V29.645z M26.666,20.312c0.003,0.56-0.448,1.016-1.006,1.021c-0.004,0-0.009,0-0.014,0h-4.627c-0.559,0.002-1.016-0.449-1.019-1.007 c0-0.005,0-0.01,0-0.013v-4.627c-0.004-0.559,0.446-1.016,1.007-1.018c0.004,0,0.007,0,0.011,0h4.627 c0.561-0.006,1.016,0.446,1.021,1.005c0,0.004,0,0.011,0,0.013V20.312z M26.666,10.979c0.003,0.559-0.448,1.016-1.006,1.019 c-0.004,0-0.009,0-0.014,0h-4.627c-0.559,0.005-1.016-0.446-1.019-1.005c0-0.005,0-0.009,0-0.014V6.353 c-0.004-0.56,0.446-1.016,1.007-1.02c0.004,0,0.007,0,0.011,0h4.627c0.561-0.003,1.016,0.446,1.021,1.006c0,0.005,0,0.01,0,0.014 V10.979z M36,29.645c0.005,0.561-0.447,1.019-1.006,1.021c-0.005,0-0.01,0-0.012,0h-4.629c-0.56,0.005-1.017-0.447-1.021-1.006 c0-0.005,0-0.01,0-0.015v-4.626C29.33,24.459,29.78,24.002,30.34,24c0.003,0,0.008,0,0.013,0h4.629 c0.561-0.004,1.014,0.446,1.018,1.007c0,0.003,0,0.008,0,0.012V29.645z M36,20.312c0.005,0.56-0.447,1.016-1.006,1.021 c-0.005,0-0.01,0-0.012,0h-4.629c-0.56,0.002-1.017-0.449-1.021-1.007c0-0.005,0-0.01,0-0.013v-4.627 c-0.003-0.559,0.447-1.016,1.008-1.018c0.003,0,0.008,0,0.013,0h4.629c0.561-0.006,1.014,0.446,1.018,1.005c0,0.004,0,0.011,0,0.013 V20.312z M36,10.979c0.005,0.559-0.447,1.016-1.006,1.019c-0.005,0-0.01,0-0.012,0h-4.629c-0.56,0.005-1.017-0.446-1.021-1.005 c0-0.005,0-0.009,0-0.014V6.353c-0.003-0.56,0.447-1.016,1.008-1.02c0.003,0,0.008,0,0.013,0h4.629 C35.543,5.33,35.996,5.779,36,6.338c0,0.005,0,0.01,0,0.014V10.979z M57.262,40.826c-0.729,5.612-5.334,9.373-7.5,10.842 c-0.655,0.442-1.517,0.442-2.169,0c-2.335-1.595-7.591-5.896-7.591-12.334C40,35.088,43.07,31.47,47.26,30.778 C53.065,29.824,57.998,34.992,57.262,40.826z M53.444,38.906c0.009-2.638-2.13-4.778-4.764-4.778 c-2.636-0.005-4.78,2.128-4.782,4.764c-0.003,2.637,2.13,4.778,4.767,4.779C51.303,43.676,53.44,41.542,53.444,38.906L53.444,38.906 z"/></svg>