<svg version="1.1" xmlns="http://www.w3.org/2000/svg" xmlns:a="http://ns.adobe.com/AdobeSVGViewerExtensions/3.0/" width="65px" height="52px" viewBox="0 0 65 52">
<linearGradient id="SVGID_1_" gradientUnits="userSpaceOnUse" x1="12.1396" y1="5.7354" x2="52.7658" y2="46.3615"><stop  offset="0" style="stop-color:#88C8EC"/><stop  offset="1" style="stop-color:#43A8DD"/><a:midPointStop  offset="0" style="stop-color:#88C8EC"/><a:midPointStop  offset="0.5" style="stop-color:#88C8EC"/><a:midPointStop  offset="1" style="stop-color:#43A8DD"/></linearGradient><path fill="url(#SVGID_1_)" d="M53.5,21.08V41.8c0,5.103-4.098,9.2-9.2,9.2H16.7c-5.103,0-9.2-4.098-9.2-9.2V14.2 c0-5.102,4.098-9.2,9.2-9.2h20.719C35.95,6.933,35.1,9.329,35.1,11.881c0,6.339,5.18,11.52,11.52,11.52 C49.248,23.4,51.567,22.549,53.5,21.08z M48,20c5.246,0,9.5-4.253,9.5-9.5S53.246,1,48,1c-5.247,0-9.5,4.253-9.5,9.5 S42.753,20,48,20z M44.49,12.541V9.268L48.5,6l3.99,3.268v3.273L49.5,10v5h-2v-5L44.49,12.541z M17.5,31 c0,0,3.219,0.031,4.344,0.031c0.406,0,3.656-5.469,3.656-5.469s4.229,8.99,6.188,11.655c0.361,0.491,0.515,0.77,0.812,0.782 c0.375,0.016,0.401-0.107,0.867-0.681c1.114-1.37,2.632-4.405,3.133-5.319c0.266-0.484,0.484-1.002,0.797-1.002 C37.426,30.998,40.5,31,40.5,31s2-0.062,2-2c0-1.906-2-2-2-2s-2.25,0.02-4,0c-1.583-0.018-2.461,2.863-3.186,3.994 c-0.246,0.386-0.453,0.641-0.627,0.631c-0.215-0.012-0.435-0.266-0.625-0.656C30.812,28.406,27.344,20.562,25.5,20 c-1.156-0.353-5,7-5,7h-3c0,0-2-0.188-2,2S17.5,31,17.5,31z"/></svg>