<svg version="1.1" xmlns="http://www.w3.org/2000/svg" xmlns:xlink="http://www.w3.org/1999/xlink" xmlns:a="http://ns.adobe.com/AdobeSVGViewerExtensions/3.0/" x="0px" y="0px" width="256px" height="40px" viewBox="0 0 256 40"><path fill="#004484" d="M65.79,31.064c-1.375,2.488-3.362,4.437-5.941,5.843c-2.589,1.39-5.628,2.084-9.137,2.084H38.31V6.14h12.402 c3.539,0,6.583,0.682,9.162,2.037c2.567,1.365,4.543,3.292,5.917,5.77c1.379,2.478,2.076,5.329,2.076,8.549 C67.869,25.717,67.17,28.57,65.79,31.064 M57.25,29.422c1.719-1.645,2.567-3.951,2.567-6.927c0-2.977-0.848-5.279-2.567-6.919 c-1.726-1.651-4.13-2.467-7.227-2.467h-3.766v18.777h3.766C53.119,31.885,55.523,31.045,57.25,29.422 M130.193,7.786 c2.523,1.445,4.52,3.444,5.974,5.991c1.446,2.564,2.181,5.45,2.181,8.681c0,3.224-0.748,6.103-2.203,8.683 c-1.47,2.564-3.468,4.574-5.99,6.016c-2.533,1.434-5.322,2.156-8.396,2.156c-3.056,0-5.862-0.724-8.381-2.156 c-2.523-1.44-4.522-3.45-5.997-6.016c-1.473-2.58-2.206-5.459-2.206-8.683c0-3.232,0.734-6.118,2.206-8.681 c1.475-2.548,3.475-4.546,5.997-5.991c2.521-1.439,5.326-2.155,8.381-2.155C124.86,5.63,127.665,6.346,130.193,7.786  M115.557,15.548c-1.535,1.691-2.296,3.987-2.296,6.911c0,2.861,0.764,5.178,2.296,6.859c1.538,1.707,3.6,2.565,6.201,2.565 c2.578,0,4.635-0.858,6.191-2.565c1.541-1.683,2.314-3.998,2.314-6.859c0-2.893-0.767-5.184-2.292-6.883 c-1.543-1.71-3.608-2.561-6.213-2.561C119.157,13.015,117.094,13.86,115.557,15.548 M171.299,9.116 c-2.734-2.202-6.21-3.297-10.367-3.297c-3.203,0-5.998,0.698-8.432,2.108c-2.412,1.415-4.271,3.393-5.588,5.927 c-1.324,2.534-1.977,5.432-1.977,8.68c0,3.256,0.651,6.159,1.977,8.694c1.314,2.545,3.177,4.521,5.588,5.928 c2.432,1.404,5.229,2.115,8.432,2.115c4.156,0,7.633-1.106,10.367-3.318c2.74-2.225,4.512-5.189,5.329-8.907h-8.401 c-0.639,1.479-1.569,2.664-2.884,3.522c-1.276,0.886-2.8,1.314-4.571,1.314c-2.315,0-4.201-0.854-5.61-2.542 c-1.429-1.683-2.138-3.946-2.138-6.808c0-2.843,0.709-5.124,2.138-6.818c1.409-1.711,3.295-2.565,5.61-2.565 c1.771,0,3.295,0.441,4.571,1.304c1.312,0.875,2.245,2.059,2.884,3.578h8.401C175.812,14.288,174.039,11.319,171.299,9.116  M208.729,6.14v6.318h8.816v26.533h7.996V12.458h8.926V6.14H208.729z M16.414,6.14L0.05,38.988h9.32l11.7-23.497L16.414,6.14z  M26.306,26.004l-6.474,12.982h12.943L26.306,26.004z M193.259,6.14L176.9,38.988h9.316l11.702-23.498L193.259,6.14z  M203.165,26.004l-6.474,12.982h12.942L203.165,26.004z M86.539,38.991L102.9,6.137h-9.312L81.879,29.639L86.539,38.991z M76.646,19.126L83.113,6.14H70.176L76.646,19.126z"/><path fill="#004484" d="M255.95,0.664l-0.671,5.816l-0.99-0.119l0.384-3.262l-3.052,2.68h-5.885l-3.061-2.68l0.368,3.262l-0.987,0.119L241.4,0.664 l4.715,4.12h5.119L255.95,0.664z M251.418,7.88l-2.741,2.409l-2.731-2.409l-1.372,0.715l0.463,0.876l0.751-0.389l2.398,2.092v0.919 l-0.838,0.852l0.682,0.695l0.647-0.647l0.632,0.647l0.703-0.695l-0.84-0.852v-0.917l2.376-2.093l0.759,0.389l0.452-0.876 L251.418,7.88z"/></svg>