<svg xmlns="http://www.w3.org/2000/svg" xmlns:xlink="http://www.w3.org/1999/xlink">
  <symbol id="icon-facebook" viewBox="0 0 24 24">
    <path fill="currentColor" d="M13.135,20.215V12.59h2.551l0.393-2.973h-2.943V7.719c0-0.854,0.23-1.446,1.467-1.446h1.576V3.621 C15.906,3.58,14.973,3.5,13.887,3.5c-2.269,0-3.826,1.386-3.826,3.927v2.19H7.499v2.973h2.562v7.625H13.135z"/>
  </symbol>
  <symbol id="icon-linkedin" viewBox="0 0 24 24">
    <path fill="currentColor" d="M6.348,7.935c1.155,0,1.878-0.763,1.868-1.717C8.206,5.243,7.503,4.5,6.368,4.5 C5.243,4.5,4.5,5.243,4.5,6.218c0,0.954,0.713,1.717,1.828,1.717H6.348z M9.833,19.246c0.041-9.021,0-9.955,0-9.955h3.304v1.416 l0.043-0.064c0.443-0.676,1.234-1.583,2.941-1.583c2.18,0,3.807,1.426,3.807,4.48v5.706h-3.305v-5.324 c0-1.336-0.482-2.25-1.678-2.25c-0.914,0-1.456,0.613-1.697,1.205c-0.08,0.221-0.111,0.513-0.111,0.814v5.555H9.833z M4.69,19.246 V9.292h3.314v9.955H4.69z"/>
  </symbol>
  <symbol id="icon-twitter" viewBox="0 0 24 24">
    <path fill="currentColor" d="M9.481,18.357c5.966,0,9.231-4.942,9.231-9.231c0-0.141,0-0.281-0.011-0.422 c0.634-0.462,1.186-1.034,1.628-1.677c-0.582,0.251-1.216,0.432-1.869,0.502c0.674-0.402,1.186-1.035,1.427-1.788 c-0.622,0.372-1.325,0.643-2.059,0.783C17.236,5.892,16.392,5.5,15.458,5.5c-1.798,0-3.245,1.457-3.245,3.244 c0,0.251,0.03,0.502,0.081,0.744C9.602,9.347,7.202,8.062,5.604,6.093C5.323,6.575,5.162,7.127,5.162,7.73 c0,1.125,0.573,2.12,1.447,2.702c-0.533-0.02-1.035-0.17-1.468-0.412v0.04l0,0c0,1.577,1.116,2.883,2.602,3.184 c-0.271,0.07-0.562,0.111-0.854,0.111c-0.21,0-0.412-0.021-0.613-0.051c0.412,1.285,1.608,2.22,3.034,2.25 c-1.115,0.874-2.512,1.386-4.028,1.386c-0.272,0-0.522-0.01-0.783-0.04C5.936,17.824,7.644,18.357,9.481,18.357z"/>
  </symbol>
  <symbol id="icon-gplus" viewBox="0 0 24 24">
    <path fill="currentColor" d="M7.791,19.363c4.249,0,7.072-2.984,7.072-7.193c0-0.482-0.051-0.854-0.121-1.225H7.791v2.531h4.179 c-0.171,1.074-1.266,3.174-4.179,3.174c-2.51,0-4.56-2.08-4.56-4.65c0-2.571,2.05-4.651,4.56-4.651c1.437,0,2.391,0.613,2.934,1.135 l1.999-1.918C11.438,5.36,9.78,4.637,7.791,4.637c-4.068,0-7.363,3.294-7.363,7.363S3.723,19.363,7.791,19.363z M21.473,15.154v-2.1 h2.1v-2.109h-2.1V8.846h-2.109v2.099h-2.1v2.109h2.1v2.1H21.473z"/>
  </symbol>
  <symbol id="icon-instagram" viewBox="0 0 24 24">
    <path fill="currentColor" d="M15.398,19.879c1.234-0.061,2.33-0.342,3.234-1.246c0.904-0.903,1.186-1.998,1.246-3.234 c0.045-0.798,0.051-1.591,0.051-2.387l-0.002-0.797c0-1.064,0.012-2.119-0.049-3.184c-0.061-1.235-0.342-2.331-1.246-3.234 s-2-1.185-3.234-1.246C14.334,4.49,13.279,4.5,12.215,4.5c-1.065,0-2.12-0.01-3.185,0.05C7.795,4.611,6.7,4.893,5.796,5.796 C4.892,6.7,4.611,7.795,4.55,9.031C4.505,9.829,4.5,10.622,4.5,11.418l0,0.797c0,1.064-0.01,2.119,0.05,3.184 c0.061,1.236,0.341,2.331,1.246,3.234c0.904,0.904,1.999,1.186,3.234,1.246c1.065,0.061,2.12,0.051,3.185,0.051 C13.279,19.93,14.334,19.939,15.398,19.879z M12.215,18.543c-1.125,0-3.536,0.09-4.551-0.312c-0.352-0.141-0.612-0.312-0.884-0.583 c-0.271-0.271-0.442-0.531-0.583-0.883c-0.402-1.016-0.312-3.426-0.312-4.551s-0.09-3.536,0.312-4.55 C6.338,7.313,6.509,7.052,6.78,6.781s0.532-0.442,0.884-0.583c1.015-0.402,3.425-0.312,4.551-0.312c1.124,0,3.535-0.09,4.55,0.312 c0.351,0.141,0.612,0.312,0.884,0.583s0.441,0.532,0.583,0.884c0.401,1.015,0.312,3.425,0.312,4.55s0.09,3.535-0.312,4.551 c-0.142,0.352-0.312,0.612-0.583,0.883c-0.271,0.271-0.533,0.442-0.884,0.583C15.75,18.633,13.339,18.543,12.215,18.543z  M16.332,9.021c0.514,0,0.925-0.412,0.925-0.924s-0.411-0.924-0.925-0.924c-0.512,0-0.924,0.412-0.924,0.924 S15.82,9.021,16.332,9.021z M12.215,16.172c2.189,0,3.957-1.768,3.957-3.957s-1.768-3.958-3.957-3.958 c-2.19,0-3.958,1.768-3.958,3.958S10.024,16.172,12.215,16.172z M12.215,14.786c-1.417,0-2.572-1.155-2.572-2.571 s1.156-2.571,2.572-2.571c1.416,0,2.57,1.155,2.57,2.571S13.631,14.786,12.215,14.786z"/>
  </symbol>
</svg>