<svg version="1.1" id="Layer_1" xmlns="http://www.w3.org/2000/svg" xmlns:xlink="http://www.w3.org/1999/xlink" width="61px" height="75px" viewBox="0 0 61 75"><linearGradient id="SVGID_1_" gradientUnits="userSpaceOnUse" x1="282.1943" y1="-298.4712" x2="333.2504" y2="-349.5273" gradientTransform="matrix(1 0 0 -1 -275.5 -283.5)"><stop  offset="0" style="stop-color:#88C8EC"/><stop  offset="1" style="stop-color:#43A8DD"/></linearGradient><path fill="url(#SVGID_1_)" d="M60.982,61.424c-0.096-0.801-0.566-1.508-1.271-1.906c-4.554-2.513-9.446-4.355-14.528-5.476 c-0.096-0.022-0.162-0.11-0.16-0.208v-2.97c1.752-2.275,3.062-4.858,3.859-7.613c1.988-1.979,2.873-5.058,3.342-6.73 c0.774-2.712,1.551-6.642-0.586-9.454l-0.091-0.119c0.994-4.95,2.308-16.582-6.584-22.482c1.041-1.054,1.608-2.482,1.571-3.959 c-0.012-0.143-0.078-0.275-0.188-0.367c-0.113-0.089-0.256-0.131-0.397-0.118c-0.11,0-11.238,1.257-16.59,0.158 C24.009-0.918,17.824,3.2,16.581,7.457c-2.077,0.271-3.968,1.336-5.271,2.97c-2.427,2.97-3.172,7.722-2.207,14.087 c0.059,0.822,0.168,1.624,0.308,2.455l-0.099,0.119c-2.119,2.751-1.343,6.692-0.567,9.394c0.477,1.672,1.352,4.771,3.342,6.721 c0.795,2.775,2.108,5.378,3.868,7.672v2.971c0.003,0.098-0.063,0.184-0.159,0.207c-5.074,1.115-9.961,2.952-14.509,5.454 c-0.703,0.4-1.174,1.108-1.27,1.908c-0.095,0.8,0.195,1.599,0.783,2.151C8.915,70.932,19.503,75.011,30.485,75 c10.994,0.021,21.593-4.055,29.715-11.424C60.789,63.021,61.079,62.225,60.982,61.424z M30.484,64.732 c-4.708,0.054-9.152-2.158-11.934-5.939c1.218-0.674,2.144-1.77,2.606-3.079c1.241,0.817,2.576,1.481,3.978,1.979 c3.471,1.224,7.261,1.224,10.732,0c1.399-0.5,2.735-1.166,3.979-1.979c0.452,1.327,1.385,2.438,2.614,3.119 C39.661,62.609,35.2,64.809,30.484,64.732z M44.447,40.421c-0.727,4.702-4.484,10.543-10.252,12.611 c-2.394,0.846-5.008,0.846-7.401,0c-5.967-2.109-9.507-8.019-10.223-12.632c-0.036-0.241-0.234-0.426-0.477-0.446 c-0.309,0.021-1.333-0.405-2.586-4.809c-0.994-3.445-0.566-4.692-0.229-5.128c0.24-0.297,0.615-0.453,0.995-0.416h0.18 c0.287,0.017,0.536-0.199,0.556-0.485c0-0.079,0.617-7.494,5.033-10.167c2.207-1.336,5.041-1.287,8.422,0.149 c6.965,2.97,12.075,2.752,15.208,2.059c3.58,2.623,2.545,6.831,2.308,7.642v0.099c-0.061,0.167-0.029,0.354,0.078,0.495 c0.111,0.141,0.289,0.216,0.467,0.198c0.439-0.083,0.891,0.072,1.186,0.406c0.329,0.436,0.746,1.683-0.229,5.128 c-1.254,4.414-2.277,4.829-2.557,4.85C44.682,39.991,44.48,40.178,44.447,40.421z"/></svg>